<?xml version="1.0" encoding="UTF-8"?>
<svg id="Calque_2" data-name="Calque 2" xmlns="http://www.w3.org/2000/svg" viewBox="0 0 485.07 433.94">
  <defs>
    <style>
      .cls-1 {
        fill: #563491;
        fill-rule: evenodd;
      }
    </style>
  </defs>
  <g id="Calque_1-2" data-name="Calque 1">
    <g id="_19_Contactless_Payment" data-name="19 Contactless Payment">
      <g>
        <path d="M484.25,231.59c-2.82-13.08-32.96-155.29-32.96-155.29-4.38-20.52-24.5-33.64-45.07-29.27L117.08,108.39c-20.52,4.33-33.65,24.55-29.27,45.02.1.49,7.97,37.63,8.31,39.38h-12.64c-21.44,0-38.94,17.46-38.94,38.94v163.26c0,21.49,17.5,38.94,38.94,38.94h304.07c21.49,0,38.94-17.45,38.94-38.94v-112.31l28.44-6.03c20.52-4.38,33.64-24.55,29.32-45.07ZM119.07,117.87l289.19-61.31c15.27-3.26,30.29,6.47,33.5,21.78l4.52,21.34L101.86,172.76l-4.57-21.34c-3.21-15.27,6.56-30.29,21.78-33.55h0ZM416.77,395c0,16.14-13.13,29.22-29.22,29.22H83.48c-16.09,0-29.22-13.08-29.22-29.22v-133.41h362.51v133.41ZM416.77,251.86H54.26v-20.13c0-16.14,13.13-29.22,29.22-29.22h304.07c16.09,0,29.22,13.08,29.22,29.22v20.13ZM452.94,267.13l-26.45,5.64v-41.13c-.05-21.44-17.5-38.85-38.94-38.85h-116.2l186.31-39.53,17.07,80.37c3.21,15.27-6.52,30.24-21.78,33.5h0Z"/>
        <path d="M87.06,293.27h55.83c2.69,0,4.86-2.18,4.86-4.86s-2.18-4.86-4.86-4.86h-55.83c-2.69,0-4.86,2.18-4.86,4.86s2.17,4.86,4.86,4.86Z"/>
        <path d="M87.06,330.04h98.66c2.69,0,4.86-2.18,4.86-4.86s-2.18-4.86-4.86-4.86h-98.66c-2.69,0-4.86,2.18-4.86,4.86s2.17,4.86,4.86,4.86Z"/>
        <path d="M239.22,357.08H87.06c-2.69,0-4.86,2.18-4.86,4.86s2.18,4.86,4.86,4.86h152.16c2.69,0,4.86-2.18,4.86-4.86s-2.18-4.86-4.86-4.86Z"/>
        <path d="M172.53,393.85h-85.47c-2.69,0-4.86,2.18-4.86,4.86s2.18,4.86,4.86,4.86h85.47c2.69,0,4.86-2.18,4.86-4.86s-2.18-4.86-4.86-4.86Z"/>
        <path d="M369.46,304.03h-77.01c-11.08,0-20.08,8.99-20.08,20.13v56.89c0,11.04,8.99,20.08,20.08,20.08h77.01c11.08,0,20.13-9.04,20.13-20.08v-56.93c-.05-11.13-9.04-20.08-20.13-20.08ZM320.79,313.75h20.37v53.58h-20.37v-53.58ZM282.09,324.16c0-5.74,4.62-10.4,10.36-10.4h18.62v14.39h-28.98v-3.99ZM282.09,337.87h28.98v29.46h-28.98v-29.46ZM379.86,381.04c0,5.69-4.67,10.36-10.4,10.36h-77.01c-5.74,0-10.36-4.67-10.36-10.36v-3.99h97.77v3.99ZM379.86,367.33h-28.98v-29.46h28.98v29.46ZM379.86,328.14h-28.98v-14.39h18.57c5.74,0,10.4,4.67,10.4,10.4v3.99h0Z"/>
        <path d="M98.09,0C44,0,0,44.01,0,98.1c0,2.68,2.18,4.86,4.86,4.86s4.86-2.18,4.86-4.86C9.72,49.37,49.36,9.72,98.09,9.72c2.69,0,4.86-2.18,4.86-4.86,0-2.68-2.18-4.86-4.86-4.86Z"/>
        <path d="M98.09,47.59c2.68,0,4.86-2.18,4.86-4.86s-2.18-4.86-4.86-4.86h0c-33.22,0-60.21,26.98-60.21,60.23,0,2.68,2.17,4.86,4.86,4.86s4.86-2.18,4.86-4.86c0-27.85,22.62-50.5,50.49-50.5h0Z"/>
        <path d="M80.6,102.96c2.69,0,4.86-2.18,4.86-4.86,0-6.96,5.67-12.63,12.63-12.63,2.69,0,4.86-2.18,4.86-4.86s-2.18-4.86-4.86-4.86c-12.33,0-22.36,10.03-22.36,22.36,0,2.68,2.17,4.86,4.86,4.86Z"/>
      </g>
      <g>
        <path class="cls-1" d="M484.25,231.59c-2.82-13.08-32.96-155.29-32.96-155.29-4.38-20.52-24.5-33.64-45.07-29.27L117.08,108.39c-20.52,4.33-33.65,24.55-29.27,45.02.1.49,7.97,37.63,8.31,39.38h-12.64c-21.44,0-38.94,17.46-38.94,38.94v163.26c0,21.49,17.5,38.94,38.94,38.94h304.07c21.49,0,38.94-17.45,38.94-38.94v-112.31l28.44-6.03c20.52-4.38,33.64-24.55,29.32-45.07ZM119.07,117.87l289.19-61.31c15.27-3.26,30.29,6.47,33.5,21.78l4.52,21.34L101.86,172.76l-4.57-21.34c-3.21-15.27,6.56-30.29,21.78-33.55h0ZM416.77,395c0,16.14-13.13,29.22-29.22,29.22H83.48c-16.09,0-29.22-13.08-29.22-29.22v-133.41h362.51v133.41ZM416.77,251.86H54.26v-20.13c0-16.14,13.13-29.22,29.22-29.22h304.07c16.09,0,29.22,13.08,29.22,29.22v20.13ZM452.94,267.13l-26.45,5.64v-41.13c-.05-21.44-17.5-38.85-38.94-38.85h-116.2l186.31-39.53,17.07,80.37c3.21,15.27-6.52,30.24-21.78,33.5h0Z"/>
        <path class="cls-1" d="M87.06,293.27h55.83c2.69,0,4.86-2.18,4.86-4.86s-2.18-4.86-4.86-4.86h-55.83c-2.69,0-4.86,2.18-4.86,4.86s2.17,4.86,4.86,4.86Z"/>
        <path class="cls-1" d="M87.06,330.04h98.66c2.69,0,4.86-2.18,4.86-4.86s-2.18-4.86-4.86-4.86h-98.66c-2.69,0-4.86,2.18-4.86,4.86s2.17,4.86,4.86,4.86Z"/>
        <path class="cls-1" d="M239.22,357.08H87.06c-2.69,0-4.86,2.18-4.86,4.86s2.18,4.86,4.86,4.86h152.16c2.69,0,4.86-2.18,4.86-4.86s-2.18-4.86-4.86-4.86Z"/>
        <path class="cls-1" d="M172.53,393.85h-85.47c-2.69,0-4.86,2.18-4.86,4.86s2.18,4.86,4.86,4.86h85.47c2.69,0,4.86-2.18,4.86-4.86s-2.18-4.86-4.86-4.86Z"/>
        <path class="cls-1" d="M369.46,304.03h-77.01c-11.08,0-20.08,8.99-20.08,20.13v56.89c0,11.04,8.99,20.08,20.08,20.08h77.01c11.08,0,20.13-9.04,20.13-20.08v-56.93c-.05-11.13-9.04-20.08-20.13-20.08ZM320.79,313.75h20.37v53.58h-20.37v-53.58ZM282.09,324.16c0-5.74,4.62-10.4,10.36-10.4h18.62v14.39h-28.98v-3.99ZM282.09,337.87h28.98v29.46h-28.98v-29.46ZM379.86,381.04c0,5.69-4.67,10.36-10.4,10.36h-77.01c-5.74,0-10.36-4.67-10.36-10.36v-3.99h97.77v3.99ZM379.86,367.33h-28.98v-29.46h28.98v29.46ZM379.86,328.14h-28.98v-14.39h18.57c5.74,0,10.4,4.67,10.4,10.4v3.99h0Z"/>
        <path class="cls-1" d="M98.09,0C44,0,0,44.01,0,98.1c0,2.68,2.18,4.86,4.86,4.86s4.86-2.18,4.86-4.86C9.72,49.37,49.36,9.72,98.09,9.72c2.69,0,4.86-2.18,4.86-4.86,0-2.68-2.18-4.86-4.86-4.86Z"/>
        <path class="cls-1" d="M98.09,47.59c2.68,0,4.86-2.18,4.86-4.86s-2.18-4.86-4.86-4.86h0c-33.22,0-60.21,26.98-60.21,60.23,0,2.68,2.17,4.86,4.86,4.86s4.86-2.18,4.86-4.86c0-27.85,22.62-50.5,50.49-50.5h0Z"/>
        <path class="cls-1" d="M80.6,102.96c2.69,0,4.86-2.18,4.86-4.86,0-6.96,5.67-12.63,12.63-12.63,2.69,0,4.86-2.18,4.86-4.86s-2.18-4.86-4.86-4.86c-12.33,0-22.36,10.03-22.36,22.36,0,2.68,2.17,4.86,4.86,4.86Z"/>
      </g>
    </g>
  </g>
</svg>