<?xml version="1.0" encoding="UTF-8"?>
<svg id="Calque_2" data-name="Calque 2" xmlns="http://www.w3.org/2000/svg" viewBox="0 0 123.24 144.53">
  <defs>
    <style>
      .cls-1 {
        fill: #563491;
        fill-rule: evenodd;
      }
    </style>
  </defs>
  <g id="Calque_1-2" data-name="Calque 1" image-rendering="optimizeQuality" shape-rendering="geometricPrecision" text-rendering="geometricPrecision">
    <g id="Layer_1">
      <g id="_425656000" data-name=" 425656000">
        <g>
          <g>
            <path class="cls-1" d="M61.62,144.49c-.6,0-1.19-.17-1.62-.6l-8.11-7.17-8.02,7.17c-.94.85-2.39.85-3.41,0l-8.02-7.17-8.02,7.17c-.94.85-2.39.85-3.41,0l-9.73-8.71c-.51-.51-.85-1.19-.85-1.88V2.47c0-1.37,1.19-2.47,2.56-2.47h97.38c1.37,0,2.47,1.11,2.47,2.47v130.83c0,.68-.26,1.37-.85,1.88l-9.73,8.71c-.94.85-2.39.85-3.33,0l-8.11-7.17-8.02,7.17c-.94.85-2.39.85-3.33,0l-8.11-7.17-8.02,7.17c-.51.43-1.11.6-1.71.6ZM51.89,130.75c.6,0,1.19.17,1.71.68l8.02,7.08,8.11-7.08c.94-.94,2.39-.94,3.33,0l8.02,7.08,8.11-7.08c.94-.94,2.39-.94,3.33,0l8.02,7.08,7.25-6.4V5.04H15.53v127.08l7.17,6.4,8.02-7.08c1.02-.94,2.47-.94,3.41,0l8.02,7.08,8.02-7.08c.51-.51,1.11-.68,1.71-.68Z"/>
            <g>
              <path class="cls-1" d="M100.19,30.81H23.13c-1.45,0-2.56-1.11-2.56-2.56v-14.68c0-1.45,1.11-2.56,2.56-2.56h77.07c1.37,0,2.56,1.11,2.56,2.56v14.68c0,1.45-1.19,2.56-2.56,2.56ZM25.69,25.69h71.94v-9.56H25.69v9.56Z"/>
              <path class="cls-1" d="M89.1,40.79h-54.88c-1.37,0-2.56-1.11-2.56-2.47,0-1.45,1.19-2.56,2.56-2.56h54.88c1.37,0,2.47,1.11,2.47,2.56,0,1.37-1.11,2.47-2.47,2.47Z"/>
              <g>
                <path class="cls-1" d="M39.94,51.55h-16.81c-1.45,0-2.56-1.19-2.56-2.56s1.11-2.56,2.56-2.56h16.81c1.37,0,2.56,1.19,2.56,2.56s-1.19,2.56-2.56,2.56Z"/>
                <path class="cls-1" d="M100.19,51.55h-47.45c-1.37,0-2.56-1.19-2.56-2.56s1.19-2.56,2.56-2.56h47.45c1.37,0,2.56,1.19,2.56,2.56s-1.19,2.56-2.56,2.56Z"/>
              </g>
              <g>
                <path class="cls-1" d="M39.94,63.75h-16.81c-1.45,0-2.56-1.11-2.56-2.56,0-1.37,1.11-2.56,2.56-2.56h16.81c1.37,0,2.56,1.19,2.56,2.56,0,1.45-1.19,2.56-2.56,2.56Z"/>
                <path class="cls-1" d="M100.19,63.75h-47.45c-1.37,0-2.56-1.11-2.56-2.56,0-1.37,1.19-2.56,2.56-2.56h47.45c1.37,0,2.56,1.19,2.56,2.56,0,1.45-1.19,2.56-2.56,2.56Z"/>
              </g>
              <g>
                <path class="cls-1" d="M39.94,75.96h-16.81c-1.45,0-2.56-1.11-2.56-2.56,0-1.37,1.11-2.56,2.56-2.56h16.81c1.37,0,2.56,1.19,2.56,2.56,0,1.45-1.19,2.56-2.56,2.56Z"/>
                <path class="cls-1" d="M100.19,75.96h-47.45c-1.37,0-2.56-1.11-2.56-2.56,0-1.37,1.19-2.56,2.56-2.56h47.45c1.37,0,2.56,1.19,2.56,2.56,0,1.45-1.19,2.56-2.56,2.56Z"/>
              </g>
              <g>
                <path class="cls-1" d="M39.94,88.16h-16.81c-1.45,0-2.56-1.11-2.56-2.56,0-1.37,1.11-2.56,2.56-2.56h16.81c1.37,0,2.56,1.19,2.56,2.56,0,1.45-1.19,2.56-2.56,2.56Z"/>
                <path class="cls-1" d="M100.19,88.16h-47.45c-1.37,0-2.56-1.11-2.56-2.56,0-1.37,1.19-2.56,2.56-2.56h47.45c1.37,0,2.56,1.19,2.56,2.56,0,1.45-1.19,2.56-2.56,2.56Z"/>
              </g>
              <g>
                <path class="cls-1" d="M39.94,100.36h-16.81c-1.45,0-2.56-1.11-2.56-2.56,0-1.37,1.11-2.56,2.56-2.56h16.81c1.37,0,2.56,1.19,2.56,2.56,0,1.45-1.19,2.56-2.56,2.56Z"/>
                <path class="cls-1" d="M100.19,100.36h-47.45c-1.37,0-2.56-1.11-2.56-2.56,0-1.37,1.19-2.56,2.56-2.56h47.45c1.37,0,2.56,1.19,2.56,2.56,0,1.45-1.19,2.56-2.56,2.56Z"/>
              </g>
              <g>
                <path class="cls-1" d="M39.94,112.57h-16.81c-1.45,0-2.56-1.11-2.56-2.56,0-1.37,1.11-2.56,2.56-2.56h16.81c1.37,0,2.56,1.19,2.56,2.56,0,1.45-1.19,2.56-2.56,2.56Z"/>
                <path class="cls-1" d="M100.19,112.57h-47.45c-1.37,0-2.56-1.11-2.56-2.56,0-1.37,1.19-2.56,2.56-2.56h47.45c1.37,0,2.56,1.19,2.56,2.56,0,1.45-1.19,2.56-2.56,2.56Z"/>
              </g>
              <g>
                <path class="cls-1" d="M39.94,124.77h-16.81c-1.45,0-2.56-1.11-2.56-2.56,0-1.37,1.11-2.47,2.56-2.47h16.81c1.37,0,2.56,1.11,2.56,2.47,0,1.45-1.19,2.56-2.56,2.56Z"/>
                <path class="cls-1" d="M100.19,124.77h-47.45c-1.37,0-2.56-1.11-2.56-2.56,0-1.37,1.19-2.47,2.56-2.47h47.45c1.37,0,2.56,1.11,2.56,2.47,0,1.45-1.19,2.56-2.56,2.56Z"/>
              </g>
            </g>
          </g>
          <g>
            <path class="cls-1" d="M2.56,56.5c-1.37,0-2.56-1.11-2.56-2.56V2.47C0,1.11,1.19,0,2.56,0c1.45,0,2.56,1.11,2.56,2.47v51.46c0,1.45-1.11,2.56-2.56,2.56Z"/>
            <path class="cls-1" d="M120.68,135.18c-1.37,0-2.47-1.11-2.47-2.56v-51.46c0-1.37,1.11-2.56,2.47-2.56,1.45,0,2.56,1.19,2.56,2.56v51.46c0,1.45-1.11,2.56-2.56,2.56Z"/>
          </g>
        </g>
      </g>
    </g>
  </g>
</svg>