<?xml version="1.0" encoding="UTF-8"?>
<svg id="Layer_1" xmlns="http://www.w3.org/2000/svg" version="1.1" viewBox="0 0 290 290">
  <!-- Generator: Adobe Illustrator 29.8.2, SVG Export Plug-In . SVG Version: 2.1.1 Build 3)  -->
  <defs>
    <style>
      .st0 {
        fill: #fff;
        fill-rule: evenodd;
      }

      .st1 {
        fill: #563491;
      }
    </style>
  </defs>
  <path class="st1" d="M145,73h0c39.8,0,72,32.2,72,72h0c0,39.8-32.2,72-72,72h0c-39.8,0-72-32.2-72-72h0c0-39.8,32.2-72,72-72Z"/>
  <g>
    <polygon class="st0" points="187.5 140.3 187.5 163.2 179.9 169.1 179.9 146.2 187.5 140.3"/>
    <polygon class="st0" points="102.5 120.9 102.5 140.3 102.5 163.2 110.1 169.1 110.1 146.2 110.1 136.5 139 158.6 139 158.6 145 163.2 151 158.6 151 158.6 179.9 136.5 179.9 136.5 187.5 130.6 187.5 120.9 178.2 128.1 145 153.6 123.2 136.9 110.1 126.8 102.5 120.9"/>
  </g>
</svg>