<?xml version="1.0" encoding="UTF-8"?>
<svg id="Calque_2" data-name="Calque 2" xmlns="http://www.w3.org/2000/svg" viewBox="0 0 397.54 66.86">
  <defs>
    <style>
      .cls-1 {
        fill: #fff;
      }
    </style>
  </defs>
  <g id="Calque_1-2" data-name="Calque 1">
    <g>
      <g>
        <polygon class="cls-1" points="10.28 64.98 0 56.92 0 0 57.37 44.21 114.81 0 114.81 12.86 57.37 56.63 10.28 20.7 10.28 64.98"/>
        <polygon class="cls-1" points="114.48 25.81 114.48 58.47 103.69 66.86 103.69 34.13 114.48 25.81"/>
      </g>
      <path class="cls-1" d="M136.32,1.99h9.76v62.87h-9.76V1.99Z"/>
      <path class="cls-1" d="M179.28,26.09l-.25,3.2,1.34-1.99L203.23,1.99h12.51l-25.12,27.46,26.03,35.41h-12.35l-20.77-29.02-4.26,4.32v24.7h-9.84V1.99h9.84v24.09Z"/>
      <path class="cls-1" d="M227.26,64.88L254.12,1.97h.58l26.86,62.91h-11.18l-18.86-47.8,6.93-4.65-21.69,52.45h-9.51ZM244.11,42.39h20.77l3.34,8.3h-27.03l2.92-8.3Z"/>
      <path class="cls-1" d="M289.42,1.97h40.63v9.68h-15.69v53.23h-9.68V11.65h-15.27V1.97Z"/>
      <path class="cls-1" d="M365.09,44.48L342.64,1.99h11.93l17.1,33.85-2.92.17L385.61,1.99h11.93l-22.78,42.49v20.38h-9.68v-20.38Z"/>
    </g>
  </g>
</svg>