<?xml version="1.0" encoding="UTF-8"?>
<svg id="Calque_2" data-name="Calque 2" xmlns="http://www.w3.org/2000/svg" viewBox="0 0 840.47 141.35">
  <defs>
    <style>
      .cls-1 {
        fill: #fff;
      }
    </style>
  </defs>
  <g id="Calque_1-2" data-name="Calque 1">
    <g>
      <g>
        <polygon class="cls-1" points="21.72 137.38 0 120.35 0 0 121.29 93.46 242.72 0 242.72 27.2 121.29 119.72 21.72 43.76 21.72 137.38"/>
        <polygon class="cls-1" points="242.02 54.56 242.02 123.62 219.21 141.35 219.21 72.16 242.02 54.56"/>
      </g>
      <path class="cls-1" d="M288.2,4.22h20.64v132.91h-20.64V4.22Z"/>
      <path class="cls-1" d="M379.04,55.15l-.53,6.76,2.83-4.2,48.33-53.49h26.46l-53.1,58.06,55.04,74.86h-26.11l-43.92-61.34-9,9.13v52.22h-20.81V4.22h20.81v50.94Z"/>
      <path class="cls-1" d="M480.46,137.17L537.26,4.18h1.23l56.8,133h-23.63l-39.87-101.06,14.64-9.83-45.86,110.89h-20.11ZM516.09,89.62h43.92l7.05,17.55h-57.15l6.17-17.55Z"/>
      <path class="cls-1" d="M611.87,4.18h85.9v20.46h-33.16v112.53h-20.46V24.64h-32.28V4.18Z"/>
      <path class="cls-1" d="M771.85,94.04l-47.45-89.83h25.22l36.16,71.57-6.17.36,35.63-71.93h25.22l-48.15,89.83v43.09h-20.46v-43.09Z"/>
    </g>
  </g>
</svg>