<?xml version="1.0" encoding="UTF-8"?>
<svg id="Calque_2" data-name="Calque 2" xmlns="http://www.w3.org/2000/svg" viewBox="0 0 14.5 17">
  <defs>
    <style>
      .cls-1 {
        fill: #563491;
        fill-rule: evenodd;
      }
    </style>
  </defs>
  <g id="Calque_1-2" data-name="Calque 1">
    <path class="cls-1" d="M11.35.11c.49-.25,1.09-.05,1.34.45,1.17,2.35,1.81,5.1,1.81,7.95s-.64,5.5-1.8,7.93c-.24.5-.84.71-1.33.47-.5-.24-.71-.84-.47-1.33,1.04-2.17,1.6-4.52,1.6-7.07s-.57-5-1.59-7.05c-.25-.49-.05-1.09.45-1.34ZM7.79,1.69c.5-.22,1.1,0,1.32.51.85,1.91,1.39,4.15,1.39,6.31s-.54,4.3-1.39,6.21c-.22.5-.82.73-1.32.51s-.73-.82-.51-1.32c.75-1.7,1.21-3.56,1.21-5.39s-.46-3.81-1.21-5.49c-.22-.5,0-1.1.51-1.32ZM4.15,3.51c.49-.25,1.09-.05,1.34.45.68,1.36,1.01,3.02,1.01,4.55s-.33,3.09-.99,4.52c-.23.5-.83.72-1.33.49-.5-.23-.72-.83-.49-1.33.54-1.17.81-2.42.81-3.68s-.28-2.62-.79-3.65c-.25-.49-.05-1.09.45-1.34ZM.61,5.18c.51-.22,1.1.02,1.31.53.35.82.58,1.85.58,2.79s-.24,1.9-.58,2.69c-.22.51-.81.74-1.31.53-.51-.22-.74-.81-.53-1.31.26-.6.42-1.27.42-1.91s-.17-1.42-.42-2.01c-.22-.51.02-1.1.53-1.31Z"/>
  </g>
</svg>