<?xml version="1.0" encoding="UTF-8"?>
<svg id="Calque_2" data-name="Calque 2" xmlns="http://www.w3.org/2000/svg" xmlns:xlink="http://www.w3.org/1999/xlink" viewBox="0 0 5243.84 3454.36">
  <defs>
    <style>
      .cls-1 {
        fill: none;
      }

      .cls-2 {
        fill: #fff;
      }

      .cls-3 {
        clip-path: url(#clippath);
      }
    </style>
    <clipPath id="clippath">
      <rect class="cls-1" width="5243.84" height="3454.36"/>
    </clipPath>
  </defs>
  <g id="Layer_1" data-name="Layer 1">
    <g class="cls-3">
      <path class="cls-2" d="M4375.92,3875.5v-295.91c0-2.66-1.06-5.22-2.94-7.1l-69.33-69.33v-153.73c16.43-4.8,28.44-19.95,28.44-37.93,0-21.83-17.7-39.53-39.53-39.53-3.41,0-6.69.47-9.85,1.29l-30.27-30.27v-88.34c15.6-5.29,26.85-20.02,26.85-37.41,0-7.37-2.05-14.25-5.57-20.15l344.32-344.32c6.15,3.95,13.45,6.26,21.3,6.26,21.83,0,39.53-17.7,39.53-39.53,0-7.85-2.32-15.15-6.26-21.3l281.23-281.23c6.15,3.95,13.45,6.26,21.3,6.26,21.83,0,39.53-17.7,39.53-39.53,0-18.96-13.35-34.78-31.15-38.62v-63.75l84.7-84.7c1.89-1.88,2.94-4.44,2.94-7.1v-72.26l60.97-60.97c1.89-1.88,2.94-4.44,2.94-7.1v-94.79c15.42-5.39,26.5-20.03,26.5-37.29,0-21.83-17.7-39.53-39.53-39.53-20.16,0-36.78,15.11-39.19,34.63h-47.92c-2.66,0-5.22,1.06-7.1,2.94l-74.07,74.06h-320.2c-4.04-17.54-19.72-30.64-38.49-30.64-7.24,0-14.01,1.98-19.84,5.38l-360.59-360.59v-14.7c17.11-4.35,29.77-19.81,29.77-38.27,0-21.83-17.7-39.53-39.53-39.53-7.4,0-14.3,2.07-20.22,5.61l-110.65-110.65v-133.46c17.99-3.71,31.51-19.63,31.51-38.71,0-21.83-17.7-39.53-39.53-39.53-6.63,0-12.86,1.65-18.35,4.53l-248.18-248.18v-129.76c0-2.66-1.06-5.22-2.94-7.1l-129.31-129.31v-30.99h93.74v70.31c0,2.66,1.06,5.22,2.94,7.1l61.94,61.94c3.92,3.92,10.28,3.92,14.2,0l43.52-43.53c1.89-1.88,2.94-4.44,2.94-7.1v-145.64c0-2.66-1.06-5.22-2.94-7.1l-25.04-25.04c4.76-6.53,7.61-14.55,7.61-23.25,0-21.83-17.7-39.53-39.53-39.53-18.1,0-33.33,12.18-38.01,28.79h-248.15c-4.68-16.61-19.91-28.79-38.01-28.79-21.83,0-39.53,17.7-39.53,39.53,0,8.58,2.76,16.49,7.4,22.97l-34.51,34.51h-238.19l-63.39-63.39c-1.88-1.88-4.44-2.94-7.1-2.94h-86.86l-40.04-40.04c4.42-6.38,7.02-14.11,7.02-22.46,0-21.83-17.7-39.53-39.53-39.53-19.27,0-35.29,13.79-38.8,32.04h-127.18c-5.55,0-10.04,4.5-10.04,10.04v150.98h-106.33l-7.84-7.84c2.77-5.4,4.36-11.5,4.36-17.98,0-21.83-17.7-39.53-39.53-39.53-16.12,0-29.95,9.66-36.11,23.49h-98.33l-84.95-84.94c-1.88-1.88-4.44-2.94-7.1-2.94h-129.18c-3.71-17.98-19.63-31.49-38.71-31.49-9.18,0-17.6,3.15-24.31,8.4l-89.49-89.49,56.93-56.93c1.88-1.88,2.94-4.44,2.94-7.1v-124.34c16.66-4.65,28.9-19.9,28.9-38.04,0-21.83-17.7-39.53-39.53-39.53-18.35,0-33.74,12.53-38.19,29.48h-629.83c-4.45-16.96-19.84-29.48-38.19-29.48-21.83,0-39.53,17.7-39.53,39.53,0,6.03,1.39,11.73,3.81,16.84l-125.45,125.45h-214.33l-42.83-42.83c3.61-5.96,5.72-12.93,5.72-20.4,0-21.83-17.7-39.53-39.53-39.53s-39.53,17.7-39.53,39.53c0,9.03,3.06,17.33,8.16,23.99l-62.28,62.28c-1.88,1.88-2.94,4.44-2.94,7.1v51.9h-132.25c-2.66,0-5.22,1.06-7.1,2.94l-43.73,43.72c-5.94-3.57-12.87-5.66-20.31-5.66-21.83,0-39.53,17.7-39.53,39.53,0,18.05,12.11,33.24,28.64,37.98v149.34h-55.24c-5.55,0-10.04,4.5-10.04,10.04v72.95l-84.62,87.76h-87.69c-7.02-10.99-19.3-18.3-33.31-18.3-21.83,0-39.53,17.7-39.53,39.53,0,6.45,1.58,12.52,4.32,17.9l-255.25,255.25c-6.34-4.33-14.01-6.87-22.27-6.87-21.83,0-39.53,17.7-39.53,39.53,0,18.14,12.23,33.38,28.87,38.03v339.43c-16.65,4.66-28.87,19.9-28.87,38.03s12.23,33.38,28.87,38.03v55.65l-62.35,62.34c-1.88,1.88-2.94,4.44-2.94,7.1v98.15c-15.99,5.07-27.58,20.02-27.58,37.68,0,21.83,17.7,39.53,39.53,39.53,7.7,0,14.87-2.24,20.95-6.05l322.89,322.89c-5.35,6.74-8.57,15.26-8.57,24.53,0,21.83,17.7,39.53,39.53,39.53,9.28,0,17.79-3.22,24.54-8.57l278.86,278.86c3.92,3.92,10.28,3.92,14.21,0l87.21-87.21c5.79,3.33,12.5,5.27,19.66,5.27,18.46,0,33.93-12.68,38.27-29.79h339.97c4.34,17.11,19.81,29.79,38.27,29.79,21.83,0,39.53-17.7,39.53-39.53,0-6.64-1.66-12.89-4.55-18.38l55.58-55.58h299.29c2.5,19.42,19.06,34.43,39.16,34.43,7.4,0,14.3-2.07,20.22-5.6l60.71,60.71v51.08c0,5.55,4.5,10.04,10.04,10.04h268.71l46.01,46.01v130.63l-29.66,29.66c-5.43-2.81-11.58-4.42-18.11-4.42-21.83,0-39.53,17.7-39.53,39.53,0,17.77,11.73,32.81,27.87,37.78v210.57c0,2.66,1.06,5.22,2.94,7.1l212.96,212.96v83.67c0,2.66,1.06,5.22,2.94,7.1l74.17,74.17c-6.03,6.94-9.71,15.98-9.71,25.89,0,20.06,14.96,36.59,34.32,39.15v224.22c-16.46,4.78-28.5,19.94-28.5,37.94,0,8.75,2.88,16.8,7.68,23.35l-104.5,104.5c-1.88,1.88-2.94,4.44-2.94,7.1v325.46c-17.07,4.37-29.71,19.81-29.71,38.25,0,21.83,17.7,39.54,39.53,39.54,7.27,0,14.07-2,19.92-5.43l96.97,96.97v220.68c0,2.66,1.06,5.22,2.94,7.1l24.63,24.63c-3.42,5.85-5.42,12.63-5.42,19.9,0,18.35,12.53,33.74,29.49,38.19v188.07c0,2.66,1.06,5.22,2.94,7.1l127.71,127.71c-3.42,5.85-5.42,12.64-5.42,19.9,0,18.36,12.53,33.74,29.49,38.2v78.28c0,2.66,1.06,5.22,2.94,7.1l101.2,101.2v152.85c0,2.66,1.06,5.22,2.94,7.1l80.53,80.53c1.88,1.88,4.44,2.94,7.1,2.94h97.27c2.66,0,5.22-1.06,7.1-2.94l43.59-43.58c5.68,3.15,12.2,4.96,19.15,4.96,16.88,0,31.24-10.6,36.91-25.49h294.15c5.67,14.89,20.04,25.49,36.91,25.49,21.83,0,39.53-17.7,39.53-39.53,0-5.1-1-9.96-2.76-14.43l381.3-381.3c1.89-1.88,2.94-4.44,2.94-7.1v-165.19c17.97-3.72,31.47-19.64,31.47-38.71,0-15.2-8.59-28.37-21.17-34.99l28.15-28.15h63.62c2.66,0,5.22-1.06,7.1-2.94l151.93-151.93c1.89-1.88,2.94-4.44,2.94-7.1v-93.76c15.34-5.43,26.35-20.03,26.35-37.24,0-21.83-17.7-39.53-39.53-39.53-6.22,0-12.08,1.47-17.31,4.03l-48.83-48.83v-16.24c15.85-5.15,27.32-20.02,27.32-37.59,0-7.57-2.16-14.61-5.85-20.62l145.6-145.6h95.13c2.66,0,5.22-1.06,7.1-2.94l159.44-159.44c5.87,3.44,12.67,5.45,19.97,5.45,21.83,0,39.53-17.7,39.53-39.53,0-17.79-11.76-32.83-27.92-37.79ZM4957.91,2009.32c2.66,0,5.22-1.06,7.1-2.94l74.07-74.06h46.46c5.08,12.19,16.1,21.27,29.44,23.68v89.05l-60.97,60.97c-1.89,1.88-2.94,4.44-2.94,7.1v72.25l-84.7,84.7c-1.89,1.88-2.94,4.44-2.94,7.1v68.76c-4.81,1.49-9.22,3.89-13.05,6.97l-130.52-130.53c5.46-6.78,8.74-15.38,8.74-24.76,0-21.83-17.7-39.53-39.53-39.53s-39.53,17.7-39.53,39.53,17.7,39.53,39.53,39.53c5.09,0,9.94-1,14.4-2.75l134.89,134.89c-1.75,4.47-2.75,9.31-2.75,14.4,0,6.68,1.67,12.97,4.6,18.49l-282.38,282.38c-5.52-2.93-11.81-4.6-18.49-4.6-7.27,0-14.06,2-19.91,5.42l-163.93-163.93c6.2-8.97,9.85-19.84,9.85-31.55,0-27.23-19.68-49.93-45.56-54.67v-213.62c16.96-4.45,29.48-19.84,29.48-38.19,0-7.27-1.99-14.06-5.42-19.91l131.28-131.28c5.85,3.42,12.64,5.42,19.91,5.42,17.94,0,33.06-11.96,37.9-28.33h324.96ZM4409.76,2454.39c19.58,0,35.51,15.93,35.51,35.51s-15.93,35.51-35.51,35.51-35.51-15.93-35.51-35.51,15.93-35.51,35.51-35.51ZM650.7,1078.1c-19.58,0-35.51-15.93-35.51-35.51s15.93-35.51,35.51-35.51,35.51,15.93,35.51,35.51-15.93,35.51-35.51,35.51ZM605.36,1074.71l-452.57,452.57c-3.85-2.63-8.19-4.56-12.85-5.7v-338.8c17.27-4.24,30.1-19.77,30.1-38.35,0-6.26-1.5-12.16-4.09-17.42l255.45-255.45c6.26,4.16,13.77,6.59,21.84,6.59s15.87-2.52,22.2-6.82c.3.41.6.82.97,1.18l138.17,138.16c.13.13.27.21.4.33-6.22,8.98-9.88,19.86-9.88,31.59s3.81,23.04,10.26,32.12ZM441.32,1801.88c19.58,0,35.51,15.93,35.51,35.51s-15.93,35.51-35.51,35.51-35.51-15.93-35.51-35.51,15.93-35.51,35.51-35.51ZM1368.71,2334.09c-2.66,0-5.22,1.06-7.1,2.94l-57.9,57.91c-6.17-3.99-13.51-6.32-21.4-6.32-18.24,0-33.56,12.38-38.11,29.18h-340.29c-3.69-13.6-14.42-24.26-28.07-27.84v-191.03c15.47-4.06,27.23-17.23,29.17-33.46h202.2c2.35,19.59,19,34.79,39.22,34.79,21.83,0,39.53-17.7,39.53-39.53s-17.7-39.53-39.53-39.53c-16.39,0-30.44,9.97-36.44,24.18h-207.77c-5.99-14.21-20.05-24.18-36.44-24.18-21.83,0-39.53,17.7-39.53,39.53,0,18.36,12.53,33.75,29.48,38.2v191.03c-16.96,4.45-29.48,19.84-29.48,38.19,0,7.37,2.05,14.25,5.57,20.16l-80.01,80.01-273.82-273.82c1.82-4.55,2.85-9.5,2.85-14.69,0-7.27-1.99-14.06-5.42-19.91l485.86-485.85c8.97,6.2,19.84,9.85,31.54,9.85s22.57-3.65,31.54-9.85l322.43,322.43c-3.42,5.85-5.42,12.64-5.42,19.91,0,21.83,17.7,39.53,39.53,39.53s39.53-17.7,39.53-39.53c0-7.27-1.99-14.06-5.42-19.91l276.39-276.39c3.12,1.82,6.5,3.22,10.09,4.14v526.63c-12.16,3.11-22.06,11.82-26.75,23.26h-306.05ZM1017.96,1713.35s-.02.01-.03.02c0,0-.02.02-.02.03-6.43,6.41-15.29,10.38-25.07,10.38-19.58,0-35.51-15.93-35.51-35.51s15.93-35.51,35.51-35.51,35.51,15.93,35.51,35.51c0,9.78-3.97,18.64-10.38,25.07ZM4173.64,4089.66h-95.13c-2.66,0-5.22,1.06-7.1,2.94l-148.82,148.82c-5.69-3.17-12.23-4.98-19.19-4.98s-13.01,1.68-18.54,4.62l-134.94-134.94c5.09-8.39,8.02-18.23,8.02-28.74,0-30.66-24.94-55.6-55.6-55.6-27.48,0-50.36,20.05-54.8,46.28h-265.4c-3.61-13.75-14.4-24.54-28.15-28.15v-197.26c25.88-4.74,45.56-27.45,45.56-54.67,0-11.75-3.68-22.66-9.92-31.65.32-.25.66-.48.95-.78l135.23-135.23c8.97,6.2,19.84,9.85,31.55,9.85s22.57-3.65,31.55-9.85l268.74,268.74c-6.2,8.97-9.85,19.84-9.85,31.55,0,30.66,24.94,55.6,55.6,55.6s55.6-24.94,55.6-55.6-24.94-55.6-55.6-55.6c-11.71,0-22.57,3.65-31.55,9.85l-268.74-268.74c6.2-8.97,9.85-19.84,9.85-31.55,0-30.66-24.94-55.6-55.6-55.6-11.71,0-22.57,3.65-31.55,9.85l-333.39-333.39c3.32-5.78,5.24-12.47,5.24-19.62,0-18.35-12.53-33.74-29.48-38.19v-164.42c16.96-4.45,29.49-19.83,29.49-38.19,0-21.83-17.7-39.53-39.53-39.53-7.27,0-14.06,2-19.91,5.42l-116.53-116.53c6.72-9.19,10.71-20.51,10.71-32.75,0-30.66-24.94-55.6-55.6-55.6s-55.6,24.94-55.6,55.6,24.94,55.6,55.6,55.6c11.18,0,21.58-3.33,30.31-9.02l116.91,116.91c-3.42,5.85-5.42,12.64-5.42,19.91,0,18.36,12.53,33.74,29.48,38.19v164.42c-16.96,4.45-29.49,19.84-29.49,38.19,0,21.83,17.7,39.53,39.53,39.53,7.39,0,14.28-2.06,20.2-5.59l333.28,333.28c-6.2,8.97-9.85,19.84-9.85,31.55s3.65,22.57,9.85,31.55l-135.23,135.23c-.3.3-.53.63-.78.95-8.99-6.25-19.9-9.92-31.65-9.92-30.66,0-55.6,24.94-55.6,55.6,0,27.23,19.68,49.93,45.56,54.67v197.26c-16.96,4.45-29.49,19.84-29.49,38.19,0,21.83,17.7,39.53,39.53,39.53,18.36,0,33.74-12.53,38.19-29.49h265.66c4.39,22.27,22.12,39.8,44.5,43.9v222.79c-25.88,4.74-45.56,27.45-45.56,54.67,0,30.66,24.94,55.6,55.6,55.6s55.6-24.94,55.6-55.6c0-27.23-19.68-49.93-45.56-54.67v-222.79c9-1.65,17.24-5.47,24.16-10.89l133.55,133.55c-3.93,6.14-6.24,13.42-6.24,21.25,0,19.14,13.6,35.09,31.65,38.75v19.25c0,2.66,1.06,5.22,2.94,7.1l50.7,50.7c-4.37,6.36-6.95,14.06-6.95,22.36,0,19.47,14.09,35.62,32.62,38.89v87.94l-146.05,146.05h-63.62c-2.66,0-5.22,1.06-7.1,2.94l-41.27,41.27c-5.01.77-9.7,2.46-13.9,4.91l-306.7-306.7c3.42-5.85,5.42-12.64,5.42-19.91,0-21.83-17.7-39.53-39.53-39.53-7.27,0-14.06,2-19.91,5.42l-366.2-366.2c3.42-5.85,5.42-12.64,5.42-19.91,0-18.36-12.53-33.74-29.49-38.19v-141.34c16.96-4.45,29.49-19.84,29.49-38.19,0-7.27-1.99-14.05-5.42-19.91l179.17-179.17c5.85,3.42,12.64,5.42,19.91,5.42,21.83,0,39.53-17.7,39.53-39.53s-17.7-39.53-39.53-39.53-39.53,17.7-39.53,39.53c0,7.27,1.99,14.06,5.42,19.91l-179.17,179.18c-5.85-3.42-12.64-5.42-19.91-5.42s-14.06,1.99-19.91,5.42l-177.09-177.09c6.12-8.93,9.71-19.73,9.71-31.35,0-30.66-24.94-55.6-55.6-55.6s-55.6,24.94-55.6,55.6,24.94,55.6,55.6,55.6c11.8,0,22.74-3.7,31.74-9.99l177.03,177.03c-3.42,5.85-5.42,12.64-5.42,19.91,0,18.35,12.53,33.74,29.48,38.19v141.34c-16.96,4.45-29.48,19.84-29.48,38.19,0,21.83,17.7,39.53,39.53,39.53,7.27,0,14.06-1.99,19.91-5.42l366.2,366.2c-3.42,5.85-5.41,12.64-5.41,19.9,0,21.83,17.7,39.54,39.53,39.54,7.27,0,14.06-2,19.91-5.42l306.7,306.7c-3.42,5.85-5.42,12.64-5.42,19.91,0,17.64,11.55,32.56,27.5,37.66v162.08l-376.19,376.19c-4.26-3.42-9.25-5.95-14.69-7.38v-305.14c16.96-4.45,29.49-19.84,29.49-38.19s-12.53-33.74-29.49-38.19v-239.57c16.96-4.45,29.49-19.84,29.49-38.19,0-21.83-17.7-39.53-39.53-39.53-7.27,0-14.06,1.99-19.91,5.42l-303.96-303.96c3.42-5.85,5.42-12.64,5.42-19.91,0-21.83-17.7-39.53-39.53-39.53-18.36,0-33.74,12.52-38.19,29.49h-184.12c-4.74-25.88-27.45-45.56-54.67-45.56-30.66,0-55.6,24.94-55.6,55.6s24.94,55.6,55.6,55.6c27.23,0,49.93-19.68,54.67-45.56h184.12c3.6,13.75,14.4,24.54,28.15,28.15v210.97c-16.96,4.45-29.49,19.84-29.49,38.19,0,21.83,17.7,39.53,39.53,39.53s39.53-17.7,39.53-39.53c0-18.36-12.53-33.74-29.49-38.19v-210.97c3.5-.92,6.81-2.29,9.86-4.08l303.96,303.96c-3.42,5.85-5.42,12.64-5.42,19.91,0,18.36,12.53,33.74,29.48,38.19v239.57c-16.96,4.45-29.48,19.83-29.48,38.19s12.53,33.74,29.48,38.19v305.14c-15.05,3.95-26.57,16.52-28.97,32.14h-289.94c-2.92-18.95-19.25-33.48-39.02-33.48-21.83,0-39.53,17.7-39.53,39.53,0,7.58,2.17,14.64,5.87,20.66l-40.35,40.35h-88.95l-74.65-74.65v-152.85c0-2.66-1.06-5.22-2.94-7.1l-101.2-101.2v-74.13c16.96-4.45,29.48-19.84,29.48-38.2,0-21.83-17.7-39.53-39.53-39.53-7.27,0-14.06,2-19.91,5.42l-124.77-124.77v-183.91c16.96-4.45,29.48-19.84,29.48-38.19,0-21.83-17.7-39.53-39.53-39.53-7.27,0-14.06,2-19.91,5.42l-21.68-21.69v-220.68c0-2.66-1.06-5.22-2.94-7.1l-99.92-99.92c3.42-5.85,5.41-12.63,5.41-19.9s-1.93-13.85-5.25-19.63l126.24-126.24c5.79,3.33,12.48,5.25,19.64,5.25,21.83,0,39.53-17.7,39.53-39.53s-17.7-39.53-39.53-39.53-39.53,17.7-39.53,39.53c0,7.38,2.06,14.26,5.58,20.18l-126.03,126.03c-3.06-1.82-6.38-3.24-9.9-4.18v-321.42l103.05-103.05c4.93,2.21,10.39,3.47,16.14,3.47,6.32,0,12.27-1.52,17.57-4.16l221.67,221.67c.75.75,1.61,1.31,2.51,1.78-5.5,8.63-8.71,18.85-8.71,29.82,0,30.66,24.94,55.6,55.6,55.6s55.6-24.94,55.6-55.6-24.94-55.6-55.6-55.6c-12.72,0-24.45,4.3-33.83,11.52-.39-.61-.83-1.19-1.37-1.72l-220.7-220.7c4.28-6.32,6.78-13.94,6.78-22.14,0-18.71-13.01-34.34-30.47-38.45v-226.25c14.45-5.88,24.65-20.04,24.65-36.61,0-21.83-17.7-39.53-39.53-39.53-4.51,0-8.83.79-12.87,2.18l-73.98-73.98v-83.68c0-2.66-1.06-5.22-2.94-7.1l-212.96-212.96v-205.58c4.23-.92,8.2-2.54,11.8-4.7l160.88,160.88c-3.54,5.92-5.62,12.83-5.62,20.24,0,21.83,17.7,39.53,39.53,39.53s39.53-17.7,39.53-39.53-17.7-39.53-39.53-39.53c-7.13,0-13.8,1.91-19.58,5.22l-161.14-161.14c3.3-5.78,5.22-12.45,5.22-19.58,0-8-2.39-15.42-6.48-21.65l31.86-31.86c1.88-1.88,2.94-4.44,2.94-7.1v-138.95c0-2.66-1.06-5.22-2.94-7.1l-51.9-51.89c-1.88-1.88-4.44-2.94-7.1-2.94h-262.83v-45.2c0-2.66-1.06-5.22-2.94-7.1l-63.77-63.77c1.7-2.97,3-6.17,3.89-9.56h268.41c5.23,15.7,20.02,27.04,37.48,27.04,21.83,0,39.53-17.7,39.53-39.53s-17.7-39.53-39.53-39.53c-19.23,0-35.24,13.74-38.78,31.93h-267.11c-3.59-13.67-14.28-24.42-27.92-28.09v-526.86c13.71-3.69,24.45-14.54,27.98-28.32h267.59c3.55,13.85,14.38,24.75,28.21,28.38v225.06c-16.96,4.45-29.49,19.84-29.49,38.19,0,21.83,17.7,39.53,39.53,39.53s39.53-17.7,39.53-39.53c0-18.36-12.53-33.74-29.48-38.19v-225.06c16.96-4.45,29.48-19.84,29.48-38.2s-12.53-33.74-29.48-38.19v-242.92c7.86-1.44,15.16-4.54,21.5-8.92l202.74,202.73c-3.42,5.85-5.42,12.64-5.42,19.91,0,18.36,12.53,33.74,29.48,38.19v709.8c-25.88,4.74-45.56,27.45-45.56,54.67,0,30.66,24.94,55.6,55.6,55.6,11.71,0,22.58-3.65,31.55-9.85l213.33,213.33c-3.42,5.85-5.42,12.64-5.42,19.91,0,18.36,12.53,33.74,29.48,38.19v153.77c-25.88,4.75-45.55,27.45-45.55,54.67,0,30.66,24.94,55.6,55.6,55.6,12.26,0,23.6-4,32.8-10.74.41,1.75,1.28,3.42,2.64,4.79l195.56,195.56c-3.42,5.85-5.42,12.64-5.42,19.91,0,21.83,17.7,39.53,39.53,39.53s39.53-17.7,39.53-39.53-17.7-39.53-39.53-39.53c-7.27,0-14.06,1.99-19.91,5.42l-195.57-195.57c-1.37-1.37-3.03-2.23-4.79-2.64,6.75-9.2,10.74-20.54,10.74-32.8,0-27.23-19.68-49.93-45.56-54.67v-153.77c16.96-4.45,29.49-19.84,29.49-38.19,0-21.83-17.7-39.53-39.53-39.53-7.27,0-14.05,1.99-19.91,5.42l-213.33-213.33c6.2-8.97,9.85-19.84,9.85-31.54s-3.65-22.57-9.85-31.54l218.78-218.78c4.48,1.76,9.35,2.77,14.46,2.77,7.27,0,14.06-1.99,19.91-5.42l281.28,281.28c-3.42,5.85-5.42,12.64-5.42,19.9,0,21.83,17.7,39.53,39.53,39.53s39.53-17.7,39.53-39.53-17.7-39.53-39.53-39.53c-7.27,0-14.06,1.99-19.91,5.42l-281.28-281.29c3.42-5.85,5.42-12.64,5.42-19.91,0-18.35-12.53-33.74-29.48-38.19v-188.81c25.88-4.74,45.56-27.45,45.56-54.67,0-30.66-24.94-55.6-55.6-55.6s-55.6,24.94-55.6,55.6c0,27.23,19.68,49.93,45.56,54.67v188.8c-16.96,4.45-29.49,19.84-29.49,38.19,0,9.36,3.27,17.95,8.71,24.72l-216.62,216.62c-6.34-4.39-13.63-7.48-21.5-8.92v-709.8c16.96-4.45,29.48-19.84,29.48-38.19,0-21.83-17.7-39.53-39.53-39.53-7.27,0-14.06,1.99-19.91,5.42l-202.74-202.73c6.2-8.97,9.85-19.84,9.85-31.54,0-30.66-24.94-55.6-55.6-55.6s-55.6,24.94-55.6,55.6c0,27.23,19.68,49.93,45.56,54.67v242.92c-13.67,3.59-24.42,14.28-28.09,27.92h-267.82c-4.53-16.84-19.86-29.25-38.13-29.25-21.83,0-39.53,17.7-39.53,39.53,0,7.27,1.99,14.06,5.42,19.91l-276.39,276.39c-5.85-3.42-12.64-5.42-19.91-5.42s-14.06,1.99-19.91,5.42l-322.43-322.43c4.39-6.34,7.48-13.63,8.92-21.5h278.74c4.74,25.88,27.45,45.56,54.67,45.56,30.66,0,55.6-24.94,55.6-55.6,0-27.23-19.68-49.93-45.56-54.67v-216.86c16.96-4.45,29.48-19.84,29.48-38.19,0-7.27-1.99-14.06-5.42-19.91l143.38-143.38c5.85,3.42,12.64,5.42,19.9,5.42s14.05-1.99,19.9-5.41l117.03,117.03c-2.48,5.17-3.92,10.95-3.92,17.07,0,21.83,17.7,39.53,39.53,39.53s39.53-17.7,39.53-39.53-17.7-39.53-39.53-39.53c-8.4,0-16.16,2.63-22.56,7.1l-115.87-115.87c3.42-5.85,5.42-12.64,5.42-19.91,0-21.83-17.7-39.53-39.53-39.53-7.13,0-13.8,1.91-19.58,5.22l-163.88-163.88c3.3-5.78,5.22-12.45,5.22-19.58,0-21.83-17.7-39.53-39.53-39.53s-39.53,17.7-39.53,39.53,17.7,39.53,39.53,39.53c7.41,0,14.31-2.07,20.23-5.62l163.62,163.62c-3.54,5.92-5.62,12.83-5.62,20.23s1.99,14.06,5.42,19.91l-143.38,143.38c-5.85-3.42-12.64-5.42-19.91-5.42-21.83,0-39.53,17.7-39.53,39.53,0,18.36,12.53,33.74,29.49,38.19v216.86c-22.62,4.15-40.48,22.01-44.63,44.63h-278.74c-4.74-25.88-27.45-45.56-54.67-45.56s-49.93,19.68-54.67,45.56h-203.61c-4.32-17.16-19.8-29.87-38.29-29.87-21.83,0-39.53,17.7-39.53,39.53s17.7,39.53,39.53,39.53c18.22,0,33.51-12.33,38.09-29.1h203.81c1.44,7.87,4.54,15.16,8.92,21.5l-485.86,485.85c-3.05-1.79-6.36-3.16-9.86-4.08v-309.53c25.88-4.74,45.56-27.45,45.56-54.67s-19.68-49.93-45.56-54.67v-168.89c16.96-4.45,29.49-19.84,29.49-38.19,0-7.27-1.99-14.06-5.42-19.91l132.4-132.4c5.85,3.42,12.64,5.42,19.91,5.42,21.83,0,39.53-17.7,39.53-39.53s-17.7-39.53-39.53-39.53-39.53,17.7-39.53,39.53c0,7.27,1.99,14.06,5.42,19.91l-132.4,132.4c-5.85-3.42-12.64-5.42-19.91-5.42-21.83,0-39.53,17.7-39.53,39.53,0,18.36,12.53,33.74,29.48,38.19v168.89c-25.88,4.74-45.56,27.45-45.56,54.67s19.68,49.93,45.56,54.67v309.53c-1.59.42-3.14.91-4.65,1.51l-325.36-325.36c3.05-5.61,4.78-12.03,4.78-18.87,0-19.04-13.47-34.93-31.39-38.68v-92.99l62.35-62.34c1.88-1.88,2.94-4.44,2.94-7.1v-59.49c17.27-4.24,30.1-19.77,30.1-38.35,0-6.26-1.49-12.15-4.08-17.41l453.77-453.77c8.86,5.96,19.51,9.44,30.96,9.44s22.57-3.65,31.54-9.85l210.56,210.56c-6.2,8.97-9.85,19.84-9.85,31.55,0,30.66,24.94,55.6,55.6,55.6s55.6-24.94,55.6-55.6c0-11.71-3.65-22.58-9.85-31.55l171.21-171.2c5.44,2.83,11.61,4.45,18.17,4.45,21.83,0,39.53-17.7,39.53-39.53s-17.7-39.53-39.53-39.53-39.53,17.7-39.53,39.53c0,7.97,2.38,15.38,6.44,21.59l-170.49,170.49c-8.97-6.2-19.84-9.85-31.54-9.85s-22.57,3.64-31.54,9.85l-210.57-210.56c6.2-8.97,9.85-19.84,9.85-31.54,0-30.66-24.94-55.6-55.6-55.6-11.73,0-22.61,3.66-31.59,9.88-.12-.13-.2-.28-.33-.4l-138.17-138.17c-.67-.67-1.44-1.19-2.23-1.63,2.79-5.42,4.39-11.54,4.39-18.05,0-.39-.05-.76-.06-1.14h85.79c2.73,0,5.34-1.11,7.23-3.07l90.4-93.75c1.8-1.87,2.81-4.37,2.81-6.97v-66.96h55.24c5.55,0,10.04-4.5,10.04-10.04v-158.95c3.82-.91,7.41-2.37,10.71-4.3l178.36,178.36c-6.2,8.97-9.85,19.84-9.85,31.54,0,27.23,19.68,49.93,45.56,54.67v108.74c-16.96,4.45-29.49,19.84-29.49,38.19,0,21.83,17.7,39.53,39.53,39.53s39.53-17.7,39.53-39.53c0-18.35-12.53-33.74-29.48-38.19v-108.74c25.88-4.74,45.56-27.45,45.56-54.67,0-11.71-3.65-22.57-9.85-31.54l151.24-151.24c5.85,3.42,12.64,5.42,19.91,5.42,21.83,0,39.53-17.7,39.53-39.53s-17.7-39.53-39.53-39.53-39.53,17.7-39.53,39.53c0,7.27,2,14.06,5.42,19.91l-151.24,151.24c-8.97-6.2-19.84-9.85-31.54-9.85s-22.58,3.65-31.55,9.85l-178.36-178.36c3.42-5.85,5.42-12.64,5.42-19.91s-1.9-13.74-5.17-19.5l40.94-40.94h138.13c5.55,0,10.04-4.5,10.04-10.04v-57.78l61.11-61.11c4.73,2,9.93,3.11,15.4,3.11,7.06,0,13.68-1.87,19.41-5.12l45.97,45.97c1.88,1.88,4.44,2.94,7.1,2.94h222.65c2.66,0,5.22-1.06,7.1-2.94l127.15-127.15c3.8,2.68,8.09,4.69,12.71,5.9v149.41c-16.96,4.45-29.48,19.84-29.48,38.19,0,21.83,17.7,39.53,39.53,39.53,18.36,0,33.74-12.53,38.19-29.48h171.48c.92,3.5,2.3,6.81,4.08,9.86l-197.43,197.43c-8.97-6.21-19.84-9.85-31.55-9.85-30.66,0-55.6,24.94-55.6,55.6s24.94,55.6,55.6,55.6c11.71,0,22.57-3.65,31.54-9.85l146.04,146.05c-6.2,8.97-9.85,19.84-9.85,31.54,0,30.66,24.94,55.6,55.6,55.6s55.6-24.94,55.6-55.6-24.94-55.6-55.6-55.6c-11.71,0-22.58,3.65-31.55,9.85l-146.04-146.04c6.2-8.97,9.85-19.84,9.85-31.54s-3.65-22.57-9.85-31.54l197.43-197.43c5.85,3.42,12.64,5.42,19.91,5.42s14.06-1.99,19.91-5.42l123.57,123.58c-3.42,5.85-5.42,12.64-5.42,19.9,0,17.92,11.93,33.03,28.26,37.88v439.04c-25.88,4.74-45.56,27.45-45.56,54.67,0,30.66,24.94,55.6,55.6,55.6s55.6-24.94,55.6-55.6c0-27.23-19.68-49.93-45.56-54.67v-438.41c3.96-.9,7.68-2.4,11.08-4.39l350.68,350.68c-3.42,5.85-5.42,12.64-5.42,19.9,0,18.42,12.62,33.86,29.67,38.24v288.68c-17.05,4.38-29.67,19.82-29.67,38.24,0,21.83,17.7,39.53,39.53,39.53,7.32,0,14.15-2.02,20.03-5.49l424.3,424.3c-3.47,5.88-5.49,12.71-5.49,20.03,0,21.83,17.7,39.53,39.53,39.53s39.53-17.7,39.53-39.53-17.7-39.53-39.53-39.53c-7.22,0-13.96,1.97-19.79,5.34l-424.39-424.39c3.38-5.83,5.34-12.57,5.34-19.79s-1.97-13.96-5.35-19.79l218.95-218.95c8.66,5.57,18.94,8.81,29.98,8.81,11.75,0,22.66-3.67,31.64-9.92.25.32.47.64.77.94l187.08,187.08c-3.42,5.85-5.42,12.64-5.42,19.9,0,18.36,12.53,33.74,29.48,38.2v141.31c-25.88,4.74-45.56,27.45-45.56,54.67,0,30.66,24.94,55.6,55.6,55.6s55.6-24.94,55.6-55.6c0-27.23-19.68-49.93-45.56-54.67v-141.31c13.74-3.61,24.54-14.4,28.15-28.15h237.68c3.61,13.75,14.41,24.54,28.15,28.15v361.65c-16.96,4.45-29.49,19.84-29.49,38.19,0,21.83,17.7,39.53,39.53,39.53,7.27,0,14.06-2,19.91-5.42l129.27,129.27c-3.42,5.85-5.42,12.64-5.42,19.91,0,21.83,17.7,39.53,39.53,39.53s39.53-17.7,39.53-39.53c0-8.08-2.43-15.58-6.59-21.84l161.64-161.64c8.97,6.2,19.84,9.85,31.54,9.85s22.57-3.65,31.54-9.85l166.02,166.02c-3.09,5.63-4.85,12.09-4.85,18.97,0,21.83,17.7,39.53,39.53,39.53s39.53-17.7,39.53-39.53-17.7-39.53-39.53-39.53c-7.66,0-14.79,2.21-20.84,5.99l-165.66-165.66c6.2-8.97,9.85-19.84,9.85-31.55s-3.64-22.57-9.85-31.54l162.04-162.04c5.85,3.42,12.64,5.42,19.91,5.42s14.06-2,19.91-5.42l263.89,263.89c-3.42,5.85-5.42,12.64-5.42,19.91,0,17.57,11.47,32.44,27.32,37.59v189.94c-25.88,4.74-45.56,27.45-45.56,54.67,0,30.66,24.94,55.6,55.6,55.6s55.6-24.94,55.6-55.6c0-27.23-19.68-49.93-45.56-54.67v-188.78c18.06-3.65,31.65-19.61,31.65-38.74,0-21.83-17.7-39.53-39.53-39.53-7.27,0-14.06,1.99-19.91,5.42l-263.89-263.89c3.42-5.85,5.42-12.64,5.42-19.91,0-18.35-12.53-33.74-29.48-38.19v-163.12c16.96-4.45,29.48-19.84,29.48-38.2,0-21.83-17.7-39.53-39.53-39.53s-39.53,17.7-39.53,39.53c0,18.36,12.53,33.75,29.49,38.2v163.12c-16.96,4.45-29.49,19.84-29.49,38.19,0,7.27,1.99,14.06,5.42,19.91l-162.04,162.04c-8.97-6.2-19.84-9.85-31.55-9.85-30.66,0-55.6,24.94-55.6,55.6,0,11.71,3.65,22.58,9.85,31.55l-162.47,162.47c-5.38-2.74-11.45-4.32-17.9-4.32-7.27,0-14.05,1.99-19.9,5.42l-129.27-129.27c3.42-5.85,5.42-12.64,5.42-19.91,0-18.35-12.53-33.74-29.48-38.19v-361.65c16.96-4.45,29.48-19.84,29.48-38.2,0-21.83-17.7-39.53-39.53-39.53-18.36,0-33.74,12.53-38.19,29.48h-237.68c-4.45-16.96-19.84-29.48-38.19-29.48-7.27,0-14.06,2-19.91,5.42l-187.09-187.09c-.29-.29-.62-.52-.94-.76,6.25-8.99,9.92-19.89,9.92-31.65,0-30.66-24.94-55.6-55.6-55.6s-55.6,24.94-55.6,55.6c0,12.38,4.07,23.82,10.93,33.07l-218.42,218.42c-3.03-1.79-6.31-3.17-9.79-4.1v-288.88c16.86-4.52,29.3-19.86,29.3-38.15,0-21.83-17.7-39.53-39.53-39.53-7.27,0-14.05,1.99-19.91,5.42l-350.69-350.68c3.42-5.85,5.42-12.64,5.42-19.91,0-21.83-17.7-39.53-39.53-39.53-7.27,0-14.06,1.99-19.91,5.42l-123.57-123.57c3.42-5.85,5.42-12.64,5.42-19.91,0-21.83-17.7-39.53-39.53-39.53-18.35,0-33.74,12.53-38.19,29.49h-171.48c-3.61-13.75-14.4-24.54-28.15-28.15v-149.41c13.75-3.61,24.54-14.4,28.15-28.15h629.83c3.66,13.94,14.71,24.85,28.74,28.3v119.88l-61.09,61.09c-3.92,3.92-3.92,10.28,0,14.2l98.53,98.53c-1.9,4.62-2.96,9.68-2.96,14.98,0,21.83,17.7,39.53,39.53,39.53,17.63,0,32.54-11.54,37.64-27.48h126.09l84.94,84.95c1.88,1.88,4.44,2.94,7.1,2.94h99.27c2.03,19.93,18.86,35.48,39.32,35.48,6,0,11.66-1.37,16.75-3.77l135.17,135.17c-2.39,5.09-3.76,10.75-3.76,16.75,0,21.83,17.7,39.53,39.53,39.53,7.27,0,14.06-2,19.91-5.42l192.26,192.26c-5.87,8.81-9.3,19.39-9.3,30.75,0,30.66,24.94,55.6,55.6,55.6s55.6-24.94,55.6-55.6-24.94-55.6-55.6-55.6c-12.05,0-23.21,3.87-32.33,10.41l-192.02-192.02c1.83-3.13,3.23-6.52,4.15-10.12h280.73c4.74,25.88,27.45,45.56,54.67,45.56,11.71,0,22.57-3.65,31.55-9.85l202.48,202.49c-3.42,5.85-5.42,12.64-5.42,19.91,0,18.36,12.53,33.74,29.49,38.19v205.99c-16.96,4.45-29.49,19.84-29.49,38.19,0,21.83,17.7,39.53,39.53,39.53s39.53-17.7,39.53-39.53c0-18.35-12.53-33.74-29.49-38.19v-205.99c16.96-4.45,29.49-19.84,29.49-38.19,0-7.27-1.99-14.06-5.42-19.91l94.44-94.44c5.85,3.42,12.64,5.42,19.9,5.42,21.83,0,39.53-17.7,39.53-39.53s-17.7-39.53-39.53-39.53-39.53,17.7-39.53,39.53c0,7.27,1.99,14.06,5.42,19.91l-94.44,94.43c-5.85-3.42-12.64-5.42-19.91-5.42s-14.06,1.99-19.91,5.42l-202.49-202.49c6.2-8.97,9.85-19.84,9.85-31.54,0-30.66-24.94-55.6-55.6-55.6-27.23,0-49.93,19.68-54.67,45.56h-280.86c-4.54-16.82-19.86-29.22-38.13-29.22-8.51,0-16.38,2.72-22.83,7.3l-109.56-109.56h104.08c5.55,0,10.04-4.5,10.04-10.04v-150.98h118.49c5.26,15.65,20.02,26.93,37.45,26.93,6.17,0,11.99-1.46,17.19-3.98l44.1,44.1c1.88,1.88,4.44,2.94,7.1,2.94h86.86l63.4,63.39c1.88,1.88,4.44,2.94,7.1,2.94h246.51c2.66,0,5.22-1.06,7.1-2.94l38.78-38.78c5.05,2.34,10.66,3.69,16.59,3.69,18.61,0,34.16-12.87,38.37-30.18h247.44c4.21,17.31,19.77,30.18,38.37,30.18,5.81,0,11.3-1.28,16.26-3.53l23.55,23.55v137.32l-33.48,33.48-51.9-51.9v-76.19c0-5.55-4.5-10.04-10.04-10.04h-113.83c-5.55,0-10.04,4.5-10.04,10.04v45.2c0,2.66,1.06,5.22,2.94,7.1l129.31,129.31v129.76c0,2.66,1.06,5.22,2.94,7.1l250.48,250.48c-4,6.18-6.34,13.52-6.34,21.43,0,17.62,11.54,32.54,27.46,37.64v138.69c0,2.66,1.06,5.22,2.94,7.1l113.71,113.71c-3.31,5.78-5.23,12.46-5.23,19.6,0,18.25,12.39,33.57,29.2,38.12v19.01c0,2.66,1.06,5.22,2.94,7.1l363.5,363.5c-3.45,5.87-5.46,12.68-5.46,19.97s1.99,14.06,5.42,19.91l-131.28,131.28c-5.85-3.42-12.64-5.42-19.91-5.42-21.83,0-39.53,17.7-39.53,39.53,0,18.36,12.53,33.74,29.49,38.19v213.62c-25.88,4.74-45.56,27.45-45.56,54.67,0,30.66,24.94,55.6,55.6,55.6,11.71,0,22.57-3.65,31.54-9.85l163.93,163.93c-3.42,5.85-5.42,12.64-5.42,19.91,0,6.68,1.67,12.97,4.6,18.49l-344.99,344.99c-2.98-1.72-6.21-3.04-9.62-3.93v-256.77c16.96-4.45,29.49-19.83,29.49-38.19,0-21.83-17.7-39.53-39.53-39.53-18.35,0-33.74,12.53-38.19,29.49h-341.06c-4.74-25.88-27.45-45.56-54.67-45.56-30.66,0-55.6,24.94-55.6,55.6s24.94,55.6,55.6,55.6c27.23,0,49.93-19.68,54.67-45.56h341.06c3.61,13.74,14.4,24.54,28.15,28.15v256.77c-13.74,3.61-24.54,14.41-28.15,28.15h-504c-4.47-26.21-27.33-46.24-54.8-46.24-11.71,0-22.57,3.65-31.54,9.85l-213.82-213.82c2.99-5.57,4.7-11.93,4.7-18.69,0-7.27-1.99-14.05-5.42-19.9l117.74-117.74c5.85,3.42,12.64,5.42,19.91,5.42,21.83,0,39.53-17.7,39.53-39.53,0-18.35-12.53-33.74-29.48-38.19v-474.26c3.5-.92,6.81-2.29,9.86-4.08l177.95,177.95c-3.42,5.85-5.42,12.64-5.42,19.91,0,21.83,17.7,39.53,39.53,39.53,18.36,0,33.74-12.53,38.19-29.48h229.33c3.61,13.75,14.4,24.54,28.15,28.15v144.72c-16.96,4.45-29.49,19.84-29.49,38.19,0,21.83,17.7,39.53,39.53,39.53s39.53-17.7,39.53-39.53c0-18.36-12.53-33.74-29.49-38.19v-144.72c16.96-4.45,29.49-19.84,29.49-38.19,0-21.83-17.7-39.53-39.53-39.53-18.36,0-33.74,12.53-38.19,29.49h-229.33c-4.45-16.96-19.84-29.49-38.19-29.49-7.27,0-14.06,1.99-19.91,5.42l-177.95-177.95c3.42-5.85,5.42-12.64,5.42-19.91,0-21.83-17.7-39.53-39.53-39.53s-39.53,17.7-39.53,39.53c0,18.36,12.53,33.74,29.48,38.19v474.26c-3.5.92-6.81,2.3-9.86,4.08l-452.87-452.87c5.91-8.83,9.36-19.44,9.36-30.84,0-30.66-24.94-55.6-55.6-55.6s-55.6,24.94-55.6,55.6,24.94,55.6,55.6,55.6c12.01,0,23.14-3.84,32.24-10.35l452.66,452.66c-3.43,5.85-5.42,12.64-5.42,19.91s1.99,14.06,5.42,19.91l-117.74,117.74c-5.85-3.42-12.64-5.42-19.91-5.42-21.83,0-39.53,17.7-39.53,39.53s17.7,39.54,39.53,39.54c7.78,0,15-2.28,21.12-6.15l213.33,213.33c-6.2,8.97-9.85,19.84-9.85,31.55,0,30.66,24.94,55.6,55.6,55.6,26.99,0,49.54-19.33,54.55-44.88h504.24c3.84,14.62,15.79,25.92,30.79,28.77v91.1c0,2.66,1.06,5.22,2.94,7.1l29.3,29.31c-4.87,4.87-8.43,11.03-10.24,17.9h-310.61c-4.45-16.96-19.83-29.48-38.19-29.48-21.83,0-39.53,17.7-39.53,39.53,0,18.36,12.53,33.74,29.48,38.19v221.85c-16.95,4.45-29.48,19.84-29.48,38.19,0,21.83,17.7,39.53,39.53,39.53s39.53-17.7,39.53-39.53c0-18.36-12.52-33.74-29.49-38.19v-221.85c13.75-3.6,24.54-14.4,28.15-28.15h310.61c3.7,14.09,14.95,25.1,29.19,28.42v157.36c0,2.66,1.06,5.22,2.94,7.1l69.33,69.33v290.95c-14.49,3.17-25.97,14.28-29.71,28.55h-146.19c-3.6-13.75-14.4-24.54-28.15-28.15v-180.76c16.96-4.45,29.49-19.84,29.49-38.2,0-21.83-17.7-39.53-39.53-39.53s-39.53,17.7-39.53,39.53c0,18.36,12.53,33.74,29.49,38.2v180.76c-16.96,4.45-29.49,19.84-29.49,38.19,0,21.83,17.7,39.53,39.53,39.53,18.36,0,33.74-12.53,38.19-29.49h146.19c.91,3.48,2.28,6.77,4.05,9.81l-156.52,156.52ZM3702.34,4374.01c19.58,0,35.51,15.93,35.51,35.51s-15.93,35.51-35.51,35.51-35.51-15.93-35.51-35.51,15.93-35.51,35.51-35.51ZM3702.34,4112.89c-19.58,0-35.51-15.93-35.51-35.51s15.93-35.51,35.51-35.51,35.51,15.93,35.51,35.51-15.93,35.51-35.51,35.51ZM3379.45,3787.98c0,19.58-15.93,35.51-35.51,35.51s-35.51-15.93-35.51-35.51,15.93-35.51,35.51-35.51,35.51,15.93,35.51,35.51ZM3557.35,3610.09c-19.58,0-35.51-15.93-35.51-35.51s15.93-35.51,35.51-35.51,35.51,15.93,35.51,35.51-15.93,35.51-35.51,35.51ZM3878.35,3895.58c.14-.14.23-.3.36-.44,6.39-6.2,15.09-10.03,24.68-10.03,19.58,0,35.51,15.93,35.51,35.51s-15.93,35.51-35.51,35.51-35.51-15.93-35.51-35.51c0-9.59,3.83-18.28,10.03-24.68.14-.13.3-.23.44-.36ZM3000.09,2776.97c-.91.91-1.58,1.95-2.07,3.06-5.93,4.44-13.26,7.1-21.21,7.1-19.58,0-35.51-15.93-35.51-35.51s15.93-35.51,35.51-35.51,35.51,15.93,35.51,35.51c0,8.79-3.23,16.82-8.53,23.03-1.35.49-2.62,1.24-3.69,2.32ZM2698.98,3564.53c-19.58,0-35.51-15.93-35.51-35.51s15.93-35.51,35.51-35.51,35.51,15.93,35.51,35.51-15.93,35.51-35.51,35.51ZM2710.4,4321.54c0,19.57-15.93,35.5-35.51,35.5s-35.51-15.93-35.51-35.51,15.93-35.51,35.51-35.51,35.5,15.92,35.51,35.5c0,0,0,0,0,.01,0,0,0,0,0,.01ZM2674.89,3959.96c19.58,0,35.51,15.93,35.51,35.51s-15.93,35.51-35.51,35.51-35.51-15.93-35.51-35.51,15.93-35.51,35.51-35.51ZM2055.42,1445.68c-19.58,0-35.51-15.93-35.51-35.51s15.93-35.51,35.51-35.51,35.51,15.93,35.51,35.51-15.93,35.51-35.51,35.51ZM2359.32,2481.22c0,19.58-15.93,35.51-35.51,35.51s-35.51-15.93-35.51-35.51,15.93-35.51,35.51-35.51,35.51,15.93,35.51,35.51ZM2602.8,3042.35c-19.58,0-35.51-15.93-35.51-35.51s15.93-35.51,35.51-35.51,35.51,15.93,35.51,35.51-15.93,35.51-35.51,35.51ZM2602.8,1947.97c-19.58,0-35.51-15.93-35.51-35.51s15.93-35.51,35.51-35.51,35.51,15.93,35.51,35.51-15.93,35.51-35.51,35.51ZM1380.92,1652.77c19.58,0,35.51,15.93,35.51,35.51s-15.93,35.51-35.51,35.51-35.51-15.93-35.51-35.51,15.93-35.51,35.51-35.51ZM974.07,1330.45c0,19.58-15.93,35.51-35.51,35.51s-35.51-15.93-35.51-35.51,15.93-35.51,35.51-35.51,35.51,15.93,35.51,35.51ZM1004.58,703.33c0,19.58-15.93,35.51-35.51,35.51s-35.51-15.93-35.51-35.51,15.93-35.51,35.51-35.51,35.51,15.93,35.51,35.51ZM1484.36,615.82c.49,1.11,1.16,2.15,2.07,3.06.91.91,1.95,1.58,3.06,2.07,4.99,6.11,7.98,13.91,7.98,22.4,0,19.58-15.93,35.51-35.51,35.51s-35.51-15.93-35.51-35.51,15.93-35.51,35.51-35.51c8.49,0,16.28,3,22.4,7.99ZM1685.31,831.17c19.58,0,35.51,15.93,35.51,35.51s-15.93,35.51-35.51,35.51-35.51-15.93-35.51-35.51,15.93-35.51,35.51-35.51ZM1901.42,1053.93c19.58,0,35.51,15.93,35.51,35.51s-15.93,35.51-35.51,35.51-35.51-15.93-35.51-35.51,15.93-35.51,35.51-35.51ZM2590.46,1077.7c-7.57,0-14.57-2.4-20.34-6.45-.48-1.37-1.24-2.67-2.34-3.77-1.31-1.31-2.91-2.15-4.59-2.58-5.14-6.16-8.24-14.08-8.24-22.71,0-19.58,15.93-35.51,35.51-35.51s35.51,15.93,35.51,35.51-15.93,35.51-35.51,35.51ZM2844.06,1494.46c19.58,0,35.51,15.93,35.51,35.51s-15.93,35.51-35.51,35.51-35.51-15.93-35.51-35.51,15.93-35.51,35.51-35.51ZM3603.05,1687.89c0,19.58-15.93,35.51-35.51,35.51s-35.51-15.93-35.51-35.51,15.93-35.51,35.51-35.51,35.51,15.93,35.51,35.51ZM4110.98,2024.79c19.58,0,35.51,15.93,35.51,35.51s-15.93,35.51-35.51,35.51-35.51-15.93-35.51-35.51,15.93-35.51,35.51-35.51ZM3088.49,1006.68c19.58,0,35.51,15.93,35.51,35.51s-15.93,35.51-35.51,35.51-35.51-15.93-35.51-35.51,15.93-35.51,35.51-35.51ZM3203.68,820.32c-19.58,0-35.51-15.93-35.51-35.51s15.93-35.51,35.51-35.51,35.51,15.93,35.51,35.51-15.93,35.51-35.51,35.51ZM3841.34,2784.07c0,19.58-15.93,35.51-35.51,35.51s-35.51-15.93-35.51-35.51,15.93-35.51,35.51-35.51,35.51,15.93,35.51,35.51ZM3642.77,3081.04c19.58,0,35.51,15.93,35.51,35.51s-15.93,35.51-35.51,35.51-35.51-15.93-35.51-35.51,15.93-35.51,35.51-35.51ZM3040.6,2172.81c-.72.72-1.26,1.54-1.72,2.4-6.28,5.59-14.52,9.02-23.56,9.02-19.58,0-35.51-15.93-35.51-35.51s15.93-35.51,35.51-35.51,35.51,15.93,35.51,35.51c0,8.53-3.03,16.36-8.06,22.49-.77.44-1.51.94-2.16,1.6Z"/>
    </g>
  </g>
</svg>