<?xml version="1.0" encoding="UTF-8"?>
<svg id="Calque_2" data-name="Calque 2" xmlns="http://www.w3.org/2000/svg" xmlns:xlink="http://www.w3.org/1999/xlink" viewBox="0 0 653.15 785.17">
  <defs>
    <style>
      .cls-1 {
        mask: url(#mask);
      }

      .cls-2 {
        fill: url(#radial-gradient-6);
      }

      .cls-3 {
        fill: url(#radial-gradient-4);
      }

      .cls-4 {
        fill: url(#radial-gradient-8);
      }

      .cls-5 {
        fill: url(#radial-gradient-2);
      }

      .cls-6 {
        fill: url(#radial-gradient-15);
      }

      .cls-6, .cls-7, .cls-8, .cls-9, .cls-10, .cls-11, .cls-12, .cls-13, .cls-14, .cls-15, .cls-16 {
        mix-blend-mode: multiply;
      }

      .cls-7 {
        fill: url(#radial-gradient-11);
      }

      .cls-8 {
        fill: url(#radial-gradient-17);
      }

      .cls-9 {
        fill: url(#radial-gradient-19);
      }

      .cls-10 {
        fill: url(#radial-gradient-13);
      }

      .cls-11 {
        fill: url(#radial-gradient-21);
      }

      .cls-12 {
        fill: url(#radial-gradient);
      }

      .cls-17 {
        mask: url(#mask-2);
      }

      .cls-18 {
        mask: url(#mask-3);
      }

      .cls-19 {
        mask: url(#mask-4);
      }

      .cls-20 {
        mask: url(#mask-5);
      }

      .cls-21 {
        mask: url(#mask-7);
      }

      .cls-22 {
        mask: url(#mask-6);
      }

      .cls-23 {
        mask: url(#mask-1);
      }

      .cls-24 {
        mask: url(#mask-9);
      }

      .cls-25 {
        mask: url(#mask-8);
      }

      .cls-26 {
        fill: url(#radial-gradient-16);
      }

      .cls-27 {
        fill: url(#radial-gradient-12);
      }

      .cls-28 {
        fill: url(#radial-gradient-14);
      }

      .cls-29 {
        fill: url(#radial-gradient-10);
      }

      .cls-30 {
        fill: url(#radial-gradient-18);
      }

      .cls-31 {
        fill: url(#radial-gradient-22);
      }

      .cls-32 {
        fill: url(#radial-gradient-20);
      }

      .cls-33 {
        fill: #00ccfe;
      }

      .cls-13 {
        fill: url(#radial-gradient-9);
      }

      .cls-14 {
        fill: url(#radial-gradient-3);
      }

      .cls-15 {
        fill: url(#radial-gradient-7);
      }

      .cls-16 {
        fill: url(#radial-gradient-5);
      }

      .cls-34 {
        mask: url(#mask-10);
      }

      .cls-35 {
        mask: url(#mask-14);
      }

      .cls-36 {
        mask: url(#mask-18);
      }

      .cls-37 {
        mask: url(#mask-11);
      }

      .cls-38 {
        mask: url(#mask-16);
      }

      .cls-39 {
        mask: url(#mask-13);
      }

      .cls-40 {
        mask: url(#mask-19);
      }

      .cls-41 {
        mask: url(#mask-12);
      }

      .cls-42 {
        mask: url(#mask-17);
      }

      .cls-43 {
        mask: url(#mask-15);
      }

      .cls-44 {
        mask: url(#mask-21);
      }

      .cls-45 {
        mask: url(#mask-20);
      }
    </style>
    <filter id="luminosity-noclip" x="437.77" y="-8575.75" width="55.56" height="32766" color-interpolation-filters="sRGB" filterUnits="userSpaceOnUse">
      <feFlood flood-color="#fff" result="bg"/>
      <feBlend in="SourceGraphic" in2="bg"/>
    </filter>
    <mask id="mask-1" x="437.77" y="-8575.75" width="55.56" height="32766" maskUnits="userSpaceOnUse"/>
    <radialGradient id="radial-gradient" cx="735.85" cy="194.35" fx="735.85" fy="194.35" r="20.61" gradientTransform="translate(-285.61 891.03) rotate(-57.7) scale(1.35)" gradientUnits="userSpaceOnUse">
      <stop offset="0" stop-color="#fff"/>
      <stop offset=".09" stop-color="#dfdfdf"/>
      <stop offset=".35" stop-color="#919191"/>
      <stop offset=".58" stop-color="#525252"/>
      <stop offset=".77" stop-color="#252525"/>
      <stop offset=".91" stop-color="#0a0a0a"/>
      <stop offset="1" stop-color="#000"/>
    </radialGradient>
    <mask id="mask" x="437.77" y="165.2" width="55.56" height="55.56" maskUnits="userSpaceOnUse">
      <g class="cls-23">
        <path class="cls-12" d="M480.4,169.5c12.96,8.2,16.83,25.36,8.63,38.32-8.2,12.97-25.35,16.83-38.32,8.64-12.97-8.2-16.83-25.35-8.64-38.32,8.2-12.97,25.36-16.83,38.32-8.64Z"/>
      </g>
    </mask>
    <radialGradient id="radial-gradient-2" cx="735.85" cy="194.35" fx="735.85" fy="194.35" r="20.61" gradientTransform="translate(-285.61 891.03) rotate(-57.7) scale(1.35)" gradientUnits="userSpaceOnUse">
      <stop offset="0" stop-color="#b3f0ff"/>
      <stop offset=".15" stop-color="#90d9fd"/>
      <stop offset=".45" stop-color="#52b2f9"/>
      <stop offset=".7" stop-color="#2596f7"/>
      <stop offset=".89" stop-color="#0a84f5"/>
      <stop offset="1" stop-color="#007ef5"/>
    </radialGradient>
    <filter id="luminosity-noclip-2" x="400.6" y="-8575.75" width="55.56" height="32766" color-interpolation-filters="sRGB" filterUnits="userSpaceOnUse">
      <feFlood flood-color="#fff" result="bg"/>
      <feBlend in="SourceGraphic" in2="bg"/>
    </filter>
    <mask id="mask-3" x="400.6" y="-8575.75" width="55.56" height="32766" maskUnits="userSpaceOnUse"/>
    <radialGradient id="radial-gradient-3" cx="798.01" cy="112.22" fx="798.01" fy="112.22" r="20.61" gradientTransform="translate(-273.98 921.97) rotate(-57.7) scale(1.35)" xlink:href="#radial-gradient"/>
    <mask id="mask-2" x="400.6" y="66.22" width="55.56" height="55.56" maskUnits="userSpaceOnUse">
      <g class="cls-18">
        <path class="cls-14" d="M443.23,70.51c12.96,8.2,16.83,25.36,8.63,38.32-8.19,12.97-25.35,16.83-38.32,8.64-12.97-8.2-16.83-25.35-8.63-38.32,8.19-12.97,25.35-16.83,38.32-8.64Z"/>
      </g>
    </mask>
    <radialGradient id="radial-gradient-4" cx="798.01" cy="112.22" fx="798.01" fy="112.22" r="20.61" gradientTransform="translate(-273.98 921.97) rotate(-57.7) scale(1.35)" xlink:href="#radial-gradient-2"/>
    <filter id="luminosity-noclip-3" x="235.98" y="-8575.75" width="55.55" height="32766" color-interpolation-filters="sRGB" filterUnits="userSpaceOnUse">
      <feFlood flood-color="#fff" result="bg"/>
      <feBlend in="SourceGraphic" in2="bg"/>
    </filter>
    <mask id="mask-5" x="235.98" y="-8575.75" width="55.55" height="32766" maskUnits="userSpaceOnUse"/>
    <radialGradient id="radial-gradient-5" cx="687.66" cy="-7.77" fx="687.66" fy="-7.77" r="20.61" gradientTransform="translate(-222.51 912.62) rotate(-57.7) scale(1.35)" xlink:href="#radial-gradient"/>
    <mask id="mask-4" x="235.98" y="96.13" width="55.55" height="55.56" maskUnits="userSpaceOnUse">
      <g class="cls-20">
        <path class="cls-16" d="M278.6,100.43c12.96,8.2,16.82,25.36,8.63,38.32-8.19,12.97-25.35,16.83-38.32,8.64-12.97-8.2-16.83-25.35-8.63-38.32,8.19-12.97,25.35-16.83,38.32-8.64Z"/>
      </g>
    </mask>
    <radialGradient id="radial-gradient-6" cx="687.66" cy="-7.77" fx="687.66" fy="-7.77" r="20.61" gradientTransform="translate(-222.51 912.62) rotate(-57.7) scale(1.35)" xlink:href="#radial-gradient-2"/>
    <filter id="luminosity-noclip-4" x="47.64" y="-8575.75" width="55.56" height="32766" color-interpolation-filters="sRGB" filterUnits="userSpaceOnUse">
      <feFlood flood-color="#fff" result="bg"/>
      <feBlend in="SourceGraphic" in2="bg"/>
    </filter>
    <mask id="mask-7" x="47.64" y="-8575.75" width="55.56" height="32766" maskUnits="userSpaceOnUse"/>
    <radialGradient id="radial-gradient-7" cx="521.11" cy="-119.54" fx="521.11" fy="-119.54" r="20.61" gradientTransform="translate(-163.63 886.61) rotate(-57.7) scale(1.35)" xlink:href="#radial-gradient"/>
    <mask id="mask-6" x="47.64" y="179.33" width="55.56" height="55.56" maskUnits="userSpaceOnUse">
      <g class="cls-21">
        <path class="cls-15" d="M90.27,183.63c12.96,8.2,16.82,25.36,8.63,38.32-8.19,12.97-25.35,16.83-38.32,8.64-12.97-8.2-16.83-25.35-8.63-38.32,8.19-12.97,25.35-16.83,38.32-8.64Z"/>
      </g>
    </mask>
    <radialGradient id="radial-gradient-8" cx="521.11" cy="-119.54" fx="521.11" fy="-119.54" r="20.61" gradientTransform="translate(-163.63 886.61) rotate(-57.7) scale(1.35)" xlink:href="#radial-gradient-2"/>
    <filter id="luminosity-noclip-5" x="175.4" y="-8575.75" width="55.55" height="32766" color-interpolation-filters="sRGB" filterUnits="userSpaceOnUse">
      <feFlood flood-color="#fff" result="bg"/>
      <feBlend in="SourceGraphic" in2="bg"/>
    </filter>
    <mask id="mask-9" x="175.4" y="-8575.75" width="55.55" height="32766" maskUnits="userSpaceOnUse"/>
    <radialGradient id="radial-gradient-9" cx="592.86" cy="-17.65" fx="592.86" fy="-17.65" r="20.61" gradientTransform="translate(-203.57 888.6) rotate(-57.7) scale(1.35)" xlink:href="#radial-gradient"/>
    <mask id="mask-8" x="175.4" y="172.97" width="55.55" height="55.56" maskUnits="userSpaceOnUse">
      <g class="cls-24">
        <path class="cls-13" d="M218.02,177.27c12.96,8.2,16.82,25.36,8.63,38.32-8.19,12.97-25.35,16.83-38.31,8.64-12.97-8.2-16.83-25.35-8.64-38.32,8.19-12.97,25.35-16.83,38.32-8.64Z"/>
      </g>
    </mask>
    <radialGradient id="radial-gradient-10" cx="592.86" cy="-17.65" fx="592.86" fy="-17.65" r="20.61" gradientTransform="translate(-203.57 888.6) rotate(-57.7) scale(1.35)" xlink:href="#radial-gradient-2"/>
    <filter id="luminosity-noclip-6" x="325.43" y="-8575.75" width="55.56" height="32766" color-interpolation-filters="sRGB" filterUnits="userSpaceOnUse">
      <feFlood flood-color="#fff" result="bg"/>
      <feBlend in="SourceGraphic" in2="bg"/>
    </filter>
    <mask id="mask-11" x="325.43" y="-8575.75" width="55.56" height="32766" maskUnits="userSpaceOnUse"/>
    <radialGradient id="radial-gradient-11" cx="575.19" cy="166.44" fx="575.19" fy="166.44" r="20.61" gradientTransform="translate(-250.48 852.25) rotate(-57.7) scale(1.35)" xlink:href="#radial-gradient"/>
    <mask id="mask-10" x="325.43" y="289.29" width="55.56" height="55.56" maskUnits="userSpaceOnUse">
      <g class="cls-37">
        <path class="cls-7" d="M368.06,293.58c12.96,8.2,16.82,25.36,8.63,38.32-8.2,12.97-25.35,16.83-38.32,8.64-12.97-8.2-16.83-25.35-8.64-38.32,8.19-12.97,25.35-16.83,38.32-8.64Z"/>
      </g>
    </mask>
    <radialGradient id="radial-gradient-12" cx="575.19" cy="166.44" fx="575.19" fy="166.44" r="20.61" gradientTransform="translate(-250.48 852.25) rotate(-57.7) scale(1.35)" xlink:href="#radial-gradient-2"/>
    <filter id="luminosity-noclip-7" x="566.47" y="-8575.75" width="55.56" height="32766" color-interpolation-filters="sRGB" filterUnits="userSpaceOnUse">
      <feFlood flood-color="#fff" result="bg"/>
      <feBlend in="SourceGraphic" in2="bg"/>
    </filter>
    <mask id="mask-13" x="566.47" y="-8575.75" width="55.56" height="32766" maskUnits="userSpaceOnUse"/>
    <radialGradient id="radial-gradient-13" cx="686.55" cy="373.85" fx="686.55" fy="373.85" r="20.61" gradientTransform="translate(-325.84 846.89) rotate(-57.7) scale(1.35)" xlink:href="#radial-gradient"/>
    <mask id="mask-12" x="566.47" y="306.44" width="55.56" height="55.56" maskUnits="userSpaceOnUse">
      <g class="cls-39">
        <path class="cls-10" d="M609.1,310.74c12.96,8.2,16.83,25.35,8.63,38.32-8.19,12.97-25.35,16.83-38.32,8.64-12.97-8.2-16.83-25.35-8.63-38.32,8.2-12.97,25.36-16.83,38.32-8.64Z"/>
      </g>
    </mask>
    <radialGradient id="radial-gradient-14" cx="686.55" cy="373.85" fx="686.55" fy="373.85" r="20.61" gradientTransform="translate(-325.84 846.89) rotate(-57.7) scale(1.35)" xlink:href="#radial-gradient-2"/>
    <filter id="luminosity-noclip-8" x="447.68" y="-8575.75" width="55.56" height="32766" color-interpolation-filters="sRGB" filterUnits="userSpaceOnUse">
      <feFlood flood-color="#fff" result="bg"/>
      <feBlend in="SourceGraphic" in2="bg"/>
    </filter>
    <mask id="mask-15" x="447.68" y="-8575.75" width="55.56" height="32766" maskUnits="userSpaceOnUse"/>
    <radialGradient id="radial-gradient-15" cx="518.09" cy="343.44" fx="518.09" fy="343.44" r="20.61" gradientTransform="translate(-288.7 806.4) rotate(-57.7) scale(1.35)" xlink:href="#radial-gradient"/>
    <mask id="mask-14" x="447.68" y="435.91" width="55.56" height="55.56" maskUnits="userSpaceOnUse">
      <g class="cls-43">
        <path class="cls-6" d="M490.3,440.2c12.96,8.2,16.83,25.36,8.63,38.32-8.19,12.97-25.35,16.84-38.32,8.64-12.97-8.2-16.83-25.35-8.63-38.32,8.19-12.97,25.35-16.83,38.32-8.64Z"/>
      </g>
    </mask>
    <radialGradient id="radial-gradient-16" cx="518.09" cy="343.44" fx="518.09" fy="343.44" r="20.61" gradientTransform="translate(-288.7 806.4) rotate(-57.7) scale(1.35)" xlink:href="#radial-gradient-2"/>
    <filter id="luminosity-noclip-9" x="307.64" y="-8575.75" width="55.56" height="32766" color-interpolation-filters="sRGB" filterUnits="userSpaceOnUse">
      <feFlood flood-color="#fff" result="bg"/>
      <feBlend in="SourceGraphic" in2="bg"/>
    </filter>
    <mask id="mask-17" x="307.64" y="-8575.75" width="55.56" height="32766" maskUnits="userSpaceOnUse"/>
    <radialGradient id="radial-gradient-17" cx="338.03" cy="295.87" fx="338.03" fy="295.87" r="20.61" gradientTransform="translate(-244.92 765.73) rotate(-57.7) scale(1.35)" xlink:href="#radial-gradient"/>
    <mask id="mask-16" x="307.64" y="566.04" width="55.56" height="55.55" maskUnits="userSpaceOnUse">
      <g class="cls-42">
        <path class="cls-8" d="M350.27,570.33c12.96,8.2,16.83,25.36,8.63,38.32-8.19,12.97-25.35,16.83-38.32,8.64-12.97-8.2-16.83-25.35-8.63-38.32,8.19-12.97,25.35-16.83,38.32-8.64Z"/>
      </g>
    </mask>
    <radialGradient id="radial-gradient-18" cx="338.03" cy="295.87" fx="338.03" fy="295.87" r="20.61" gradientTransform="translate(-244.92 765.73) rotate(-57.7) scale(1.35)" xlink:href="#radial-gradient-2"/>
    <filter id="luminosity-noclip-10" x="367.11" y="-8575.75" width="55.56" height="32766" color-interpolation-filters="sRGB" filterUnits="userSpaceOnUse">
      <feFlood flood-color="#fff" result="bg"/>
      <feBlend in="SourceGraphic" in2="bg"/>
    </filter>
    <mask id="mask-19" x="367.11" y="-8575.75" width="55.56" height="32766" maskUnits="userSpaceOnUse"/>
    <radialGradient id="radial-gradient-19" cx="258.4" cy="414.75" fx="258.4" fy="414.75" r="20.61" gradientTransform="translate(-263.51 723.76) rotate(-57.7) scale(1.35)" xlink:href="#radial-gradient"/>
    <mask id="mask-18" x="367.11" y="700.34" width="55.56" height="55.55" maskUnits="userSpaceOnUse">
      <g class="cls-40">
        <path class="cls-9" d="M409.73,704.64c12.96,8.2,16.83,25.36,8.63,38.32-8.19,12.97-25.35,16.83-38.32,8.64-12.97-8.2-16.83-25.35-8.63-38.32,8.19-12.97,25.35-16.83,38.32-8.64Z"/>
      </g>
    </mask>
    <radialGradient id="radial-gradient-20" cx="258.4" cy="414.75" fx="258.4" fy="414.75" r="20.61" gradientTransform="translate(-263.51 723.76) rotate(-57.7) scale(1.35)" xlink:href="#radial-gradient-2"/>
    <filter id="luminosity-noclip-11" x="581.1" y="-8575.75" width="55.56" height="32766" color-interpolation-filters="sRGB" filterUnits="userSpaceOnUse">
      <feFlood flood-color="#fff" result="bg"/>
      <feBlend in="SourceGraphic" in2="bg"/>
    </filter>
    <mask id="mask-21" x="581.1" y="-8575.75" width="55.56" height="32766" maskUnits="userSpaceOnUse"/>
    <radialGradient id="radial-gradient-21" cx="464.31" cy="531.21" fx="464.31" fy="531.21" r="20.61" gradientTransform="translate(-330.42 759.6) rotate(-57.7) scale(1.35)" xlink:href="#radial-gradient"/>
    <mask id="mask-20" x="581.1" y="585.54" width="55.56" height="55.55" maskUnits="userSpaceOnUse">
      <g class="cls-44">
        <path class="cls-11" d="M623.73,589.83c12.96,8.2,16.82,25.36,8.63,38.32-8.2,12.97-25.35,16.83-38.32,8.64-12.97-8.2-16.83-25.35-8.63-38.32,8.19-12.97,25.35-16.83,38.32-8.64Z"/>
      </g>
    </mask>
    <radialGradient id="radial-gradient-22" cx="464.31" cy="531.21" fx="464.31" fy="531.21" r="20.61" gradientTransform="translate(-330.42 759.6) rotate(-57.7) scale(1.35)" xlink:href="#radial-gradient-2"/>
  </defs>
  <g id="_ÎÓÈ_1" data-name="—ÎÓÈ_1">
    <g>
      <path class="cls-33" d="M653.14,281.76v-.33c0-.54-.07-1.08-.14-1.61l-.03-.22c-.13-.92-.28-1.61-.48-2.18-.19-.59-.56-1.3-.94-1.49-.37-.28-.99-.26-1.63.04-.52.24-1.02.61-1.4.91-.18.15-.37.29-.54.42-.44.33-.85.65-1.13,1.03-.08.12-.16.25-.24.39-.19.32-.36.62-.71.84-.48.29-1.05.33-1.6.33h-.72c-1.74-.14-3.28.5-5.41,2.26-.63.5-1.92,1.36-3.44,1.6-.62.12-1.21.01-1.7-.08-.13-.02-.25-.05-.35-.06-.36-.06-.67-.07-.84-.05-.27.03-.47.15-.7.3-.33.23-.64.56-1.01.95l-.35.37c-.25.25-.5.49-.84.69-.17.1-.38.19-.55.23-.16.04-.33.08-.51.11-.67.13-1.43.07-2.04-.15-.67-.24-1.22-.61-1.64-.9-.94-.67-1.79-1.24-2.79-1.41-.94-.17-1.89-.03-2.69.41-.45.25-.96.54-1.23,1.08-.1.19-.19.45-.29.76-.2.57-.44,1.28-.92,2.08-.28.43-.64.92-1.17,1.39-.53.46-1.14.81-1.87,1.07-1.24.45-2.9.39-4.8-.19l-.82-.24c-.51-.15-.99-.3-1.47-.42-.69-.19-1.42-.39-2.11-.49-1.48-.26-2.61.22-3.44.72-.19.12-.38.22-.55.33-.33.19-.65.37-.92.6-.23.2-.45.43-.68.68-.29.31-.59.64-.96.92-.58.43-1.3.91-2.24,1.15-.84.22-1.79.2-2.92-.06-1.77-.43-3.61-1.41-5.78-3.06-.81-.62-1.62-1.31-2.56-2.16l-.53-.49c-.6-.56-1.17-1.09-1.73-1.69-1.3-1.39-2.23-3.14-2.47-4.68-.18-1.07-.08-1.99,0-2.73.03-.23.05-.45.06-.64.02-.24,0-.48-.03-.73l-.03-.24c-.11-1.27-.33-2.96-1.03-4.7-.6-1.5-1.64-3.12-3.21-4.93l-1.38-1.54c-2.25-2.52-4.38-4.89-5.75-6.81-.28-.38-.51-.75-.73-1.1-.24-.37-.45-.71-.68-1-.31-.4-.69-.82-1.1-1.27-.47-.52-1.01-1.12-1.53-1.79l-.4-.51c-.55-.71-1.13-1.46-1.77-2.22-.86-1.04-1.81-1.89-2.9-2.62-1.83-1.25-4.11-2.1-6.53-2.99-.59-.22-1.19-.44-1.79-.67-1.79-.7-3.18-1.37-4.36-2.12-1.28-.82-2.44-1.75-3.54-2.82-1.9-1.85-3.4-4.09-4.24-6.29-.8-2.08-.97-3.84-.97-4.95,0-.15-.04-.85-.07-1.09-.09-.96-.14-2.04-.2-3.19-.03-.64-.07-1.31-.11-2-.13-1.86-.37-4.03-1.25-6.05-1.81-4.12-5.54-6.53-7.78-7.98-.34-.21-.65-.42-.95-.62-.56-.37-1.04-.69-1.51-.93l-.15-.05c-.99-.33-3.44-1.32-4.77-3.47-.59-.94-1.32-2.22-1.74-3.73-.39-1.34-.71-2.82-.98-4.55-.31-1.97-.52-4.05-.74-6.24-.14-1.4-.28-2.83-.46-4.27-.44-3.79-1.24-7.21-2.37-10.17-1.01-2.71-2.2-5.06-3.25-7.14l-.34-.67c-1.11-2.14-2.03-4.1-2.64-5.6l-.31-.51c-.27-.45-.57-.93-.92-1.44-.67-.96-1.44-1.89-2.55-2.21-.38-.13-.79-.17-1.26-.23-.23-.03-.48-.06-.76-.1-.64-.08-1.51-.45-2.07-1.12-.24-.25-.51-.72-.62-1.11-.12-.38-.19-.77-.24-1.26-.05-.5-.07-.98-.09-1.46-.01-.37-.03-.72-.05-1.07-.02-.34-.08-.82-.19-1.21-.1-.33-.26-.73-.47-1.19-.38-.83-.87-1.67-1.29-2.4-.5-.85-.99-1.69-1.39-2.54-.43-.88-.86-1.78-1.28-2.69-.79-1.74-1.55-3.56-2.26-5.39-.66-1.72-1.35-3.34-2.11-4.97-1.1-2.36-2.21-4.52-3.2-6.42-.32-.61-.62-1.2-.91-1.77-.63-1.2-1.12-2.32-1.56-3.3-.46-1.04-.86-1.93-1.28-2.62-.04-.07-.09-.12-.17-.2-.43-.51-1.06-1.29-1.65-2.26-.37-.58-1.05-1.77-1.33-3.24-.19-.91-.23-1.81-.26-2.62-.01-.28-.03-.54-.04-.78-.07-.98-.31-1.72-.81-2.47-.28-.4-.51-.78-.7-1.1-.16-.28-.31-.51-.43-.69-.35-.48-.83-.97-1.39-1.54-.54-.55-1.16-1.17-1.77-1.91-1.6-1.98-2.83-3.91-3.77-5.89-.24-.5-.54-1.16-.82-1.87-.13-.32-.25-.65-.36-.98l-.05-.18c-.09-.29-.16-.53-.24-.99-.11-.62-.04-1.15.19-1.45.23-.31.62-.45,1.11-.33.23.05.51.17.82.34.25.14.35.21.56.36.33.23.63.47.92.72,2.07,1.78,3.63,3.88,5,5.73l.59.79c.69.91,1.5,1.95,2.33,2.83.94,1,1.75,1.61,2.45,1.86.84.32,1.62.12,2.31-.62.38-.42.89-1.07,1.09-1.74.09-.29.16-.64.25-1.06.09-.45.2-.99.37-1.58.15-.56.34-1.18.54-1.84.55-1.83,1.18-3.9,1.54-6.18.61-3.67-.16-6.64-.68-8.08l-.12-.37c-.11-.34-.21-.67-.38-.97-.1-.18-.24-.35-.38-.53-.08-.1-.16-.2-.25-.32-.49-.64-1.02-1.47-1.58-2.35-.78-1.21-1.66-2.58-2.67-3.85-.96-1.15-2.01-1.86-3.18-2.18-1.15-.33-2.34-.4-3.3-.45-.27-.01-.53-.03-.78-.05-.34-.03-.65-.05-.93-.05h-.15c-.42.02-.82.09-1.25.16-.25.04-.51.09-.87.13-.94.11-1.93.21-3.07.18-1.18-.04-2.42-.27-3.62-.68-1.69-.55-3.29-1.45-4.97-2.4-.8-.45-1.6-.9-2.42-1.32-2.84-1.45-5.54-1.99-7.64-1.54-2.4.5-4.36,1.93-5.8,2.99-.34.25-.68.48-1.01.7-.67.44-1.3.86-1.74,1.41-.08.1-.17.23-.27.38-.19.29-.41.61-.78.94-1.13.97-3.39,1.44-5.74,1.13-1.31-.15-2.69-.49-4.09-.99-.61-.22-1.35-.54-2.15-.94-.72-.35-1.47-.67-2.23-.95-2.76-1.04-6.12-1.82-10.55-2.45-2.15-.33-3.99-.66-5.6-1.02-.9-.2-1.78-.41-2.64-.64-.34-.09-.69-.19-1.02-.29-.51-.15-1.01-.3-1.44-.38-.79-.16-1.61-.23-2.4-.3-.77-.06-1.56-.13-2.33-.28-.77-.15-1.49-.4-2.11-.73-.29-.15-.59-.33-.89-.54l-1.41-1.04c-.8-.6-1.49-1.12-2.22-1.57-.69-.43-1.34-.84-2.04-.97-.51-.09-1.07-.11-1.72-.13-.91-.03-1.94-.07-3.09-.31-1.26-.28-2.31-.62-3.29-1.09-1.01-.48-2.1-1.12-3.44-2-.56-.36-1.13-.75-1.7-1.15-1.84-1.27-3.75-2.59-5.93-3.28-1.42-.45-2.92-.54-4.39-.27-.74.14-1.44.33-2.06.56-.76.28-1.47.5-2.07.64-1.27.29-2.5.44-3.58.57-1.39.17-2.6.32-3.64.69-2.11.67-3.62,1.95-4.33,2.92-.59.81-1.1,2.07-1.67,4.09-.55,1.81-.63,3.98-.24,6.6l.08.64c.14,1.08.27,2.19.26,3.41,0,1.25-.25,3-1.43,4.28-1.16,1.27-2.69,1.76-4.01,2.07-1.32.29-2.75.32-4.13.1-2.14-.36-4.19-1.25-6.27-2.72-1.49-1.1-2.47-2.19-3.19-2.99-.29-.32-.54-.6-.75-.8-1.31-1.25-3.63-2.12-7.3-2.71-1.55-.27-3.35-.44-5.83-.55-.9-.04-2.09-.12-3.31-.42-.9-.21-2.18-.66-3.22-1.63-.92-.85-1.53-1.9-2.16-3.08l-.4-.75c-.45-.85-.91-1.72-1.41-2.56-1.21-2.13-3.1-4.01-5.46-5.44-2.24-1.35-4.77-2.24-7.32-2.56-1.21-.15-2.5-.17-3.7-.06-1.22.11-2.4.37-3.54.63-1.05.24-2.28.49-3.52.49h0c-1.08,0-2.22-.21-3.31-.62-.8-.3-1.5-.65-2.17-1l-.62-.32c-.88-.45-1.71-.89-2.5-1.32-2.38-1.31-4.29-2.61-5.83-3.65-.74-.5-1.38-.94-1.95-1.29-.3-.18-.64-.37-1.02-.57-.58-.31-1.25-.66-1.93-1.13-1.56-1.11-3.11-2.45-3.81-4.66-.34-1.1-.26-2.47.21-3.68.49-1.29,1.28-2.4,1.99-3.32.5-.64,1-1.23,1.49-1.81.31-.37.62-.73.91-1.09.76-.93,1.47-1.96,2.03-2.78.55-.82,1.14-1.78,1.36-2.69.23-.86.09-1.66-.42-2.49-.5-.76-1.02-1.54-1.8-1.91-.13-.06-.26-.09-.37-.11-.06-.01-.13-.03-.18-.04l-.18-.07c-.51-.21-1.14-.46-1.71-1.31-.27-.42-.35-1.12-.2-1.71.14-.58.47-1.19.95-1.75.47-.56,1.02-1.06,1.55-1.54.52-.48,1.02-.93,1.45-1.43.49-.58.79-1.14.9-1.69.15-.62.04-1.34-.14-1.75-.21-.49-.56-.78-1.13-.95-.42-.11-.96-.14-1.53-.09l-.34.04c-.82.09-1.53.17-2.05.39-.09.04-.18.08-.28.13-.18.09-.36.19-.6.24-.45.1-1.08,0-1.6-.27-.54-.27-1.1-.73-1.76-1.42-1.02-1.15-2.18-2.44-3.68-2.44-.33,0-.67.07-.97.19-.85.31-1.73.91-2.7,1.84-.16.15-.33.3-.49.46-.7.66-1.48,1.42-2.54,1.95-.62.31-1.33.5-2.01.52-.61.03-1.2-.03-1.94-.19-.82-.19-1.56-.43-2.28-.67-.38-.13-.74-.25-1.1-.36-1.84-.54-3.77-.71-5.32-.84l-1.64-.12-.74.02c-1.41.05-3.34.11-5.56.55-1.58.34-2.79.76-3.9,1.37-.29.14-.59.3-.89.46-1.1.58-2.24,1.18-3.73,1.4-1.94.23-3.79-.53-5.4-1.19l-.33-.14c-1.62-.66-3.3-1.35-5.02-1.53-1.98-.22-3.92.28-5.49.78l-5.14,1.58c-3.62,1.11-6.52,1.8-8.88,2.11-2.27.3-4.4.36-6.38.16h-.12c-1.58.03-3.74.07-6.23.64-2.89.65-5.91,2.33-8.73,4.86-1.29,1.13-3.02,2.15-5.27,3.13l-.6.26c-.77.34-1.54.68-2.3,1.04-.48.23-.96.49-1.42.75-.43.24-.85.53-1.31.88-.64.5-1.23,1.05-1.86,1.63-.97.9-1.98,1.83-3.17,2.54-.95.58-2.04.95-3.07,1.05-.99.1-1.95.02-3.06-.24-1.02-.25-1.94-.56-2.84-.87-.83-.29-1.62-.55-2.39-.74-.83-.21-1.64-.31-2.39-.31-.74.01-1.54.13-2.24.24l-.61.11c-2.23.42-4.17.79-5.62.79-.19,0-.37,0-.55-.02-.29-.01-.55-.04-.79-.08h-.06s-.06,0-.06,0c-.66.06-1.44.03-2.16-.11-1.03-.2-2.15-.68-3.23-1.38-.91-.58-1.85-1.37-2.77-2.13l-.58-.49c-1.01-.8-2.54-1.87-4.11-1.96-1.41-.13-2.75.82-3.85,2.69-.89,1.48-1.58,3.22-2.32,5.18l-.43,1.14c-.55,1.48-1.07,2.88-1.72,4.26-.8,1.67-1.87,3.24-3.1,4.53-2.4,2.51-5.17,4.03-7.57,5.18-2.36,1.11-4.26,1.84-5.66,2.37l-.62.23-.12.06c-1.29.85-3.27,2.42-5.38,5.1-1.19,1.5-2.22,3.08-3.05,4.69-.23.45-.45.91-.65,1.39l-.58,1.47c-.37.9-.83,1.84-1.49,3.04-.3.56-.62,1.11-.94,1.67-.85,1.47-1.72,3-2.36,4.62-.38.98-.77,2.17-.74,3.51,0,1.17.23,2.35.53,3.77.25,1.21.54,2.58.55,3.96.03,1.29-.28,2.69-.84,3.86-1.12,2.38-2.67,4.27-4.17,5.96-1.55,1.73-3.12,3.23-4.6,4.62-1.38,1.31-2.86,2.67-4.3,3.7-2.92,2.12-5.55,3.2-7.25,3.73-.66.21-1.27.37-1.86.49-1.16.36-2.42.78-3.8,1.37-1.34.59-2.43,1.24-3.35,1.99-1.25,1.04-2.04,2.2-2.44,3.54-.28.86-.41,1.81-.56,2.81-.1.67-.2,1.38-.35,2.11-.39,1.94-1.33,3.69-2.64,4.93-1.41,1.34-3.09,2.17-4.57,2.89l-.37.18c-1.5.72-2.91,1.4-4.12,2.24-1.38.94-2.42,1.98-3.08,3.11-.62,1.04-1,2.23-1.16,3.67-.18,1.82-.07,3.41.02,4.68l.05.33c.08.21.16.44.24.72.19.67.69,3.06-.75,5.69-.58,1.09-1.48,2.2-2.6,3.19-1.2,1.07-2.66,1.92-3.93,2.61l-.69.38c-1.24.67-2.51,1.36-3.66,2.23-1.62,1.21-2.63,2.56-3.09,4.11-.29.9-.42,1.86-.56,2.88-.11.83-.23,1.68-.44,2.53-.22.94-.57,1.84-1,2.54-.41.69-.9,1.35-1.56,2.07-.6.66-1.21,1.24-1.79,1.81-.53.52-1.04,1.01-1.49,1.5-1.03,1.11-1.75,2.18-2.19,3.29-.66,1.65-.82,3.22-.9,4.73l.06.91c.05.66.13,1.38.4,2.11.27.77.8,1.51,1.61,2.28.35.34.76.69,1.19,1.06,1.34,1.14,2.87,2.44,3.88,4.5.58,1.22.88,2.76.85,4.47,0,.82-.11,1.71-.31,2.4-.21.78-.49,1.51-.81,2.31-.59,1.47-1.2,2.98-1.15,4.34,0,.59.17,1.24.52,1.99.3.64.73,1.25,1.11,1.76.8,1.05,1.65,2.31,1.85,3.63.22,1.29,0,2.43-.2,3.43l-.02.1c-.27,1.18-.82,2.79-1.64,4.77-.07.17-.11.27-.11.28-.24.94-.2,2.16-.15,3.69l.03,1.2c0,.95,0,1.99-.04,3.12-.05,1.17-.23,2.44-.53,3.76-.58,2.53-1.58,5.27-3,8.12-1.16,2.36-2.57,4.71-4.42,7.4-1.52,2.21-2.95,4.29-2.46,6.13.21.98.77,1.8,1.18,2.34.2.27.41.5.6.73l.1.09c.41.29.85.65,1.3,1.07.54.53,1.29,1.26,1.79,2.42.24.57.36,1.23.34,1.88-.02.77-.21,1.54-.38,2.13-.19.68-.43,1.37-.67,2.08-.28.83-.57,1.69-.81,2.58-.52,2-.66,3.77-.41,5.42.26,1.85,1.12,3.71,2.48,5.37,1.37,1.7,3.19,3.21,4.79,4.46.69.54,1.37,1.06,2.06,1.58,1.07.81,2.18,1.65,3.22,2.52,1.5,1.26,2.97,2.68,4.51,4.34,2.74,2.96,4.96,5.81,6.74,8.1l1.72,2.24c.93,1.21,1.72,2.25,2.4,3.14.22.24.47.51.75.83.85.99,2.42,2.85,3.94,5.47.67,1.18,1.4,2.61,1.82,4.35.26,1.13.38,2.29.52,3.52.06.6.13,1.2.21,1.8.29,2.24.91,3.93,1.93,5.29,1.09,1.57,2.69,2.68,4.9,3.4.52.18,1.07.34,1.62.51,1.49.45,3.02.92,4.41,1.73.95.53,1.82,1.27,2.4,2.05.68.87,1.13,1.8,1.49,2.59.19.42.36.84.53,1.24.54,1.3,1.06,2.53,1.77,3.5.92,1.29,2.27,2.18,3.47,2.92.55.33,1.09.62,1.62.91.61.33,1.19.65,1.72.98.73.45,1.38.93,2,1.5.79.53,3.06,2.71,5.73,5.29,1.99,1.89,4.16,3.88,6.77,5.77,2.47,1.75,5.8,3.82,9.69,4.36.76.11,1.54.17,2.34.17h0c2.47,0,5.07-.52,8.18-1.63,1.57-.56,3.04-1.17,4.41-1.75l3.87-1.57c1.45-.59,2.73-1.02,3.86-1.4.92-.31,1.72-.58,2.34-.84.46-.2.91-.46,1.39-.74.43-.25.88-.51,1.38-.75.75-.36,1.91-.88,3.26-1.26,1.25-.33,2.72-.59,4.12-.31,1.48.32,2.72,1.32,3.8,2.2l.11.09c1.09.89,2.38,1.83,3.93,1.85.69.03,1.38-.05,2.24-.27l.49-.13c.59-.16,1.2-.32,1.86-.38.79-.08,1.61.01,2.37.24.44.14.8.28,1.14.41.31.12.6.23.91.33,2.71.94,5.19,1.28,7.19.99.99-.13,1.97-.39,3.08-.84.23-.14.5-.29.84-.49l.15-.08c.67-.38,1.5-.89,2.5-1.5.63-.39,1.33-.82,2.1-1.28,1.2-.72,2.25-1.27,3.3-1.74.59-.27,1.19-.58,1.83-.91.62-.32,1.28-.66,1.98-.99,1.29-.6,2.86-1.21,4.66-1.29.58.01,1.07.1,1.5.18.37.07.71.12,1.02.14.45.03.75-.02,1.02-.15.29-.14.53-.34.78-.67.18-.22.34-.5.51-.82.24-.43.52-.91.93-1.37.31-.33.7-.59,1.19-.81.39-.17.85-.28,1.32-.32.31-.02.59-.03.86-.03h.59c.34,0,.66,0,.93-.05.77-.09,1.44-.44,1.98-.77.18-.11.37-.23.56-.35.43-.27.88-.55,1.37-.79.75-.37,1.55-.49,2.09-.53.81-.06,1.55-.03,2.22,0,.54.02,1.08.04,1.49.02.76,0,1.47-.17,2.16-.33.28-.06.56-.13.84-.18.47-.1.91-.18,1.35-.25,1.56-.33,3.48-.67,5.93-.71h.28c1.26,0,2.58.12,3.94.36,1.72.32,3.27.9,4.61,1.72,1.44.86,2.81,2.15,3.97,3.74,1.18,1.6,2.13,3.41,2.93,4.99l.46.92c.73,1.45,1.42,2.83,2.18,4.13.81,1.38,1.81,2.96,3.08,4.17,1.98,1.98,4.66,3.1,7.96,3.33,2.95.21,4.75.19,6.12-.06.32-.06.72-.19,1.14-.33l.49-.16c1.81-.57,3.52-1.18,5.21-1.85,1.04-.39,2.07-.75,3.26-.91.26-.04.54-.06.83-.06.77,0,1.89.15,2.84.86.95.69,1.49,1.6,1.96,2.4.11.18.21.35.3.49.59,1.04,1.17,1.68,2.06,2.3.44.31.91.59,1.38.87.38.22.76.45,1.13.7.74.47,1.46,1.15,1.92,1.81.46.66.79,1.34,1.09,2.21l.07.1c.47.59.89,1.61,1.12,2.74.13.63.24,1.31.35,2.07.05.31.11.8.1,1.19,0,.39-.04.8-.1,1.27-.27,1.78-.91,3.62-1.55,5.33-.52,1.34-1.04,2.62-1.53,3.81-.86,2.09-1.61,3.9-2.03,5.41-.32,1.12-.43,2.08-.32,2.77l.02.14.09.11c.24.3.62.61,1.09.98.25.21.51.42.78.75.09.11.22.35.32.58.08.17.16.34.22.57.09.32.11.58.04.77-.04.1-.1.2-.19.29-.07.07-.14.13-.2.18-.06.05-.12.1-.16.16-.27.32-.34.82-.34,1.17-.03,1.01.4,1.77,1.05,2.92.16.3.53,1.07.48,1.9-.03.63-.21,1.24-.59,1.95-.25.46-.56.87-.84,1.23-.11.14-.21.27-.3.4-.45.62-.67,1.11-.7,1.56-.05.37-.02.76,0,1.22.01.22.03.46.03.71,0,.29,0,.69-.1,1.07-.1.38-.21.67-.4,1-.58.99-1.39,1.58-2.1,2.11-.24.17-.46.34-.64.49-.72.56-1.46,1.3-1.46,2.46-.02.93.39,1.84.8,2.61.38.69.76,1.31,1.11,1.88.36.59.68,1.1.94,1.61l.11.15c.72,1.02,1.71,2.41,3.03,4.08l2.21,2.86c.78,1.03,1.66,2.11,2.6,3.2.69.8,1.42,1.63,2.18,2.48,1.33,1.49,2.7,3.04,4.06,4.73,1.13,1.42,2.1,2.78,2.87,4.07.75,1.2,1.58,2.34,2.39,3.44l.21.29c1.61,2.18,3.27,4.43,4.49,6.36.19.3.36.6.52.89.2.35.38.68.59,1,.15.22.32.45.49.68.36.49.73.99,1.06,1.6.5.92.87,1.88,1.11,2.84.06.27.12.56.16.83l.06.48c.01.08.02.32,0,.45-.07.55-.25.98-.43,1.4-.06.14-.11.27-.15.39-.01.02-.22.54-.23.9l.04.26h0c.15.71.66.99,1.04,1.2.17.1.34.19.47.3.22.21.56.53.69,1.04.09.36.15.73.16,1.1.03.66-.05,1.29-.12,1.9l-.03.24c-.16,1.19-.22,2.47.42,3.75.47,1.02,1.11,2,2.02,3.1.4.49.82.96,1.24,1.43,1.1,1.24,2.14,2.41,2.78,3.67.99,1.88.96,3.55.91,4.19,0,.1-.03.19-.04.28-.03.16-.05.3-.05.41,0,.16.04.31.07.48l.02.1c.22,1.23.94,2.77,2.24,4.83.56.94,1.18,2.04,1.61,3.39.2.57.37,1.43.23,2.14-.11.67-.36,1.36-.8,2.15-.32.58-.69,1.14-1.04,1.69-.5.77-.98,1.5-1.34,2.29-.36.78-.53,1.51-.5,2.19.03.68.2,1.47.5,2.35.6,1.7,1.45,3.31,2.28,4.86.7,1.31,1.36,2.55,1.88,3.85,1,2.41,1.56,5.04,1.66,7.8.01.38.01.74.01,1.08,0,.33,0,.66,0,.97,0,.21.02.44.04.7.02.32.05.67.06,1.06.03.93.05,2.04-.06,3.36-.12,1.54-.47,3-1.03,4.34-.62,1.49-1.56,3.06-2.8,4.67-.96,1.25-2.1,2.42-3.3,3.65l-.91.94c-1.48,1.54-2.98,3.27-3.92,5.38-1.04,2.19-1.2,4.66-1.21,7.01v.96c0,2.14,0,4.36-.46,6.46-.2.97-.51,1.85-.81,2.7l-.24.69c-.39,1.09-.79,2.13-1.19,3.15l-.8,1.99c-1.34,3.34-2.5,6.22-3.26,8.85l-.08.26c-.33,1.09-.63,2.12-.77,3.11-.15,1.05-.22,2.62-.22,4.93v3.2c0,1.31.11,2.49.34,3.59.52,2.76,2.1,5.46,3.42,7.5l.31.5c1.51,2.37,2.93,4.61,3.88,6.9.97,2.33,1.55,4.45,2.06,6.33l.07.26c.08.32.15.62.22.92.15.63.29,1.22.48,1.76.39,1.09,1.03,2.35,1.77,3.82l.55,1.1c1.09,2.12,2.64,4.91,4.91,7.63.66.82,1.37,1.66,2.11,2.52,1.66,1.94,3.37,3.94,4.92,6.28,1.24,1.88,2.08,3.63,2.58,5.34.5,1.62.66,3.48.5,5.5-.2,2.36-.71,4.46-1.17,6.32-.23.96-.45,1.86-.61,2.7-.54,2.49-.69,4.26-.47,5.57.1.6.34,1.16.61,1.75l.05.12c.25.63.54,1.28.84,1.97.23.52.47,1.06.71,1.62.55,1.36.95,2.84,1.19,4.41.29,1.8.35,3.68.42,5.66.05,1.51.11,3.07.27,4.62.19,1.84.54,3.46,1.1,5.11l1.45,4.76c1.03,3.38,2,5.84,3.06,7.76,1.33,2.43,2.61,4.2,3.69,5.12.53.45,1.18.89,1.92,1.39.92.63,1.97,1.34,3.04,2.25,2.18,1.9,4.6,4.3,6.05,7.76,1.17,2.7,1.47,5.87,1.76,8.94.09.97.18,1.95.3,2.91.28,2.24.76,4.16,1.47,5.88.75,1.75,1.94,3.37,2.99,4.8.36.49.73.98,1.08,1.45,1.75,2.32,3.39,4.52,4.27,6.77.54,1.37.63,2.72.25,3.72-.4,1.1-1.2,1.73-1.75,2.1-.26.16-.51.28-.73.39-.15.07-.28.14-.4.2-.41.23-1.44.88-1.96,2.02-.54,1.19,0,2.95,1.26,4.08.28.27.59.54.92.83.39.33.81.69,1.23,1.11.31.31.7.75,1.01,1.34.27.47.41,1.21.33,1.75-.11.76-.35,1.37-.57,1.9-.17.41-.31.77-.36,1.09-.13.57-.11,1.41.75,2.21.58.51,1.39.88,2.16,1.21l.48.2c.56.23,1.11.46,1.62.71,1.03.49,2.27,1.74,2.65,2.17,1,1.01,2.83,1.76,4.78,1.94.18.02.36.02.54.02.99,0,1.98-.23,2.95-.68.87-.41,1.77-1.02,2.73-1.67l.83-.56c.57-.38,1.29-.85,2.16-1.1.71-.21,1.56-.27,2.53-.24.46,0,.93.06,1.38.1.39.04.76.07,1.1.09.88.04,1.7-.03,2.4-.22.79-.21,1.59-.62,2.44-1.06.68-.35,1.39-.71,2.13-.98,1.39-.58,3.06-.95,4.69-1.04,2.77-.14,5.19.19,7.28.48l.72.1c.41.07.8.13,1.18.2,1.12.2,2.1.37,3.04.37h0c.28,0,.62-.03,1.01-.06.51-.04,1.11-.08,1.8-.09h.64c.98-.03,2.08-.04,3.26-.13.63-.05,1.45-.14,2.26-.35l.17-.05c.12-.03.23-.07.34-.12.12-.06.28-.14.43-.24.26-.17.54-.4.89-.75l.31-.3c.51-.5,1.04-1.01,1.81-1.31.75-.24,1.51-.24,2.49-.16l.19.02c.72.07,1.36.12,1.83.06.26-.02.6-.1.91-.17.29-.07.57-.15.82-.23.76-.25,1.38-.46,1.71-.84.3-.3,1.34-1.23,2.18-1.54,1-.38,2.22-.6,3.52-.84l.25-.05c.82-.15,1.42-.3,2.15-.54.87-.26,1.6-.51,2.28-.77,2.02-.76,3.66-1.92,5.1-2.94.73-.51,1.41-1,2.05-1.36,2.2-1.24,4.99-4.67,7.03-7.17l.13-.16c2.35-2.91,4.49-5.42,6.53-7.65,4.87-5.32,9.09-10.05,11.55-14.02l.36-.52c1.3-1.91,2.33-3.41,2.89-4.51.16-.32.32-.67.49-1.03.28-.62.57-1.27.96-1.93.64-1.08,1.4-2.12,2.26-3.1.65-.75,1.38-1.43,2.16-2.16.32-.3.64-.6.96-.91,2.28-2.17,4.64-4.54,6.35-7.47,1.65-2.78,2.54-5.71,3.41-8.54l.19-.61c1.01-3.27,1.56-5.77,1.74-7.88.23-2.48.08-4.3-.08-5.4l-.03-.22c-.12-.8-.25-1.71-.18-2.76.09-1.56.72-3.11,1.73-4.27,1.12-1.35,2.75-2.29,4.59-3.29,1.56-.84,3.43-1.71,5.87-2.72l1-.42c1.8-.75,3.65-1.52,5.37-2.55,2.21-1.31,3.91-3.09,5.05-5.27,1.32-2.48,1.94-5.24,2.29-7.1.45-2.41.76-4.77.93-7,.3-4.05.07-8.06-.68-11.91-.24-1.26-.48-2.34-.71-3.3l53.14-13.89,21.63,16.97c-.35,1.15-.51,2.35-.46,3.6.03.8.11,1.43.35,2.12.21.61.52,1.25,1.01,2.08.22.37.45.75.69,1.14.65,1.05,1.33,2.13,1.81,3.45.73,1.99.51,4.2.29,5.68-.06.41-.13.82-.19,1.21-.24,1.47-.47,2.86-.42,4.2.08,1.8.35,3.46.79,4.96,1,3.44,2.99,5.79,4.48,7.16,1.44,1.33,2.86,2.27,4.05,3.01l.18.08c.26.11.53.21.83.33.75.28,1.9.65,3.14.67h.16c1.08,0,2.25-.31,3.59-.93.36-.17.71-.34,1.07-.52.88-.44,1.79-.89,2.7-1.19,1.13-.39,2.41-.53,3.4-.42.32.04.61.12.87.2.27.08.51.14.74.17.13.02.27.03.41.03.8,0,1.64-.28,2.43-.59,1.67-.63,3.18-2.03,4.26-3.94.99-1.71,1.79-3.9,2.5-6.89.46-1.98.82-3.91,1.16-5.78.52-2.81,1.01-5.46,1.75-7.5.34-1.17.77-2.15,1.12-2.94.15-.34.28-.64.39-.92.26-.67.47-1.41.68-2.19.18-.65.36-1.33.6-2.04,1.03-3.06,2.47-6.71,3.61-9.55l2.22-5.59c.69-1.76,1.52-3.71,2.55-5.96.66-1.45,1.32-2.87,1.97-4.26,1.16-2.49,2.25-4.84,3.21-7.09.87-2.03,1.5-3.63,2.01-5.04l1.57-4.46.35-.95c.7-1.88,1.3-3.5,1.22-4.91-.02-.26-.07-.55-.14-.87-.08-.37-.16-.75-.18-1.19-.13-1.8.34-4.37,1.37-7.45l.25-.75c.81-2.39,1.5-4.46,1.35-6.2-.02-.21-.08-.43-.14-.67-.03-.12-.07-.25-.09-.37-.14-.74-.32-1.75-.38-2.91-.03-.54-.03-1.14.07-1.8.05-.32.11-.63.29-1,.18-.35.39-.64.66-.89.58-.56,1.31-.81,1.81-.96.36-.1.69-.17,1-.24.24-.05.47-.1.67-.16,1.06-.27,1.72-.7,2.2-1.46.26-.41.52-.83.58-1.31.05-.39-.04-.76-.13-1.11l-.51-2.48c-.1-.5-.15-.97-.2-1.46-.04-.36-.08-.73-.13-1.1-.23-1.82-.55-3.77-.94-5.81-.7-3.51-1.47-6.69-2.09-9.24-.37-1.51-.67-2.78-.88-3.74l-.04-.15c-.07-.29-.14-.6-.23-.93-.19-.75-.51-1.87-1.03-3.03-.63-1.38-1.37-2.38-2.22-2.98-1.07-.74-2.11-.68-3.09.19-.79.72-1.32,1.71-1.73,2.59-.11.24-.21.47-.31.68-.25.53-.47.99-.56,1.41-.06.25-.09.54-.13.85-.06.51-.13,1.1-.35,1.72-.17.47-.5,1.17-1.1,1.8-.52.56-1.2,1.02-1.89,1.46-1.66,1-2.78,2.11-3.65,3.57-.87,1.42-1.45,2.94-2.01,4.41l-.14.38c-.5,1.33-1.1,2.84-1.78,4.02-.34.59-.73,1.06-1.07,1.47-.23.28-.44.53-.6.77-.41.62-.73,1.35-1.07,2.12-.35.8-.71,1.62-1.22,2.46-1.33,2.16-3.69,5.27-7.39,7.75-2.85,1.92-6.46,2.94-9.95,3.92-.78.22-1.56.44-2.33.67-2.64.8-4.52,1.61-6.06,2.61-1.71,1.1-3.14,2.56-4.22,4.34-2.08,3.18-3.35,6.56-3.67,9.76l-.04.38c-.14,1.22-.27,2.37-.03,3.43.03.13.07.28.11.43l-46.66-14.25s.02-.01.03-.02c4.25-3.67,8.65-7.8,11.97-13.14,1.68-2.7,2.9-5.53,3.63-8.39.68-2.56.97-5.26.92-8.5-.06-3.83-.45-7.45-.8-10.65-.15-1.38-.29-2.7-.4-3.96-.37-3.82-.46-7.33-.25-9.89.04-.6.1-1.12.16-1.67-.05-.88-.11-1.85-.17-2.9-.03-.46-.06-.93-.09-1.41-.12-2.29-.27-4.9-1.3-7.46-.76-2.13-2.15-4.12-3.62-6.22-.73-1.04-1.48-2.12-2.19-3.26-1.07-1.74-1.89-3.55-2.45-5.36-.54-1.86-.74-3.6-.93-5.28v-.13c-.33-3.19-.37-6.37-.13-9.19.22-2.47.67-4.6,1.28-6.01.17-.41.37-.78.58-1.09l.07-.13c.52-1.52.99-3.53-.06-5.66-.28-.65-.65-1.35-1.03-2.09-.36-.7-.74-1.44-1.09-2.21-.37-.72-.84-1.44-1.43-2.18-.16-.2-.33-.39-.5-.6-.43-.5-.88-1.03-1.28-1.7-.5-.82-.77-1.95-.71-3.08.02-.5.07-1.02.18-1.61.07-.46.23-1.04.45-1.58.89-2.17,2.44-3.95,3.8-5.51.29-.33.58-.65.86-.98,1.22-1.37,2.37-2.66,3.17-4.07.89-1.56,1.74-3.29,2.66-5.44.48-1.12.93-2.21,1.36-3.26.94-2.27,1.82-4.42,2.74-6.24,1.47-3,2.95-4.99,3.98-6.2.56-.95,1.24-1.91,2.02-2.85.62-.76,1.32-1.55,2.07-2.4l.1-.11c.33-.38.71-.81,1.14-1.19.41-.37.89-.74,1.51-1.17l.44-.3c.97-.65,1.88-1.27,2.62-2.09.84-.85,1.34-2.05,1.87-3.32l.12-.3c.14-.34.28-.68.41-1.03.39-.98.79-2,1.29-2.95.72-1.18,1.42-2.04,2.17-2.96l.28-.35c1.28-1.53,2.52-2.87,3.6-4.05l.92-1.01c1.06-1.14,1.91-2.12,2.58-2.88.31-.36.58-.67.86-.99,2.88-4.26,6.33-8.25,10.25-11.85,2.74-2.52,5.76-4.93,8.97-7.17,3.91-2.75,7.29-5.4,10.33-8.08,3.73-3.28,7.1-6.79,10.02-10.42,3-3.71,5.91-8.05,8.64-12.89,3.27-5.75,5.96-11.56,8.57-17.17,1.6-3.46,3.12-6.72,4.71-9.86,4.41-8.9,7.73-16.15,9.61-22.59,1.62-5.36,2.52-10.85,2.69-16.33.08-2.7.05-4.56.04-5.46ZM601.06,290.91s.06-.03.09-.05c.99-.6,1.62-.75,2.67-.57.65.09,1.34.28,2.01.47.48.12.95.26,1.44.41l.82.24c2.13.65,4.04.7,5.49.17.85-.3,1.6-.72,2.23-1.28.63-.56,1.06-1.15,1.38-1.63.56-.92.83-1.72,1.03-2.31.09-.25.16-.47.24-.63.12-.23.45-.42.83-.64.5-.28,1.19-.39,1.9-.26.7.12,1.36.52,2.34,1.23.47.32,1.11.76,1.91,1.04.79.29,1.77.36,2.61.2.21-.03.41-.08.61-.14.27-.07.58-.2.83-.35.46-.27.77-.58,1.07-.87l.37-.39c.32-.34.59-.63.82-.78.15-.1.19-.11.28-.12.12,0,.28.02.46.05l.33.06c.57.11,1.45.22,2.1.08,1.66-.26,3.05-1.14,3.94-1.83,1.76-1.45,3-2.04,4.31-2.04.11,0,.22,0,.37.01h.76c.67,0,1.46-.05,2.18-.48.59-.38.87-.87,1.08-1.22.06-.11.12-.21.19-.3.18-.25.51-.5.9-.79.19-.14.38-.29.57-.44.23-.18.52-.38.81-.55l-53.16,54.11c-.47-.4-1.04-.7-1.67-.84l5.86-39.55ZM580.88,286.9c.58.63,1.16,1.17,1.78,1.75l.53.49c.96.88,1.8,1.58,2.64,2.22,2.3,1.75,4.26,2.78,6.2,3.26,1.32.31,2.45.32,3.46.06,1.14-.29,2-.87,2.64-1.35.44-.35.79-.72,1.09-1.05.2-.22.39-.42.59-.59.17-.14.39-.27.64-.42l-5.8,39.12c-.1,0-.19-.03-.29-.03-.9,0-1.72.32-2.38.84l-36.61-40.53,25.49-3.8s.02.02.03.03ZM518.12,602.53c-1.69,1.04-3.52,2.2-5.44,3.55-1.3.9-2.62,1.94-3.91,2.95l-.7.54c-1.49,1.16-3.18,2.48-4.82,3.9-2.29,1.97-4.11,3.81-5.55,5.62l-13.63-2.16-.49-38.26c1.01-.09,1.9-.54,2.54-1.25l32,25.11ZM486.47,576.99c.16-.24.29-.51.4-.78l47.24,14.42c-2.97,2.5-5.84,4.7-8.4,6.65l-4,3.05-2.34,1.44c-.24.15-.49.3-.74.45l-32.16-25.23ZM445.2,716.51l-29.85-19.09,24.34-37.19c.56.31,1.2.51,1.88.51,0,0,.02,0,.03,0l4.38,55.6-.78.18ZM446.02,716.9v.15s-.17-.12-.17-.12l.17-.04ZM391.19,729.2l-36.52,13.29,4.59-26.82,7.28-5.17,24.96,15.81c-.29.55-.48,1.17-.48,1.83,0,.37.07.72.17,1.06ZM321,681l4.24-25.12,35.94,9.77c-.1.45-.16.91-.16,1.38,0,.83.17,1.63.46,2.35l-34.21,15.59-6.27-3.97ZM326.67,685.25l-6.91,3.15,1.15-6.8,5.77,3.65ZM207.67,68.42l-40.5,27.61-11.67-33.59,51.63,4.01s0,.02,0,.02c0,.71.21,1.37.54,1.95ZM398.85,686.87l-26.08-16.68c.54-.93.85-2,.85-3.15,0-.19-.01-.39-.03-.58l29.09-3.99-2.91,23.75-.92.66ZM399.68,686.96l-.05.41-.28-.18.33-.23ZM317.76,408.27c.79-.4,1.43-1.05,1.8-1.86l35.25,13.02.37,20.3-19.05,12.68-18.35-44.14ZM335.64,452.73l-13.48,8.98-5.46-53.07c.19-.03.37-.09.55-.15l18.39,44.25ZM248.81,235.71l-42.33-32.82c.34-.51.55-1.12.61-1.76l49.22,1.45-2.88,31.47-4.61,1.67ZM253.37,234.65l-.39,4.29-3.65-2.83,4.04-1.46ZM77.56,210.3c.54-.35.98-.83,1.29-1.39l43.14,20.05-2.24,23.86-14.23,8.93-27.96-51.45ZM105.05,262.05l-20.79,13.05-12.13-3.06,3.4-61.13c.55,0,1.07-.13,1.54-.35l27.98,51.49ZM563.97,344.85l-45.5,16.3,1.08-31.95,32.95,2.35,11.47,13.3ZM553.28,331.6l37.19,2.66c0,.36.07.71.16,1.04l-26.1,9.35-11.25-13.05ZM479.47,575.71l-24.75,7.82,3.93-22.41,21.09,12.01c-.24.51-.39,1.07-.39,1.67,0,.31.05.61.12.9ZM402.75,661.89l-29.24,4.01c-.38-2.07-1.76-3.78-3.63-4.62l22.66-57.52,1.59-.5,15.5,2.45-6.88,56.18ZM403.25,662.38l34.52-4.73c.09.44.27.84.49,1.21l-37.88,26.92,2.87-23.39ZM338.82,591.77l22.57-15.25,1.32,21.21-23.4-3.7c0-.11.03-.22.03-.33,0-.71-.2-1.36-.53-1.93ZM300.28,203.31l-43.36-1.28,2.96-32.28,19.8-10.94,20.6,44.49ZM280.16,158.55l9.42-5.21,43.11,48.57c-.6.61-.98,1.42-1.07,2.32l-30.72-.9-20.74-44.78ZM256.36,202.02l-49.24-1.45c-.02-.52-.14-1.01-.35-1.46l52.52-29.02-2.93,31.94ZM256.87,202.59l43.67,1.29,5.2,11.22-51.73,18.74,2.86-31.24ZM301.16,203.89l30.44.9c.01.31.07.6.15.89l-25.48,9.23-5.1-11.01ZM331.92,206.2c.14.33.34.62.57.89l-20.68,19.79-5.31-11.47,25.43-9.21ZM351.37,313.64c-.38.21-.72.48-1.01.8l-71.39-55.35,32.66-31.26,39.74,85.82ZM312.05,227.42l20.81-19.92c.69.62,1.6,1.02,2.6,1.02.11,0,.22-.02.33-.03l16.57,104.77c-.17.04-.33.09-.5.15l-39.82-85.98ZM429.56,202.26l.38,29.65-11.55,12.76-79.32-38.6c.18-.45.28-.93.28-1.45,0-.02,0-.05,0-.07l84.98-7.63,5.22,5.33ZM425.05,196.86l4.43-.4.07,4.99-4.5-4.59ZM420.83,534.9l21.19-27.44,25.3,1.04-9.08,51.76-36.5-20.79c.24-.51.39-1.07.39-1.67,0-1.15-.51-2.18-1.31-2.89ZM461.58,193.03l-31.55,2.83-.19-14.81,31.88,10.92c-.08.32-.14.65-.14.99,0,.02,0,.05,0,.07ZM430.18,250.4l-11.27-5.48,11.04-12.19.23,17.68ZM430.84,286.11c1.34,0,2.58-.42,3.6-1.13l30.42,39.75-37.43-2.67,3.14-35.96c.09,0,.18.01.27.01ZM430.75,251.3l9.34,4.54-7.18,18.03c-.59-.21-1.22-.32-1.87-.34l-.29-22.23ZM471.72,464.67l-52.25,17.66.37-21.84,16.02-11.12,35.89,13.25c-.1.34-.17.7-.17,1.08,0,.34.06.66.14.98ZM393.86,335.45l-4.48-10.09,4.71-5.13,32.74,2.34-2.36,27-30.61-14.11ZM424.42,350.15l-3.71,42.44s-.04,0-.06,0c-.46,0-.9.09-1.31.24l-25.14-56.61,30.22,13.93ZM393.1,335.1l-8.9-4.1,4.77-5.19,4.13,9.29ZM386.87,319.71l6.51.46-4.25,4.63-2.26-5.09ZM394.57,319.71l32.22-35.08c.9.75,2.01,1.26,3.22,1.42l-3.14,35.97-32.3-2.31ZM393.86,319.65l-7.25-.52-6.52-14.68,45.19-21.68c.29.54.66,1.04,1.09,1.47l-32.52,35.4ZM385.99,319.09l-28.85-2.06c0-.5-.1-.98-.28-1.42l22.74-10.91,6.39,14.39ZM357.08,317.58l29.16,2.08,2.48,5.58-5.05,5.5-26.8-12.35c.1-.26.16-.53.21-.81ZM383.81,331.43l9.63,4.44,25.4,57.19c-.16.09-.32.18-.47.29l-43.91-51.74,9.35-10.18ZM418.92,399.94c.42.21.89.35,1.39.39l-.72,42.43-21.36-7.89,20.7-34.93ZM420.13,443.55l15.1,5.58-15.37,10.67.28-16.25ZM435.78,448.75l-15.64-5.78.73-42.62c.75-.04,1.44-.28,2.02-.69l30.22,37.06-17.32,12.03ZM421.27,392.65l3.69-42.25,28,12.91-29.79,30.23c-.53-.45-1.18-.77-1.9-.88ZM453.49,363.55l25.47,11.74-54.75,19.61c-.16-.37-.38-.69-.65-.99l29.93-30.37ZM453.37,362.88l-28.36-13.08,2.37-27.2,37.93,2.71,10.96,14.33-22.9,23.24ZM430.12,202.84l13.59,13.87-13.22,14.6-.37-28.47ZM430.19,251.02l.29,22.51c-1.76.1-3.32.92-4.41,2.17l-20.44-16.12,12.89-14.24,11.67,5.68ZM425.73,276.14c-.74,1.03-1.19,2.3-1.19,3.67,0,.88.18,1.71.51,2.47l-45.17,21.67-4.74-10.68,30.13-33.27,20.47,16.14ZM379.37,304.19l-22.77,10.92c-.16-.28-.34-.53-.56-.76l18.67-20.63,4.65,10.47ZM356.64,318.9l26.64,12.28-9.18,9.99-18.13-21.37c.27-.26.49-.57.67-.91ZM417.93,393.7c-.15.14-.28.31-.4.47l-57.75-36.59,14.3-15.56,43.85,51.69ZM417.59,398.85c.24.31.52.59.85.82l-20.74,35.01-21.83-8.06,41.72-27.77ZM397.94,435.36l21.64,7.99-.29,16.85-59.14,41.07c-.23-.29-.5-.55-.8-.76l38.59-65.15ZM360.72,502.19c-.07-.16-.16-.32-.25-.47l58.81-40.84-.37,21.64-58.19,19.67ZM418.9,483.11l-.39,22.82-57.5-2.36c0-.29-.05-.58-.13-.85l58.01-19.61ZM360.98,504.13l57.52,2.36-.47,27.43c-1.3.07-2.42.77-3.07,1.8l-55.01-29.35c.57-.6.93-1.37,1.03-2.23ZM417.5,541.6l-6.85,55.86-16.56,5.23-1.06-.17,24.05-61.05c.14.04.27.09.41.12ZM418.05,541.65c.07,0,.13.02.19.02.16,0,.31-.03.47-.05l9.83,50.18-17.32,5.47,6.82-55.62ZM418.59,533.93l.47-27.42,22.28.91-20.95,27.12c-.52-.35-1.14-.56-1.81-.62ZM442.44,506.92l30.88-39.98c.36.24.77.42,1.21.52l-7.1,40.48-24.99-1.02ZM441.76,506.89l-22.69-.93.39-23.03,52.42-17.72c.22.54.58,1,1,1.38l-31.13,40.3ZM471.93,462.1l-35.51-13.12,17.04-11.83,19.35,23.73c-.37.35-.66.76-.88,1.22ZM423.31,399.3c.41-.39.74-.86.95-1.4l58.33,18.33-29.03,20.16-30.25-37.1ZM479.68,375.63l33.82,15.59c-.15.39-.23.81-.25,1.25l-88.76,3.58c-.02-.21-.06-.41-.11-.61l55.3-19.81ZM453.9,363.13l22.71-23.04,21.65,28.29-18.55,6.65-25.8-11.9ZM466.05,325.37l22.69,1.62-12.08,12.25-10.62-13.88ZM465.6,324.78l-30.72-40.14c1.05-.88,1.81-2.1,2.11-3.49l80.2,13.69c-.02.18-.05.35-.05.53,0,.8.24,1.53.65,2.15l-28.53,28.95-23.66-1.69ZM517.3,294.29l-80.22-13.7c.03-.26.05-.52.05-.78,0-1.16-.32-2.24-.87-3.17l20.01-12.92,61.32,29.84c-.12.23-.22.48-.29.73ZM435.97,276.17c-.65-.91-1.52-1.63-2.55-2.09l7.16-17.99,15.11,7.35-19.72,12.73ZM440.29,255.32l-9.55-4.65-.24-18.55,13.6-15.02,8.11,8.28-11.92,29.94ZM444.08,216.29l-13.97-14.26-.07-5.61,31.6-2.84c.13.82.51,1.56,1.08,2.13l-18.64,20.59ZM461.89,191.44l-32.06-10.98-.12-9.64,32.34,20.33c-.05.1-.12.19-.16.3ZM339.29,204c-.06-.35-.16-.68-.3-1l59.36-32.6,25.48,26.01-84.54,7.59ZM418,245.09l-12.81,14.15-66.51-52.43c.05-.08.09-.16.13-.24l79.18,38.53ZM404.82,259.65l-29.94,33.06-37.6-84.67c.39-.21.75-.48,1.04-.81l66.49,52.42ZM374.48,293.17l-18.85,20.81c-.66-.52-1.48-.84-2.39-.84-.11,0-.22.02-.33.03l-16.57-104.77c.15-.04.29-.08.44-.14l37.7,84.9ZM351.99,320.7c.33.11.67.18,1.04.2l.59,32.77-12.3-7.8,10.68-25.18ZM353.59,320.89c.73-.06,1.39-.32,1.95-.73l18.18,21.43-14.41,15.69-5.12-3.25-.6-33.14ZM358.92,357.69l-4.59,4.99-.14-7.99,4.73,3ZM354.48,401.47l-34.63,2.76c-.12-.8-.48-1.52-1.01-2.08l34.96-38.06.67,37.38ZM319.91,404.81s0-.02,0-.03l34.58-2.75.3,16.81-35.05-12.95c.1-.34.17-.7.17-1.08ZM354.35,363.49l5.05-5.5,57.84,36.65c-.3.55-.48,1.17-.48,1.83,0,.01,0,.02,0,.03l-61.73,4.92-.68-37.93ZM416.82,397.06c.07.48.23.92.46,1.33l-42.06,27.99-19.87-7.34-.31-17.06,61.78-4.92ZM374.66,426.76l-18.94,12.61-.35-19.73,19.29,7.12ZM375.3,427l22.11,8.17-38.55,65.07c-.52-.26-1.1-.42-1.73-.42-.11,0-.22.02-.33.03l-1.08-59.82,19.57-13.03ZM357.1,507.58l2.37,38.04-12.56,1.74,9.59-39.84c.19.03.39.06.6.06ZM357.65,507.53c.69-.09,1.33-.37,1.85-.77l55.19,29.45c-.22.48-.34,1.01-.34,1.58,0,.09.02.17.03.25l-54.36,7.51-2.37-38.01ZM414.44,538.59c.08.41.25.78.45,1.13l-53,35.8-1.83-29.41,54.38-7.52ZM361.93,576.16l53.27-35.98c.37.47.83.85,1.37,1.11l-24.1,61.16-29.19-4.62-1.35-21.66ZM392.91,603.07l-.1.03.02-.04h.08ZM392.26,602.97l-.14.35-27.95,8.83-.86-13.76,28.95,4.58ZM391.86,603.98l-22.5,57.1c-.64-.22-1.33-.35-2.05-.35-.04,0-.08,0-.11,0l-2.99-48.02,27.65-8.74ZM395.32,602.89l15.25-4.82-.87,7.1-14.38-2.28ZM411.16,597.88l17.5-5.53,3.2,16.32-21.6-3.42.9-7.37ZM419.26,541.52c.92-.25,1.7-.81,2.22-1.58l36.66,20.88-4.02,22.89-25.04,7.92-9.82-50.11ZM458.76,560.54l9.13-52.02,10.47.43,4.34,62.03c-1.12.16-2.08.78-2.69,1.67l-21.25-12.11ZM467.98,507.96l7.09-40.42c.13.01.25.04.39.04l2.85,40.8-10.33-.42ZM473.24,460.52l-19.32-23.69,29.35-20.38,16.53,5.2-22.61,38.58c-.52-.26-1.1-.41-1.71-.41-.83,0-1.6.27-2.23.71ZM483.17,415.84l-58.74-18.46c.06-.25.09-.51.1-.78l88.76-3.58c.06.56.24,1.08.51,1.54l-30.63,21.27ZM513.74,390.72l-33.32-15.36,18.19-6.52,15.95,20.84c-.33.29-.61.64-.82,1.03ZM477,339.69l12.46-12.65,29.52,2.11-1.08,32.19-19.09,6.84-21.81-28.5ZM519.56,328.63l.99-29.43c.16.02.31.05.47.05,1.04,0,1.99-.42,2.69-1.09l28.27,32.78-32.42-2.32ZM519.01,328.59l-29.03-2.07,28.15-28.57c.49.55,1.13.95,1.86,1.15l-.99,29.49ZM518.59,292.35l-41.33-42.19,14.16-9.14,27.82,50.9c-.23.12-.44.26-.64.42ZM518.18,292.73c-.1.11-.2.23-.29.35l-61.07-29.72,19.97-12.89,41.39,42.25ZM456.24,263.08l-15.45-7.52,11.84-29.75,23.76,24.25-20.15,13.01ZM452.43,224.82l-7.96-8.13,18.68-20.63c.19.14.38.26.59.36l-11.3,28.39ZM462.34,190.66l-32.64-20.51-.22-16.83,2.52-1.38,30.74,38.26c-.15.15-.28.31-.4.47ZM429.47,152.69l-.05-3.96,2.22,2.77-2.17,1.19ZM429.47,195.91l-4.93.44-25.23-25.76,29.97,10.26.19,15.05ZM399.17,169.96l15.57-8.55,14.41,9.05.13,9.81-30.1-10.31ZM415.3,161.1l13.63-7.49.21,16.18-13.84-8.7ZM414.76,160.77l-27.57-17.32,19.4-23.12,22.26,27.7.06,4.97-14.16,7.78ZM414.2,161.07l-15.74,8.64h-.02s-17.93-18.31-17.93-18.31l6.32-7.53,27.37,17.2ZM380.12,151l-27.86-28.44c.08-.09.15-.18.22-.27l33.87,21.29-6.24,7.43ZM380.15,151.83l17.12,17.48-24.7-8.46,7.57-9.02ZM397.8,170.08l-59.08,32.44c-.16-.25-.35-.48-.56-.68l34.02-40.53,25.61,8.77ZM337.74,201.48c-.41-.29-.87-.51-1.37-.63l8.05-49.06,27.21,9.32-33.89,40.37ZM335.82,200.77c-.12-.01-.23-.04-.35-.04-.06,0-.12.02-.18.02l-6.44-54.29,15.03,5.15-8.07,49.16ZM334.74,200.81c-.61.12-1.15.38-1.63.74l-43.03-48.48,22.22-12.28,15.97,5.47,6.46,54.55ZM312.96,140.43l13.72-7.58,1.52,12.8-15.24-5.22ZM312.25,140.18l-44.7-15.31c.08-.29.12-.58.13-.89l57.64-2.62,1.29,10.88-14.36,7.94ZM311.59,140.55l-21.89,12.1-23.12-26.05c.33-.34.61-.75.8-1.19l44.21,15.14ZM289.2,152.92l-9.28,5.12-14.25-30.77c.17-.09.33-.2.48-.31l23.05,25.96ZM279.44,158.31l-19.5,10.78,3.79-41.33s.05,0,.08,0c.49,0,.94-.1,1.37-.26l14.26,30.8ZM259.35,169.41l-52.85,29.2c-.18-.28-.4-.53-.65-.75l55.76-70.77c.46.31.99.51,1.55.61l-3.82,41.71ZM205.43,197.52c-.49-.33-1.07-.54-1.68-.62l2.75-47.41,53.89-23.79c.21.4.48.75.81,1.05l-55.76,70.77ZM79.31,206.57c-.04-.29-.1-.57-.19-.84l47.01-20.75-1.82,19.38-45,2.22ZM124.25,204.91l-2.2,23.47-42.96-19.96c.15-.4.24-.84.25-1.29l44.91-2.21ZM126.71,184.71l4.8-2.12,67.92,17.45c-.03.2-.06.4-.06.61l-74.5,3.67,1.84-19.61ZM126.77,184.08l.25-2.64,3.62.93-3.87,1.71ZM132.33,182.23l39.18-17.3,28.97,33.07c-.41.42-.72.93-.91,1.5l-67.25-17.27ZM172.04,164.7l15.95-7.04,13.72,39.51c-.29.12-.55.29-.8.48l-28.87-32.95ZM188.5,157.43l17.42-7.69-2.73,47.11c-.33,0-.65.06-.95.14l-13.74-39.56ZM206.53,148.87l1.53-26.36,51.87,1.54c.02.4.1.78.22,1.14l-53.62,23.68ZM205.96,149.12l-17.64,7.79-12.28-35.34,31.46.93-1.54,26.62ZM187.81,157.13l-16.15,7.13-25.97-29.64,13.09-13.57,16.67.49,12.36,35.59ZM159.3,120.51l11.61-12.03,4.34,12.51-15.95-.47ZM158.55,120.49l-19.75-.59c-.02-1.18-.36-2.28-.94-3.22l29.03-19.79,3.82,10.99-12.15,12.6ZM138.78,120.46l19.25.57-12.71,13.17-8.47-9.66c1.09-1.05,1.81-2.48,1.92-4.08ZM144.94,134.6l-14.98,15.53,2.24-23.86c.1,0,.21.02.31.02,1.49,0,2.86-.52,3.93-1.38l8.5,9.7ZM145.3,135.02l25.82,29.47-39.67,17.51-4.39-1.13,2.8-29.86,15.43-16ZM126.52,180.74l-20.29-5.21,23.02-23.87-2.73,29.08ZM126.47,181.3l-.29,3.04-47.3,20.88c-.15-.28-.33-.54-.54-.78l27.44-28.45,20.68,5.31ZM77.95,204.06s-.09-.07-.13-.11l19.72-30.08,7.64,1.96-27.23,28.23ZM122.53,229.21l20.02,9.3-22.2,13.94,2.18-23.24ZM122.59,228.62l2.23-23.75,74.59-3.67c.06.48.2.94.42,1.35l-56.72,35.61-20.52-9.54ZM200.12,203.03c.05.06.1.12.15.19l-43.07,41.5-13.49-6.27,56.41-35.41ZM157.31,245.38l28.39,13.19-65.02,23.55c-.15-.33-.35-.63-.57-.9l37.2-35.84ZM186.42,258.9l14.31,6.65-.7,20.32-79.02-2.33c-.01-.31-.07-.6-.15-.89l65.56-23.74ZM187.16,258.63l13.99-5.07-.39,11.38-13.59-6.32ZM186.44,258.3l-28.7-13.34,42.91-41.34c.59.53,1.34.88,2.18.97l-1.67,48.39-14.72,5.33ZM203.39,204.61c.5-.02.98-.12,1.41-.31l20.87,39.8-23.95,8.67,1.66-48.16ZM205.29,204.03c.31-.2.6-.43.84-.71l42.07,32.61-21.99,7.97-20.91-39.87ZM253.95,234.44l52.02-18.84,5.41,11.69-32.86,31.45-25.02-19.4.45-4.9ZM278.56,259.48l71.45,55.39c-.17.26-.3.54-.41.84l-96.99-27.34c.05-.25.08-.52.08-.79,0-.94-.35-1.8-.91-2.47l26.78-25.64ZM252.45,288.9l96.99,27.34c-.05.25-.08.52-.08.79,0,.84.27,1.62.73,2.25l-22.03,18.19-75.84-48.05c.09-.17.17-.34.23-.52ZM350.44,319.71c.3.31.66.57,1.04.77l-10.64,25.1-12.29-7.79,21.89-18.08ZM341.1,346.4l12.54,7.94.16,8.94-35.36,38.5c-.2-.16-.41-.3-.64-.42l23.31-54.97ZM355.18,440.39l1.07,59.53c-.12.03-.23.07-.34.11l-19.58-47.09,18.85-12.55ZM355.96,507.39l-9.64,40.06-15.12,2.09-1.32-12.84,24.98-29.85c.33.24.7.42,1.1.54ZM346.18,548.02l-10.07,41.85c-.21-.03-.42-.06-.63-.06-.04,0-.08.01-.12.01l-4.09-39.74,14.92-2.06ZM346.77,547.94l12.74-1.76,1.85,29.69-22.84,15.43c-.48-.61-1.12-1.06-1.87-1.3l10.13-42.07ZM339.25,594.58l23.51,3.72.87,14.02-17.38,5.49-8.99-20.68c.99-.52,1.73-1.44,1.99-2.55ZM363.67,612.89l2.99,47.88c-.55.06-1.08.19-1.58.38l-18.6-42.83,17.2-5.43ZM367.32,673.33c.83,0,1.61-.16,2.33-.45l11.87,26.3-15,10.66-5.65-3.58,5.65-32.99c.26.03.52.05.79.05ZM370.16,672.65c.92-.47,1.71-1.15,2.31-1.99l25.9,16.56-16.37,11.63-11.83-26.2ZM400.29,686.52l38.3-27.21c.19.23.4.44.64.62l-24.35,37.19-14.73-9.42.14-1.18ZM437.69,656.85c0,.08.02.17.02.25l-34.39,4.72,6.87-56.01,21.78,3.45,8.59,43.86c-1.65.45-2.87,1.94-2.87,3.74ZM429.19,592.18l24.83-7.85-4.75,27.08-16.83-2.66-3.25-16.57ZM454.62,584.15l25.02-7.91c.32.79.89,1.45,1.61,1.89l-18.03,35.5-13.4-2.12,4.8-27.36ZM481.74,578.39c.4.17.83.25,1.28.28l.49,38.16-19.72-3.12,17.94-35.33ZM483.25,570.92l-4.34-61.95,16.17.66-11.41,61.33c-.14-.02-.28-.04-.43-.04ZM478.88,508.41l-2.86-40.88c.49-.07.95-.23,1.36-.46l20.03,30.05-2.22,11.96-16.31-.67ZM500.33,421.81l10.26,3.23-32.72,35.63c-.07-.06-.13-.12-.21-.17l22.66-38.68ZM500.07,421.15l-16.24-5.1,30.28-21.03c.24.29.5.56.81.77l-14.86,25.36ZM499.17,368.65l18.72-6.71-.9,26.77c-.73.03-1.41.25-1.99.63l-15.83-20.69ZM518.45,361.74l45.9-16.44,5.89,6.83-50.19,37.92c-.63-.72-1.51-1.19-2.51-1.3l.91-27ZM564.92,345.09l25.89-9.27c.08.19.18.37.29.55l-20.41,15.42-5.77-6.69ZM590.52,333.7l-37.76-2.7-28.68-33.26c.08-.1.16-.21.23-.32l66.49,35.26c-.14.32-.23.66-.28,1.02ZM523.59,292.47l17.22-17.08,13.44,14.88-29.42,4.38c-.16-.87-.61-1.62-1.25-2.19ZM523.16,292.12c-.31-.21-.66-.35-1.03-.46l7.81-28.31,10.51,11.63-17.29,17.14ZM521.59,291.53c-.19-.03-.37-.06-.56-.06-.45,0-.87.09-1.28.23l-27.86-50.98,11.13-7.19,26.48,29.32-7.91,28.67ZM491.62,240.24l-24.05-44.01c.37-.24.68-.54.95-.88l34.12,37.78-11.02,7.12ZM491.15,240.54l-14.29,9.22-24.01-24.51,11.39-28.62c.38.13.79.21,1.21.21.58,0,1.12-.13,1.61-.36l24.07,44.05ZM463.17,189.84l-30.67-38.17,14.3-7.86,17.05,45.62c-.24.11-.47.25-.68.41ZM432.14,151.22l-2.73-3.4-.65-50.08c.26-.02.52-.07.76-.14l17.08,45.68-14.46,7.94ZM428.84,147.12l-21.88-27.23,19.19-22.87c.58.42,1.28.68,2.05.72l.64,49.37ZM406.61,119.45l-11.47-14.28,29.7-9.81c.2.5.51.94.89,1.31l-19.12,22.78ZM406.24,119.88l-19.53,23.26-33.94-21.33c.29-.54.47-1.16.47-1.82,0-.33-.05-.64-.13-.95l41.45-13.69,11.67,14.53ZM352.95,118.52c-.34-.83-.97-1.5-1.75-1.93l18.86-41.73,24.14,30.04-41.25,13.62ZM351.86,122.95l27.9,28.48-7.75,9.23-27.5-9.42,4.49-27.39c.12.01.23.04.35.04.96,0,1.83-.36,2.5-.94ZM343.98,151.05l-15.2-5.21-1.58-13.29,18.89-10.44c.54.82,1.37,1.42,2.36,1.66l-4.48,27.28ZM327.13,131.96l-1.26-10.62,19.64-.89c.05.42.15.81.32,1.18l-18.7,10.33ZM345.48,119.89l-19.67.89-1.19-10.07,21.04,8.14c-.1.33-.17.67-.18,1.03ZM325.25,120.81l-57.61,2.62c-.11-.97-.57-1.82-1.26-2.44l19.48-25.26,38.17,14.77,1.22,10.32ZM265.95,120.64c-.3-.2-.63-.34-.98-.45l7.14-29.79,13.21,5.11-19.37,25.12ZM264.43,120.06c-.21-.03-.41-.06-.63-.06-.32,0-.62.05-.92.12l-12.16-37.98,20.86,8.07-7.16,29.85ZM262.36,120.28c-.35.14-.67.34-.96.57l-47.55-51.71c.28-.29.51-.63.68-1.01l35.53,13.75,12.29,38.4ZM214.73,67.61c.11-.36.19-.74.19-1.13,0-.31-.05-.61-.11-.9l27.28-8.63,7.76,24.25-35.12-13.59ZM214.63,65.04c-.2-.5-.5-.96-.88-1.33l22.19-25.93,5.97,18.64-27.28,8.63ZM260.98,121.22c-.57.61-.94,1.39-1.03,2.27l-51.86-1.54,2.99-51.6c.89-.01,1.7-.33,2.36-.85l47.54,51.71ZM207.53,121.94l-31.69-.94-4.51-12.97,37.21-38.58c.55.46,1.23.77,1.98.87l-2.99,51.62ZM171.13,107.44l-3.77-10.86,40.63-27.69c.05.06.1.13.15.19l-37.01,38.37ZM166.69,96.36l-29.15,19.87c-1.15-1.53-2.97-2.53-5.04-2.53-.23,0-.46.01-.69.04l-8.37-53.79,31.46,2.45,11.8,33.96ZM129.34,150.78l-23.72,24.59-7.76-1.99,31.44-47.97c.71.42,1.5.71,2.35.82l-2.31,24.55ZM97.29,173.23l-30.71-7.89-7.15-32.49,66.93-11.51c.33,1.54,1.24,2.87,2.47,3.76l-31.54,48.13ZM96.97,173.72l-19.61,29.93c-.56-.31-1.2-.51-1.88-.51-.19,0-.38.03-.56.06l-8.2-37.25,30.26,7.77ZM74.98,210.87l-3.39,61.03-26.66-6.74,28.98-54.58c.34.15.7.24,1.08.29ZM72.1,272.61l11.51,2.91-12.09,7.59.58-10.5ZM84.36,275.7l28.96,7.32c-.04.22-.07.45-.07.68,0,.76.23,1.47.61,2.07l-44.3,32.63,1.92-34.61,12.88-8.09ZM113.46,282.48l-28.45-7.19,20.32-12.75,9.72,17.89c-.74.48-1.3,1.2-1.58,2.05ZM105.79,262.25l13.9-8.72-2.47,26.3s-.06,0-.09,0c-.57,0-1.11.13-1.6.36l-9.74-17.92ZM120.28,253.15l22.87-14.36,13.62,6.33-37.05,35.69c-.54-.48-1.21-.82-1.95-.94l2.51-26.73ZM120,286.31l41.26,32.48-33.86,12.18-9.2-43.55c.7-.2,1.32-.59,1.8-1.11ZM120.36,285.88c.35-.52.56-1.13.63-1.79l79.03,2.33-.64,18.66-37.49,13.49-41.52-32.69ZM200.57,286.44l44.36,1.31c.01.31.06.6.14.88l-45.14,16.24.64-18.44ZM244.95,287.2l-44.36-1.31.69-20.08,43.9,20.4c-.12.31-.19.64-.22.99ZM201.3,265.21l.41-11.84,24.22-8.77,20.83,39.7c-.56.35-1.02.84-1.34,1.42l-44.12-20.5ZM226.46,244.4l22.25-8.06,4.21,3.26-4.04,44.11s-.05,0-.08,0c-.55,0-1.08.12-1.55.33l-20.79-39.63ZM253.44,240l24.68,19.13-26.72,25.58c-.54-.49-1.22-.83-1.97-.95l4.01-43.76ZM251.92,289.89l75.68,47.95-33.7,27.83-42.93-74.86c.37-.25.68-.57.95-.92ZM328.1,338.16l12.52,7.94-23.34,55.05c-.39-.14-.81-.22-1.25-.22-.6,0-1.17.15-1.68.4l-20.16-35.15,33.91-28ZM316.02,408.7s.08-.01.12-.01l5.5,53.37-11.06,7.36-22.25-16.22,26-44.9c.51.25,1.09.41,1.7.41ZM321.7,462.68l1.65,16.05-12.3-8.96,10.64-7.08ZM322.22,462.33l13.64-9.08,19.53,46.99c-.47.24-.88.56-1.22.96l-30.22-22.03-1.74-16.84ZM353.84,501.64c-.29.46-.47.99-.55,1.55l-27.03-1.58-2.24-21.71,29.81,21.73ZM353.25,503.75c0,.62.17,1.2.44,1.71l-25.44,15.43-1.93-18.72,26.92,1.57ZM353.97,505.94c.14.2.29.38.47.55l-24.64,29.43-1.48-14.41,25.65-15.57ZM330.65,549.61l-13.1,1.81,11.83-14.13,1.27,12.32ZM330.71,550.16l4.09,39.71c-1.14.2-2.1.89-2.66,1.85l-34.11-16.97,19-22.7,13.68-1.89ZM335.1,597.55c.12.01.24.04.37.04.45,0,.88-.09,1.29-.23l8.96,20.63-14.86,4.7,4.25-25.13ZM345.93,618.5l18.63,42.88c-1.53.75-2.71,2.09-3.24,3.74l-35.99-9.78,5.41-32.04,15.19-4.8ZM361.71,669.89c.38.74.89,1.39,1.52,1.92l-18.78,24.04-16.62-10.53,33.89-15.43ZM363.67,672.15c.68.49,1.46.84,2.31,1.03l-5.61,32.75-15.45-9.78,18.75-24ZM360.78,706.85l5.26,3.33-6.64,4.71,1.38-8.05ZM367.03,710.16l14.73-10.46,11.31,25.05c-.5.27-.94.65-1.28,1.1l-24.76-15.68ZM382.22,699.36l16.64-11.83.69.44-4.45,36.29c-.06,0-.13-.02-.19-.02-.47,0-.92.1-1.34.25l-11.35-25.14ZM400.07,688.31l14.51,9.28-17.78,27.17c-.35-.2-.73-.35-1.14-.43l4.41-36.02ZM415.05,697.89l29.39,18.8-45.82,10.34c-.24-.79-.72-1.47-1.36-1.96l17.79-27.17ZM441.58,652.96c-.16,0-.32.03-.47.05l-8.56-43.67,16.62,2.63-7.2,41.03c-.13-.01-.26-.04-.39-.04ZM449.72,612.06l13.23,2.09-19.86,39.11c-.18-.08-.37-.13-.57-.18l7.2-41.03ZM463.53,614.24l19.99,3.16.36,28.1-38.63,10.1c-.3-.88-.89-1.61-1.67-2.08l19.95-39.28ZM486.11,572.19c-.5-.54-1.15-.94-1.88-1.13l11.42-61.4,10.41.43,20.23,30.35-40.17,31.76ZM495.75,509.1l2.1-11.32,7.82,11.73-9.92-.41ZM497.56,496.34l-19.72-29.58c.37-.29.69-.64.94-1.04l22.34,11.49-3.56,19.14ZM479.04,465.22c.2-.47.31-.98.31-1.53,0-.19-.03-.38-.06-.57l25.49-5.68-3.57,19.18-22.18-11.41ZM479.18,462.59c-.18-.59-.48-1.12-.89-1.55l32.39-35.26-5.78,31.09-25.72,5.73ZM500.62,421.32l14.8-25.26c.23.12.48.21.73.27l-5.25,28.22-10.29-3.23ZM516.7,396.43c.14.02.28.04.43.04,1.09,0,2.08-.45,2.78-1.18l10.14,8.56-18.47,20.11,5.12-27.53ZM520.27,394.87c.4-.55.65-1.21.72-1.92l18.72.39-9.28,10.1-10.16-8.58ZM521,392.39c-.04-.71-.25-1.36-.61-1.92l50.21-37.93,3.18,3.69-33.58,36.56-19.21-.4ZM571.05,352.21l20.39-15.4s.06.08.09.11l-17.37,18.91-3.12-3.62ZM591.07,332.2l-66.49-35.26c.21-.48.34-1.01.34-1.57,0-.05-.01-.1-.02-.16l29.81-4.44,36.85,40.8c-.19.19-.35.4-.49.63ZM562.54,254.14l.4.51c.54.7,1.09,1.31,1.58,1.85.39.43.75.83,1.05,1.21.21.26.4.57.61.91.23.36.48.76.77,1.16,1.4,1.96,3.55,4.36,5.82,6.9l1.37,1.53c1.48,1.71,2.46,3.22,3.01,4.62.65,1.61.86,3.19.96,4.38l.03.27c.02.18.04.36.03.53-.01.18-.03.38-.06.6-.09.8-.2,1.8,0,3.02.25,1.58,1.08,3.28,2.29,4.74l-25.5,3.8-13.7-15.17,21.2-21.02c.04.05.09.11.13.16ZM541.75,240.81c1.15,1.13,2.37,2.1,3.72,2.97,1.25.78,2.69,1.49,4.55,2.21.61.24,1.22.46,1.81.68,2.36.87,4.58,1.7,6.3,2.87,1.01.67,1.88,1.45,2.67,2.41.45.54.87,1.07,1.28,1.58l-21.23,21.05-10.73-11.88,7.59-27.52c.93,1.99,2.34,3.96,4.04,5.62ZM534.67,216.9c.81,1.87,1.04,3.92,1.16,5.67.04.68.08,1.35.11,1.99.06,1.17.12,2.25.21,3.24.02.22.06.84.06.98,0,1.2.18,3.11,1.04,5.34.03.09.07.17.11.26l-7.68,27.84-26.18-28.99,29.51-19.05c.65.81,1.23,1.71,1.67,2.72ZM519.59,204c1.53,2.46,4.26,3.57,5.37,3.93.41.2.86.5,1.39.85.3.2.63.42.96.63,1.46.94,3.58,2.34,5.31,4.34l-29.52,19.06-34.28-37.95c.18-.32.33-.66.41-1.03l49.06,7.75c.42.97.9,1.81,1.28,2.42ZM503.92,157.94c.79.23,1.41.99,1.96,1.78.33.49.62.96.89,1.39l.28.43c.58,1.45,1.52,3.45,2.64,5.61l.34.67c1.04,2.05,2.21,4.37,3.2,7.03,1.1,2.88,1.87,6.21,2.3,9.91.17,1.43.32,2.85.46,4.25.22,2.21.43,4.3.75,6.31.28,1.77.61,3.31,1.01,4.68.1.34.21.67.34.99l-48.74-7.7c0-.11.03-.21.03-.33,0-.92-.33-1.75-.86-2.41l35.41-32.61s0,0,.01,0ZM489.16,130.61c.75,1.6,1.43,3.21,2.08,4.9.72,1.85,1.49,3.69,2.29,5.45.42.92.85,1.82,1.28,2.71.42.89.92,1.75,1.43,2.62.41.7.88,1.52,1.24,2.31.19.42.34.77.42,1.05.07.23.12.57.15.97.03.34.04.68.05,1.03.02.5.04,1.01.09,1.52.05.56.14,1.03.28,1.46.15.55.51,1.18.85,1.53.77.94,1.97,1.38,2.75,1.48.28.04.54.07.79.1.13.02.25.03.38.05l-35.1,32.33c-.31-.29-.66-.53-1.05-.71l21.96-59.07c.04.09.08.17.12.25ZM485.97,124.23c.85,1.63,1.79,3.46,2.73,5.43l-22.15,59.58c-.35-.1-.7-.17-1.09-.17s-.74.07-1.09.17l-17.09-45.71,37.9-20.82c.25.49.51.99.78,1.51ZM480.46,114.17c.62,1.02,1.29,1.85,1.82,2.46.38.61.76,1.48,1.2,2.48.41.93.89,1.98,1.47,3.12l-37.85,20.79-17.04-45.6c.86-.39,1.55-1.09,1.94-1.96l47.62,17.1c.24.56.52,1.1.85,1.61ZM486.79,77.54c.09.13.19.25.28.36.11.13.21.25.28.38.11.2.2.46.29.75l.13.4c.48,1.34,1.2,4.11.63,7.53-.35,2.21-.96,4.24-1.51,6.04-.2.67-.39,1.3-.54,1.87-.18.62-.29,1.18-.39,1.66-.08.37-.14.69-.22.95-.12.37-.42.84-.85,1.32-.34.37-.59.41-.74.41-.11,0-.23-.03-.37-.08-.54-.2-1.23-.73-2.04-1.58-.8-.84-1.59-1.86-2.26-2.74l-.58-.78c-1.41-1.9-3-4.05-5.17-5.91-.32-.27-.65-.54-1.08-.84-.16-.11-.28-.19-.57-.36-.41-.23-.79-.38-1.12-.46-.87-.21-1.76.09-2.24.74-.54.7-.52,1.64-.41,2.3.08.52.17.82.27,1.13l.06.19c.12.37.25.73.39,1.07.29.74.61,1.42.85,1.93.98,2.06,2.26,4.06,3.92,6.11.64.78,1.28,1.43,1.84,1.99.53.53.98.99,1.28,1.41.11.16.24.36.38.61.2.34.44.75.73,1.16.39.58.56,1.12.62,1.92.02.22.03.48.04.75.04.8.08,1.8.28,2.78.09.43.22.88.37,1.31l-47.18-16.94c.09-.33.16-.68.16-1.04,0-.31-.05-.61-.12-.91l53.53-16.98c.37.57.73,1.1,1.06,1.54ZM437.91,71.2c1.83-.09,3.46-.61,4.46-1.47.49-.42.78-.85.99-1.17.07-.11.13-.21.2-.29.34-.41.87-.77,1.5-1.18.34-.23.7-.47,1.06-.73,1.35-.99,3.2-2.34,5.37-2.79,1.87-.4,4.31.11,6.91,1.44.8.41,1.59.85,2.38,1.29,1.66.93,3.37,1.9,5.17,2.49,1.29.44,2.65.69,3.93.74,1.23.04,2.28-.08,3.33-.2.29-.04.56-.08.83-.13.39-.07.77-.13,1.1-.14h.11c.25,0,.53.02.84.05.25.02.53.04.81.06.9.05,2.02.11,3.06.41.97.26,1.81.84,2.62,1.81.97,1.22,1.84,2.56,2.6,3.75.08.13.16.25.25.38l-53.38,16.94c-.36-.9-1.04-1.62-1.9-2.04l7.77-19.21ZM401.23,62.88c.83.17,1.66.24,2.46.3.79.07,1.54.13,2.28.28.4.08.87.22,1.35.36.35.1.71.21,1.05.3.87.23,1.77.45,2.68.65,1.64.36,3.5.7,5.68,1.03,4.36.61,7.64,1.37,10.32,2.39.73.27,1.45.58,2.13.9.58.29,1.44.69,2.27.99,1.48.53,2.94.88,4.33,1.05.52.07,1.03.09,1.53.09l-7.68,18.99c-.38-.12-.77-.21-1.19-.21-.93,0-1.77.34-2.44.88l-27.06-28.8c.68.35,1.48.63,2.3.79ZM379.64,53.66c.33.23.67.46,1,.67,1.38.91,2.51,1.57,3.57,2.07,1.05.5,2.2.89,3.54,1.18,1.25.26,2.37.3,3.28.33.61.02,1.14.04,1.57.12.48.08,1.02.42,1.7.85.63.39,1.31.9,2.08,1.48l.55.4,28.66,30.49c-.64.69-1.04,1.61-1.04,2.63,0,.33.05.64.13.95l-29.91,9.88-24.45-30.42,9.32-20.63ZM358.22,52.21c.94-.33,2.09-.48,3.42-.64,1.11-.14,2.36-.29,3.69-.59.81-.18,1.65-.47,2.21-.68.56-.21,1.19-.38,1.87-.51,1.3-.24,2.62-.15,3.86.24,2.02.64,3.86,1.91,5.63,3.13.09.06.17.12.27.18l-9.25,20.46-15.41-19.17c.61-.79,1.9-1.85,3.7-2.42ZM331.43,69.55c.2.19.42.44.69.74.75.83,1.78,1.98,3.36,3.15,2.22,1.57,4.43,2.53,6.74,2.92,1.52.24,3.08.21,4.55-.11,1.41-.33,3.21-.9,4.59-2.4,1.41-1.54,1.72-3.58,1.72-5.02.01-1.29-.13-2.44-.27-3.55l-.08-.65c-.37-2.48-.3-4.48.21-6.14.45-1.59.84-2.66,1.26-3.38l15.48,19.26-18.97,41.99c-.42-.15-.87-.25-1.34-.25-.39,0-.75.07-1.11.18l-18.02-47.56c.48.25.88.53,1.19.83ZM324.71,67.14c2.02.33,3.6.74,4.8,1.25l18.22,48.09c-.83.38-1.49,1.04-1.88,1.87l-21.31-8.24-5.15-43.48c2.23.11,3.89.27,5.32.52ZM311.78,64.25c1.22,1.14,2.7,1.67,3.73,1.9,1.23.29,2.4.39,3.33.43l5.13,43.28-37.74-14.6,24.68-32c.27.34.55.67.88.98ZM285.06,51.21c1.31,0,2.61-.27,3.72-.51,1.11-.25,2.25-.5,3.4-.6,1.13-.1,2.33-.08,3.47.06,2.39.3,4.78,1.13,6.89,2.41,2.2,1.32,3.95,3.06,5.07,5.04.49.82.93,1.65,1.39,2.52l.4.76c.3.56.69,1.25,1.16,1.92l-24.87,32.26-13.43-5.2,9.41-39.24c1.11.38,2.27.58,3.41.58ZM275.88,47.81c.8.44,1.64.88,2.54,1.34l.62.31c.65.33,1.32.67,2.09.97l-9.4,39.23-21.21-8.21-7.9-24.68,31.52-9.97c.56.33,1.14.67,1.75,1ZM263.79,5.24c.08-.01.17,0,.25-.03.38-.09.66-.23.86-.34.07-.04.13-.07.19-.09.38-.16,1.01-.23,1.75-.31l.33-.04c.41-.04.85-.02,1.12.05.29.09.35.18.41.31.1.24.16.71.07,1.07-.08.38-.3.79-.67,1.22-.38.45-.85.88-1.35,1.33-.56.51-1.14,1.04-1.66,1.65-.59.7-1,1.46-1.18,2.2-.23.88-.09,1.9.35,2.59.77,1.14,1.68,1.51,2.22,1.73l.2.08c.13.04.24.07.35.09.05,0,.09.02.12.03.5.24.94.89,1.35,1.53.33.54.42,1.03.27,1.6-.18.75-.74,1.65-1.2,2.34-.55.81-1.24,1.81-1.97,2.7-.29.35-.59.71-.9,1.07-.5.58-1.01,1.19-1.52,1.84-.76.98-1.62,2.18-2.15,3.61-.56,1.44-.65,3.05-.23,4.41.81,2.53,2.51,4.01,4.24,5.24.74.5,1.43.87,2.04,1.2.35.19.67.36.96.53.55.34,1.18.77,1.91,1.26,1,.68,2.19,1.48,3.54,2.32l-31.06,9.82-6.07-18.96,27.42-32.04ZM229.7,4.45c2.13-.42,4.01-.48,5.37-.53l.62-.02,1.62.12c1.5.13,3.36.29,5.1.8.34.1.69.22,1.06.34.71.24,1.5.51,2.39.71.85.19,1.59.25,2.24.21.82-.03,1.7-.26,2.46-.64,1.2-.61,2.05-1.42,2.8-2.14.16-.15.32-.31.49-.46.86-.83,1.62-1.35,2.33-1.62,1.21-.49,2.39.79,3.44,1.97.78.81,1.42,1.32,2.07,1.65.5.26.98.37,1.35.41l-26.87,31.4-9.93-31.02c.99-.52,2.07-.9,3.46-1.19ZM199.9,7.17l5.14-1.58c1.46-.47,3.22-.95,5.03-.74,1.57.17,3.17.82,4.73,1.46l.33.14c1.5.61,3.21,1.31,5.09,1.31.28,0,.57-.02.87-.05,1.69-.25,2.97-.93,4.1-1.52.18-.09.36-.18.54-.27l10.01,31.26-22.42,26.2c-.65-.48-1.44-.77-2.3-.77-.18,0-.36.03-.53.05l-11.71-55.14c.37-.11.73-.22,1.11-.33ZM160.19,20.02c.44-.25.9-.49,1.36-.71.74-.36,1.5-.69,2.26-1.03l.59-.26c2.36-1.02,4.18-2.11,5.56-3.31,2.69-2.41,5.54-4,8.25-4.61,2.37-.55,4.46-.59,5.99-.61h.05c1.89.2,4.21.15,6.57-.17,2.04-.27,4.49-.81,7.42-1.66l11.7,55.1c-.63.18-1.2.5-1.65.95l-48.97-43.12c.29-.21.58-.41.86-.56ZM143.97,25.1c.92.32,1.87.64,2.94.9,1.24.29,2.33.39,3.43.27,1.19-.12,2.44-.54,3.53-1.2,1.29-.78,2.34-1.75,3.35-2.68.56-.52,1.1-1.01,1.65-1.45l49.06,43.2c-.39.51-.65,1.11-.75,1.77l-51.89-4.03-12.95-37.29c.52.15,1.06.33,1.62.52ZM120.17,20.79l.57.48c.94.79,1.91,1.6,2.88,2.21,1.19.78,2.44,1.31,3.62,1.54.8.16,1.67.19,2.4.13.25.03.52.06.81.08,1.63.12,3.84-.29,6.45-.78l.6-.11c.65-.11,1.4-.22,2.06-.23.66,0,1.37.09,2.12.28,0,0,.02,0,.02,0l13,37.42-31.35-2.44-6.26-40.24c.87.17,1.88.69,3.08,1.64ZM83.31,55.2c.19-.45.4-.88.62-1.3.8-1.55,1.79-3.07,2.93-4.51,1.56-1.97,3.36-3.68,5.07-4.82l.59-.21c1.33-.51,3.34-1.27,5.74-2.4,2.49-1.2,5.37-2.78,7.89-5.41,1.31-1.37,2.45-3.04,3.3-4.82.67-1.43,1.22-2.91,1.76-4.35l.42-1.13c.72-1.91,1.38-3.6,2.23-5.01.82-1.39,1.77-2.15,2.66-2.16l6.27,40.27-39.88-3.1.41-1.04ZM77.94,65.98c.61-1.54,1.47-3.03,2.29-4.47.32-.57.65-1.13.95-1.69.65-1.19,1.12-2.13,1.5-3.04l40.19,3.12,8.39,53.92c-1.44.29-2.71,1.07-3.61,2.16l-49.46-37.37c.11-.6.17-1.21.16-1.81,0-1.49-.31-2.92-.57-4.18-.29-1.35-.5-2.47-.51-3.55-.02-.93.17-1.83.67-3.09ZM54.5,100.24c.57-.12,1.21-.28,1.91-.5,1.77-.56,4.52-1.68,7.56-3.89,1.5-1.06,3.01-2.45,4.42-3.79,1.49-1.41,3.08-2.92,4.67-4.68,1.56-1.76,3.17-3.73,4.34-6.22.29-.61.51-1.26.67-1.93l49.25,37.2c-.7,1.01-1.11,2.24-1.11,3.57,0,.27.02.53.06.79l-66.96,11.52-6.9-31.36c.77-.28,1.48-.51,2.1-.71ZM28.89,128.12c.14-1.27.47-2.32,1.01-3.21.58-.98,1.51-1.91,2.75-2.76,1.14-.79,2.52-1.45,3.98-2.15l.38-.18c1.56-.76,3.32-1.62,4.85-3.09,1.47-1.39,2.53-3.35,2.97-5.52.16-.76.26-1.49.36-2.18.14-.96.27-1.86.52-2.64.33-1.13,1.01-2.12,2.08-3.01.83-.68,1.84-1.28,3.08-1.83.34-.15.68-.28,1.01-.41l6.88,31.26-29.53,5.08c.41-1.93.09-3.5-.06-4.05-.08-.28-.16-.51-.24-.73v-.09c-.09-1.23-.2-2.77-.03-4.49ZM17.12,148.7c1.09-.81,2.33-1.49,3.53-2.14l.69-.38c1.33-.72,2.86-1.61,4.14-2.75,1.21-1.08,2.2-2.29,2.84-3.49.35-.64.58-1.27.76-1.87l29.8-5.13,7.1,32.24-51.44-13.21c.43-1.2,1.27-2.28,2.59-3.27ZM11.05,182.72c-1.08-1.75-2.49-2.96-3.65-3.95-.42-.35-.8-.68-1.14-1.01-.69-.65-1.12-1.25-1.33-1.85-.22-.61-.29-1.24-.33-1.82l-.06-.83c.07-1.35.22-2.81.83-4.31.39-.98,1.03-1.94,1.97-2.95.44-.48.93-.95,1.45-1.45.6-.58,1.21-1.18,1.84-1.86.71-.79,1.25-1.5,1.69-2.25.49-.8.89-1.81,1.13-2.85.23-.89.35-1.78.46-2.64.12-.87.25-1.69.46-2.45l51.74,13.29,8.26,37.53c-1.08.32-1.97,1.09-2.43,2.1l-60.89-22.7ZM7.98,234.03c1.45-2.93,2.49-5.75,3.08-8.37.31-1.39.5-2.72.56-3.96.05-1.15.04-2.21.04-3.17l-.03-1.24c-.05-1.39-.09-2.59.1-3.34l.07-.18c.31-.76,1.27-3.08,1.7-4.97l.02-.11c.2-1.04.46-2.34.2-3.82-.23-1.56-1.17-2.97-2.06-4.12-.35-.47-.73-1.02-1-1.57-.28-.6-.41-1.1-.42-1.54-.04-1.14.52-2.54,1.07-3.9.33-.83.62-1.59.85-2.42.23-.78.36-1.79.35-2.7.03-1.87-.3-3.59-.96-4.96-.03-.06-.06-.11-.09-.16l60.28,22.47c-.1.35-.17.71-.17,1.09,0,.43.09.85.22,1.24L7.32,235.3c.22-.42.45-.85.66-1.27ZM4.05,250.49c-.48-.45-.95-.83-1.38-1.14-.17-.19-.34-.4-.51-.62-.34-.45-.82-1.14-.98-1.92-.36-1.37.99-3.34,2.3-5.24,1.35-1.97,2.46-3.75,3.43-5.49l65.11-27.29c.32.63.8,1.16,1.4,1.54l-29.05,54.71-37.84-9.56c0-.75-.14-1.52-.43-2.18-.59-1.36-1.46-2.22-2.05-2.79ZM28.67,294.59l-.84-1.09c-1.8-2.31-4.04-5.19-6.81-8.18-1.57-1.69-3.08-3.14-4.61-4.43-1.06-.89-2.18-1.74-3.27-2.56-.68-.51-1.36-1.03-2.04-1.57-1.55-1.21-3.31-2.67-4.62-4.29-1.23-1.51-2-3.18-2.24-4.83-.23-1.5-.1-3.13.39-4.97.23-.85.52-1.69.79-2.51.25-.72.49-1.43.68-2.13.16-.55.33-1.26.39-2l37.6,9.5-15.43,29.06ZM32.66,299.66c-.29-.34-.55-.62-.74-.82-.64-.85-1.43-1.88-2.37-3.1l-.51-.67,15.61-29.4,26.9,6.8-.61,11-34.37,21.58c-1.53-2.57-3.07-4.39-3.91-5.38ZM54.45,327.83c-.68-.9-1.65-1.73-2.74-2.34-1.49-.87-3.09-1.36-4.64-1.83-.54-.16-1.07-.33-1.59-.5-1.97-.65-3.39-1.62-4.35-3-.91-1.22-1.46-2.74-1.73-4.79-.08-.59-.14-1.18-.21-1.77-.13-1.21-.26-2.46-.54-3.66-.42-1.77-1.14-3.21-1.81-4.42l34.06-21.38-1.93,34.68-13.77,10.14c-.22-.38-.47-.76-.76-1.13ZM66.85,341.28c-.61-.57-1.31-1.1-2.1-1.58-.55-.34-1.15-.67-1.77-1.01-.52-.28-1.05-.57-1.58-.89-1.1-.67-2.34-1.48-3.14-2.62-.64-.88-1.11-1.99-1.65-3.28-.17-.41-.35-.83-.54-1.26-.16-.36-.35-.77-.58-1.19l13.45-9.91-1.25,22.41c-.36-.32-.65-.54-.84-.67ZM72.66,346.64c-2-1.93-3.45-3.32-4.44-4.21l1.3-23.3,44.68-32.91c.71.83,1.76,1.37,2.94,1.37.18,0,.35-.03.53-.05l9.21,43.63-51.05,18.37c-1.12-.97-2.17-1.95-3.17-2.9ZM128.11,348.9l-.11-.09c-1.12-.91-2.53-2.04-4.28-2.42-.52-.1-1.03-.16-1.56-.16-1.13,0-2.14.24-3.08.48-1.44.41-2.65.96-3.44,1.33-.53.25-1.01.53-1.45.79-.45.26-.88.51-1.28.68-.57.25-1.35.51-2.25.81-1.09.36-2.44.82-3.93,1.42l-3.88,1.58c-1.36.58-2.82,1.19-4.36,1.73-2.99,1.07-5.47,1.56-7.81,1.56h0c-.74,0-1.47-.05-2.18-.16-3.65-.51-6.84-2.49-9.2-4.16-1.06-.77-2.04-1.56-2.98-2.36l50.67-18.23,3.95,18.72c-.92-.14-1.79-.69-2.84-1.54ZM182.05,336.88c-.55.26-1.05.57-1.48.85-.18.12-.36.23-.54.34-.63.38-1.1.57-1.57.62-.24.04-.49.04-.77.04h-.59c-.29,0-.6,0-.94.03-.6.05-1.18.19-1.68.41-.64.28-1.15.63-1.56,1.07-.5.56-.83,1.12-1.08,1.58-.15.26-.27.49-.42.68-.17.22-.27.29-.38.35-.07.03-.18.05-.33.05h-.16c-.27-.01-.56-.07-.88-.12-.47-.08-1.01-.18-1.71-.2-2.02.08-3.72.75-5.12,1.39-.71.33-1.38.68-2.02,1.01-.62.32-1.21.62-1.78.89-1.07.48-2.19,1.07-3.41,1.8-.77.46-1.47.89-2.11,1.28-.98.6-1.8,1.11-2.47,1.48l-.15.08c-.34.2-.62.35-.77.46-.96.38-1.83.61-2.75.73-1.84.27-4.13-.05-6.68-.94-.3-.1-.58-.2-.87-.31-.36-.14-.74-.28-1.2-.43-.9-.27-1.89-.38-2.81-.29-.75.07-1.43.25-2.03.41l-.48.12c-.66.17-1.19.24-1.7.24h-.08s-4.01-18.98-4.01-18.98l34.26-12.33,21.82,17.18c-.49.1-1.02.25-1.54.5ZM198.34,334.79c-2.42.06-4.34.39-5.86.71-.43.07-.89.15-1.37.25-.29.05-.58.12-.88.19-.63.15-1.28.3-1.94.3-.44.02-.91,0-1.41-.02-.71-.03-1.49-.06-2.35,0-.06,0-.12.01-.19.02l-21.96-17.29,36.95-13.3-1,29.11ZM215.8,347.11l-.46-.92c-.82-1.62-1.8-3.48-3.03-5.14-1.25-1.7-2.73-3.09-4.29-4.03-1.46-.89-3.13-1.52-4.99-1.87-1.42-.25-2.81-.38-4.13-.38l1.01-29.3,45.34-16.31c.33.75.9,1.36,1.6,1.77l-29.25,59.62c-.61-1.09-1.2-2.23-1.8-3.44ZM258.77,367.04c-.29-.86-.67-1.64-1.18-2.36-.54-.79-1.36-1.56-2.22-2.11-.38-.26-.78-.49-1.17-.73-.45-.27-.9-.53-1.31-.83-.76-.52-1.23-1.05-1.75-1.96-.1-.16-.19-.32-.29-.49-.5-.85-1.13-1.9-2.26-2.73-1.2-.89-2.57-1.08-3.5-1.08-.35,0-.68.03-.99.07-1.3.17-2.4.55-3.51.97-1.68.67-3.36,1.26-5.15,1.83l-.51.17c-.38.13-.74.25-.98.29-1.27.23-3.01.25-5.85.04-3.03-.21-5.47-1.23-7.26-3.02-1.17-1.12-2.12-2.62-2.89-3.94,0,0-.01-.02-.02-.03l29.41-59.96c.45.18.94.29,1.46.29.08,0,.15-.02.22-.02l9.79,75.65s-.03-.04-.04-.06ZM255.72,392.54c-.29-.22-.58-.46-.76-.65-.03-.36,0-1.03.31-2.15.4-1.45,1.14-3.23,1.98-5.29.5-1.2,1.03-2.48,1.54-3.84.66-1.77,1.32-3.67,1.61-5.55.08-.52.11-.99.12-1.41.01-.45-.05-1.02-.12-1.43-.11-.72-.22-1.43-.35-2.07-.12-.6-.29-1.16-.5-1.68l-9.97-77.07c.32-.07.62-.18.91-.32l42.98,74.95-35.9,29.64c-.02-.2-.03-.41-.1-.64-.09-.29-.18-.5-.29-.75-.04-.08-.23-.52-.45-.78-.33-.42-.67-.7-1-.97ZM255.14,412.44c.24-.43.38-.79.51-1.28.13-.52.14-1,.13-1.37,0-.27-.02-.52-.04-.75-.02-.4-.04-.75,0-1.04.02-.26.18-.58.5-1.03.09-.12.18-.24.28-.38.3-.4.65-.84.94-1.39.45-.86.67-1.63.72-2.41.07-1.07-.35-2.02-.61-2.5-.65-1.14-.93-1.67-.91-2.36,0-.29.05-.44.06-.45l.05-.05h0s0,0,.01,0c.07-.06.17-.14.26-.24.21-.21.36-.44.45-.69,0-.01,0-.03,0-.05l36.26-29.94,20.11,35.06c-1.04.7-1.72,1.88-1.72,3.23,0,.11.03.22.03.33l-58.78,9.25c.6-.48,1.24-1.08,1.75-1.95ZM263.79,435.08c-.75-.84-1.48-1.66-2.16-2.46-.93-1.08-1.79-2.14-2.57-3.16l-2.22-2.87c-1.31-1.65-2.29-3.03-3-4.04l-.06-.08c-.24-.48-.57-1.01-.94-1.62-.34-.55-.71-1.16-1.08-1.82-.34-.64-.68-1.39-.67-2.07,0-.49.17-.93,1.04-1.61.1-.08.22-.17.33-.25l59.79-9.41c.22.97.8,1.8,1.6,2.34l-25.96,44.84-23.55-17.17c-.18-.2-.36-.42-.54-.62ZM280.61,458.35c-.37-.67-.78-1.23-1.14-1.72-.17-.22-.32-.44-.46-.65-.19-.29-.36-.6-.54-.92-.17-.31-.35-.63-.55-.95-1.23-1.96-2.91-4.23-4.53-6.42l-.21-.29c-.8-1.08-1.62-2.2-2.34-3.37-.8-1.32-1.79-2.72-2.95-4.18-.63-.78-1.26-1.52-1.88-2.25l21.6,15.75-5.53,9.55s0-.03,0-.04l-.06-.46c-.05-.31-.11-.62-.18-.93-.26-1.06-.67-2.11-1.21-3.12ZM289.67,483.33c-.7-1.25-1.69-2.39-2.76-3.59-.41-.46-.82-.92-1.22-1.4-.84-1.01-1.43-1.92-1.87-2.87-.42-.84-.52-1.72-.32-3.13l.03-.25c.08-.62.16-1.33.13-2.08-.02-.45-.08-.9-.19-1.33-.22-.82-.73-1.31-1.01-1.58-.24-.21-.47-.34-.68-.46-.39-.21-.48-.28-.5-.54h0c.02-.09.08-.25.15-.43.05-.12.1-.24.15-.37.13-.32.28-.67.38-1.09l6.1-10.54,22.03,16.06-20.41,13.59ZM292.96,493.84c-1.23-1.94-1.9-3.36-2.1-4.46l-.03-.13c-.02-.09-.04-.17-.04-.24,0-.06.01-.14.03-.22.02-.11.04-.24.05-.36.08-.88.06-2.63-.93-4.61l20.63-13.73,12.87,9.38,2.28,22.12-30.71-1.79c.1-1.04-.21-2.05-.32-2.34-.45-1.44-1.12-2.62-1.72-3.62ZM296.56,539.07c.6-1.45.97-3.02,1.11-4.67.11-1.31.09-2.45.06-3.48-.02-.41-.04-.77-.06-1.1-.02-.25-.03-.47-.04-.67-.01-.3,0-.61,0-.92,0-.36,0-.74-.01-1.13-.1-2.89-.69-5.64-1.74-8.17-.54-1.35-1.24-2.67-1.93-3.95-.81-1.51-1.65-3.08-2.21-4.7-.27-.78-.42-1.47-.44-2.04-.02-.49.11-1.05.4-1.67.33-.71.78-1.41,1.26-2.14.37-.56.75-1.14,1.09-1.76.46-.83.74-1.57.88-2.29l30.86,1.8,1.96,19.07-31.88,19.35c.27-.51.52-1.01.72-1.5ZM285.62,553.76c.88-1.98,2.3-3.61,3.71-5.08l.9-.93c1.17-1.2,2.37-2.45,3.38-3.74.63-.83,1.19-1.64,1.67-2.44l32.5-19.72,1.51,14.69-12.57,15.01-31.83,4.4c.16-.75.39-1.48.72-2.17ZM284.51,561.26v-.95c.01-1.26.07-2.55.28-3.8l31.41-4.34-18.7,22.33-13.46-6.7c.46-2.17.46-4.39.46-6.55ZM276.68,596.6v-3.2c0-2.23.07-3.79.21-4.78.13-.91.42-1.9.74-2.94l.08-.27c.75-2.58,1.89-5.44,3.22-8.75l.8-1.99c.4-1.03.81-2.09,1.2-3.19l.24-.69c.27-.76.53-1.57.74-2.43l13.23,6.58-20.26,24.21c-.12-.8-.19-1.63-.19-2.55ZM284.55,614.66c-.98-2.39-2.5-4.77-3.97-7.08l-.32-.5c-1.27-1.96-2.79-4.54-3.27-7.12,0-.03,0-.06-.01-.09l20.67-24.69,34.22,17.03c-.19.46-.29.95-.29,1.48,0,.46.09.9.24,1.31l-46.85,20.73c-.14-.36-.26-.71-.42-1.08ZM289.68,628.77l-.55-1.1c-.73-1.43-1.35-2.67-1.72-3.69-.17-.48-.3-1.04-.44-1.64-.07-.3-.15-.62-.23-.95l-.08-.27c-.38-1.4-.84-3.07-1.49-4.86l46.88-20.75c.51.97,1.41,1.69,2.5,1.95l-4.29,25.4-37.06,11.71c-1.54-2.1-2.68-4.17-3.52-5.81ZM301.56,645.08c-1.6-2.4-3.33-4.43-5.01-6.39-.73-.85-1.43-1.68-2.1-2.5-.32-.38-.62-.76-.9-1.14l36.6-11.57-5.36,31.7-20.93-5.69c-.54-1.42-1.3-2.88-2.31-4.42ZM303.03,665.76c.15-.83.37-1.72.6-2.66.46-1.9.98-4.05,1.19-6.49.18-2.16,0-4.16-.54-5.91-.06-.19-.13-.39-.2-.58l20.62,5.61-4.21,24.94-17.99-11.39c.05-.95.22-2.1.53-3.52ZM306.66,691.16c-.16-1.51-.21-3.05-.26-4.54-.07-2.02-.14-3.93-.43-5.79-.25-1.65-.67-3.22-1.26-4.67-.25-.58-.49-1.13-.72-1.65-.3-.68-.58-1.32-.84-1.95l-.06-.14c-.23-.53-.45-1.02-.52-1.48-.05-.3-.08-.64-.08-1.01l17.91,11.34-1.25,7.4-11.98,5.45c-.23-.95-.4-1.92-.51-2.96ZM312.13,708.38c-1-1.83-1.98-4.3-2.97-7.55l-1.45-4.77c-.16-.46-.29-.91-.41-1.37l11.73-5.34-3.95,23.37c-.87-.92-1.9-2.42-2.95-4.33ZM320.54,716.83c-1.13-.95-2.2-1.68-3.15-2.32-.72-.49-1.34-.91-1.83-1.32,0,0,0,0,0,0l4.08-24.12,7.59-3.46,16.88,10.69-19.42,24.87c-1.29-1.73-2.76-3.13-4.14-4.34ZM328.73,734.27c-.3-3.16-.6-6.42-1.84-9.28-.52-1.25-1.17-2.35-1.87-3.36l19.56-25.04,15.69,9.94-1.51,8.82-29.79,21.17c-.08-.75-.16-1.5-.23-2.25ZM334.36,748.75c-.36-.48-.72-.96-1.08-1.44-1.01-1.38-2.16-2.95-2.85-4.57-.67-1.62-1.12-3.44-1.39-5.57l29.59-21.03-4.55,26.58-19.05,6.93c-.22-.29-.44-.59-.67-.89ZM345.44,782.46s-1.55-1.73-2.98-2.41c-.52-.26-1.09-.5-1.67-.74l-.47-.2c-.69-.29-1.41-.62-1.85-1.01-.38-.36-.51-.71-.41-1.17.04-.24.16-.54.3-.89.23-.56.51-1.27.64-2.16.11-.78-.08-1.76-.46-2.43-.37-.72-.86-1.25-1.2-1.59-.45-.45-.89-.82-1.29-1.17-.31-.27-.61-.52-.88-.79-1-.91-1.3-2.17-1.01-2.81.26-.58.82-1.14,1.48-1.5.11-.06.23-.12.35-.18.25-.12.53-.26.85-.46.7-.46,1.68-1.25,2.2-2.64.49-1.26.4-2.87-.25-4.52-.76-1.94-2.01-3.78-3.41-5.68l18.59-6.77-6.87,40.13c-.69-.28-1.27-.62-1.65-1.01ZM367.95,778.84c-.79.41-1.54.79-2.22.98-.6.16-1.3.22-2.07.19-.32-.01-.67-.05-1.04-.08-.48-.05-.97-.09-1.46-.1-.18,0-.37,0-.56,0-.89,0-1.63.09-2.31.29-1.03.3-1.85.84-2.46,1.24l-.84.57c-.92.62-1.79,1.22-2.58,1.58-.97.45-1.99.65-2.91.56-.65-.06-1.29-.2-1.88-.39l6.94-40.54,36.81-13.39c.32.72.86,1.32,1.54,1.73l-23.97,46.89c-.33.16-.66.33-.99.49ZM410.19,771.65c-1.27.45-2.6,1.81-2.61,1.82-.18.2-.82.41-1.24.54-.23.07-.48.14-.74.21-.26.06-.54.13-.77.15-.45.05-.98,0-1.6-.07l-.29-.03c-.88-.07-1.93-.08-2.87.23-1.02.4-1.68,1.04-2.22,1.56l-.3.29c-.32.3-.54.5-.75.63-.1.07-.21.12-.27.15-.05.02-.12.04-.19.06-.08.02-.15.05-.18.06-.69.18-1.45.26-2.03.3-1.14.09-2.23.11-3.19.12h-.64c-.71.02-1.34.06-1.87.11-.36.03-.68.05-1,.05-.78,0-1.71-.16-2.78-.35-.38-.07-.78-.14-1.21-.21l-.73-.1c-2.13-.29-4.62-.63-7.49-.49-1.76.09-3.55.49-5.04,1.11-.15.06-.29.13-.44.19l23.65-46.28c.47.2.98.31,1.52.31.42,0,.82-.08,1.2-.21l16.05,39.28c-.7.15-1.37.32-1.97.55ZM438.78,750.49c-2.05,2.25-4.2,4.77-6.57,7.7l-.12.15c-1.87,2.29-4.69,5.76-6.71,6.9-.68.39-1.39.89-2.14,1.42-1.39.98-2.96,2.1-4.85,2.81-.66.25-1.36.49-2.22.75-.69.22-1.26.36-2.02.5l-.25.05c-.4.07-.79.15-1.18.22l-16.08-39.37c.81-.4,1.46-1.06,1.83-1.89l44.51,16.12c-1.32,1.49-2.72,3.04-4.19,4.64ZM443.37,745.4l-44.73-16.2c.09-.34.16-.69.16-1.05,0-.2-.03-.39-.06-.58l46.35-10.46,1,.64,1.75,22.26c-1.29,1.69-2.81,3.49-4.48,5.39ZM457.27,725.41c-.9,1.02-1.7,2.12-2.38,3.26-.42.71-.74,1.41-1.02,2.04-.16.35-.31.68-.46.98-.53,1.03-1.54,2.51-2.82,4.39l-.37.54c-.54.87-1.18,1.78-1.88,2.72l-1.67-21.22,10.9,6.97c-.1.11-.21.21-.3.32ZM466.62,715.04c-1.63,2.81-3.84,5.03-6.16,7.23-.31.3-.63.6-.95.89-.52.49-1.04.99-1.55,1.51l-11.34-7.25-.05-.65,21.59-4.87c-.44,1.06-.94,2.11-1.54,3.14ZM470.12,706.11l-.19.62c-.46,1.5-.93,3.03-1.52,4.55l-21.88,4.94-4.37-55.54c.5-.08.96-.24,1.37-.49l27.91,40.75c-.29,1.5-.72,3.2-1.33,5.17ZM478.42,681.65c-1.95,1.06-3.67,2.06-4.91,3.55-1.59,1.82-1.93,3.87-1.99,4.92-.08,1.16.07,2.14.2,2.99l.03.22c.12.85.3,2.64.07,5.13-.05.53-.12,1.11-.22,1.72l-27.6-40.3c.89-.71,1.48-1.8,1.48-3.03,0-.24-.03-.48-.07-.71l38.49-10.06.42,32.84c-2.43,1.01-4.31,1.88-5.89,2.73ZM484.07,617.49l13.22,2.09c-.83,1.08-1.53,2.16-2.1,3.24-.92,1.74-1.55,3.59-1.79,5.35-.22,1.58-.15,3.19.22,4.94.47,2.13,1.22,3.76,1.82,5.08.18.4.35.77.49,1.11.31.76.61,1.68.9,2.81l-12.41,3.24-.36-27.87ZM498.34,657.49c-.16,2.19-.46,4.5-.91,6.87-.33,1.79-.92,4.44-2.18,6.79-1.05,2-2.61,3.63-4.64,4.84-1.65,1-3.47,1.75-5.23,2.48l-.52.22-.42-32.76,12.54-3.28c.23.93.46,1.99.7,3.23.74,3.75.96,7.66.66,11.61ZM497.92,641.83c-.31-1.18-.62-2.14-.95-2.95-.14-.35-.32-.73-.51-1.15-.58-1.27-1.3-2.85-1.74-4.85-.34-1.62-.41-3.11-.21-4.55.23-1.63.81-3.36,1.68-4.99,1.53-2.91,4-5.78,7.79-9.03,1.62-1.4,3.3-2.71,4.78-3.86l.7-.54c1.33-1.04,2.59-2.03,3.86-2.92,2.03-1.43,3.96-2.64,5.73-3.73l31.59,24.79-52.73,13.78ZM551.87,628.31l33.78-8.83c.04,1.74-.03,3.44-.26,5.08-.4,2.86-1.24,5.62-2.43,8-1.27,2.58-2.84,4.44-3.92,5.54-.95.95-1.9,1.61-2.66,2.14-.44.31-.83.59-1.14.85-.86.74-1.57,1.96-2.23,3.8l-21.13-16.58ZM586.75,619.19l16.04-4.19c.6,1.95,2.13,3.5,4.07,4.13l-10.99,39.65c-.25-.05-.5-.08-.77-.08-1.14,0-2.16.5-2.87,1.28l-18.3-14.36s.02-.08.03-.11c.61-1.77,1.26-2.94,2-3.57.28-.24.64-.49,1.05-.78.8-.56,1.79-1.25,2.81-2.27,1.14-1.16,2.79-3.12,4.13-5.83,1.24-2.48,2.12-5.37,2.53-8.34.25-1.78.33-3.63.27-5.52ZM602.65,614.46l-15.92,4.16c-.04-.84-.1-1.68-.2-2.54-.29-2.28-.74-4.51-1.37-6.81-.37-1.26-.74-2.33-1.04-3.2-.02-.07-.05-.13-.07-.2l18.66,5.7c-.13.5-.21,1.03-.21,1.57,0,.45.05.9.14,1.32ZM577.02,668.89c-.04-1.21.18-2.55.41-3.97.07-.4.13-.81.19-1.23.24-1.6.46-3.99-.35-6.23-.52-1.42-1.26-2.61-1.91-3.65-.24-.38-.47-.74-.68-1.11-.45-.77-.74-1.35-.92-1.89-.21-.56-.26-1.09-.29-1.8-.04-.97.06-1.92.29-2.82l18.12,14.21c-.42.62-.67,1.37-.67,2.18,0,.57.13,1.1.34,1.58l-14.21,7.61c-.17-.91-.28-1.88-.33-2.89ZM604.36,680.87c-.8.31-1.62.58-2.3.5-.19-.03-.38-.08-.59-.14-.3-.08-.64-.18-1.04-.23-1.17-.13-2.61.03-3.89.47-.98.32-1.92.79-2.84,1.24-.35.17-.7.35-1.05.51-1.18.56-2.2.83-3.11.83h-.14c-1.06-.02-2.04-.33-2.77-.6-.29-.11-.55-.22-.82-.32-1.21-.75-2.51-1.62-3.88-2.88-1.39-1.28-3.25-3.46-4.17-6.66-.12-.4-.22-.81-.31-1.23l14.36-7.69c.69,1.09,1.9,1.82,3.28,1.82.7,0,1.35-.2,1.92-.53l9.22,13.75c-.58.52-1.21.92-1.87,1.17ZM615.55,651.46c-.21.75-.4,1.47-.64,2.08-.1.26-.23.56-.38.88-.36.82-.81,1.84-1.16,3.04-.76,2.09-1.26,4.79-1.79,7.64-.34,1.86-.7,3.77-1.15,5.73-.69,2.88-1.44,4.97-2.38,6.59-.41.73-.89,1.36-1.41,1.89l-9.17-13.67c.91-.71,1.51-1.81,1.51-3.05,0-.64-.17-1.23-.44-1.76l17.31-10.46c-.11.37-.21.74-.31,1.09ZM622.03,634.17l-2.22,5.59c-1.15,2.85-2.6,6.52-3.63,9.61-.02.07-.04.14-.07.21l-17.84,10.78c-.46-.65-1.11-1.14-1.87-1.41l11-39.67c.45.1.93.17,1.41.17,1.16,0,2.25-.32,3.18-.87l10.06,15.55s-.01.03-.02.05ZM633.68,606.42l-1.93,5.43c-.5,1.39-1.13,2.97-1.98,4.98-.95,2.24-2.04,4.58-3.2,7.06-.65,1.39-1.31,2.81-1.97,4.27-.9,1.99-1.65,3.74-2.3,5.33l-9.85-15.22c1.6-1.14,2.65-3.01,2.65-5.13,0-.77-.15-1.5-.4-2.19l20.09-8.48c-.08,1.09-.55,2.42-1.12,3.94ZM636.19,591.28l-.25.75c-.75,2.24-1.61,5.43-1.43,7.87.03.52.12.95.2,1.34.05.23.08.42.1.61l-20.32,8.57c-.56-1.19-1.49-2.17-2.63-2.81l18.43-37.01c.46.19.96.3,1.48.3.48,0,.93-.1,1.35-.26l3.9,8.54c-.02.1-.05.21-.06.31-.12.76-.11,1.42-.08,2.03.06,1.24.25,2.3.4,3.08.03.15.07.3.11.43.05.17.09.33.11.49.13,1.51-.53,3.47-1.29,5.74ZM638.05,545.07c.49,1.08.79,2.14.97,2.84.08.33.16.64.22.92l.03.13c.2.96.51,2.24.88,3.76.62,2.55,1.39,5.71,2.08,9.19.39,2.01.7,3.94.93,5.75.06.36.09.71.13,1.06.05.51.11,1.03.22,1.57l.45,2.22.08.31c.07.28.13.52.11.71-.03.24-.22.55-.43.88-.26.41-.61.72-1.52.95-.2.05-.41.1-.63.15-.33.07-.68.15-1.06.26-.61.18-1.52.49-2.27,1.22-.35.34-.64.72-.88,1.19-.04.08-.05.15-.08.22l-3.65-7.98c1.21-.66,2.03-1.93,2.03-3.4,0-1.8-1.23-3.3-2.89-3.74l3.89-20.37c.5.5.99,1.23,1.4,2.14ZM618.37,569.53c.32-.73.62-1.41.98-1.96.14-.21.32-.43.53-.67.36-.42.8-.96,1.18-1.63.72-1.25,1.34-2.82,1.85-4.18l.14-.38c.54-1.42,1.1-2.89,1.92-4.23.79-1.32,1.76-2.27,3.29-3.2.77-.49,1.51-.99,2.12-1.65.57-.6,1.03-1.36,1.33-2.18.27-.75.35-1.43.41-1.97.03-.27.06-.52.11-.74.07-.3.26-.71.49-1.19.1-.22.21-.46.32-.69.34-.73.81-1.64,1.45-2.22.32-.28.61-.42.9-.42.24,0,.5.1.78.29l-3.95,20.67c-.15-.02-.3-.05-.45-.05-2.15,0-3.89,1.74-3.89,3.89,0,.31.05.61.12.9l-10.44,3.3c.31-.59.58-1.18.82-1.71ZM609.36,580.21c3.86-2.59,6.33-5.83,7.71-8.09.04-.06.06-.12.1-.18l10.99-3.48c.32.8.9,1.46,1.64,1.9l-18.43,37.02c-.78-.35-1.64-.54-2.55-.54-.38,0-.75.04-1.12.1l-5.35-23.62c2.5-.78,4.93-1.71,7.02-3.12ZM583.57,601.09l.04-.39c.3-2.99,1.54-6.28,3.5-9.28,1.01-1.65,2.31-2.99,3.88-4,1.46-.95,3.25-1.71,5.78-2.48.77-.23,1.54-.45,2.31-.66.9-.25,1.81-.51,2.72-.79l5.34,23.58c-1.99.54-3.59,2.04-4.27,3.97l-19.04-5.81c-.14-.42-.25-.78-.32-1.07-.2-.88-.08-1.94.05-3.06ZM582.75,605.47c.1.29.21.61.33.96.29.85.66,1.92,1.02,3.14.62,2.24,1.05,4.42,1.34,6.64.11.91.17,1.8.2,2.69l-34.31,8.97-31.76-24.93c.13-.08.26-.16.39-.24l2.23-1.38,4.2-3.18c2.73-2.08,5.81-4.43,9-7.14l47.37,14.46ZM546.94,576.83c-3.24,5.22-7.57,9.28-11.75,12.89-.19.16-.38.32-.57.48l-47.58-14.53c.06-.28.1-.57.1-.87,0-.81-.25-1.56-.67-2.19l40.13-31.72,21.96,32.95c-.48,1.01-1.01,2-1.61,2.98ZM549.78,530.11c.03.49.05.97.09,1.42.06,1.05.11,2.02.17,2.79-.06.47-.12,1.01-.16,1.63-.21,2.62-.12,6.19.25,10.07.11,1.26.25,2.59.41,3.98.35,3.17.74,6.76.79,10.54.05,3.13-.23,5.74-.88,8.2-.39,1.52-.94,3.03-1.61,4.51l-21.81-32.71,21.68-17.14c.83,2.28.96,4.62,1.08,6.7ZM542.83,513.69c.73,1.17,1.49,2.26,2.23,3.31,1.4,2,2.71,3.9,3.44,5.86l-21.78,17.22-19.98-29.98,34.92,1.43c.36.72.74,1.44,1.17,2.15ZM540.26,508.06c.3.98.67,1.95,1.12,2.92l-35.02-1.44-8.36-12.54,3.63-19.54,37.39,19.23c0,1.87.07,3.8.26,5.75l.02.13c.19,1.73.39,3.52.96,5.47ZM546.19,448.78c-.91,2.11-1.74,3.8-2.61,5.33-.74,1.31-1.85,2.56-3.03,3.88-.29.32-.58.65-.87.98-1.42,1.63-3.03,3.48-3.99,5.82-.25.63-.44,1.28-.52,1.82-.11.63-.17,1.21-.19,1.75-.06,1.34.26,2.69.88,3.7.45.75.95,1.33,1.39,1.84.17.19.33.38.48.57.54.69.97,1.34,1.3,1.97.35.76.74,1.52,1.1,2.23.37.72.72,1.41,1.01,2.06.85,1.74.5,3.38.03,4.76-.23.36-.45.76-.63,1.21-.65,1.5-1.14,3.76-1.37,6.35-.08.97-.12,1.99-.14,3.03l-37.29-19.18,3.64-19.57,41.06-9.15c-.08.2-.16.4-.25.6ZM550.32,439.22c-.94,1.85-1.83,4.02-2.78,6.31-.27.65-.56,1.34-.84,2.02l-41.21,9.18,5.85-31.45,39.74,12.49c-.25.46-.5.93-.76,1.45ZM556.46,429.96c-.81.98-1.53,1.99-2.06,2.91-.79.91-1.89,2.36-3.05,4.4l-39.76-12.5,18.88-20.56,27.89,23.54c-.68.77-1.33,1.51-1.9,2.21ZM578.42,402.91c-.23.26-.5.57-.82.94-.66.75-1.51,1.73-2.56,2.86l-.92,1.01c-1.1,1.19-2.34,2.54-3.64,4.1l-.29.35c-.74.9-1.5,1.84-2.28,3.11-.54,1.03-.95,2.08-1.35,3.08-.13.34-.27.68-.4,1.01l-.12.29c-.51,1.22-.95,2.27-1.65,2.99-.66.74-1.52,1.31-2.43,1.92l-.45.3c-.66.46-1.18.86-1.62,1.26-.44.39-.83.83-1.15,1.19l-27.88-23.53,9.6-10.45,44.93.95c-2.59,2.73-4.94,5.61-6.96,8.61ZM588.79,390.92c-1,.92-1.97,1.87-2.91,2.83l-44.93-.95,33.2-36.15,23.45,27.2c-3.15,2.21-6.12,4.59-8.82,7.07ZM608.11,375.66c-2.96,2.61-6.26,5.19-10.05,7.87l-23.53-27.28,17.42-18.96c.66.53,1.49.86,2.41.86.79,0,1.52-.24,2.13-.64l21.42,27.99c-2.86,3.54-6.15,6.96-9.79,10.17ZM639.8,325.65c-1.6,3.15-3.12,6.42-4.73,9.89-2.6,5.6-5.29,11.39-8.53,17.09-2.63,4.65-5.41,8.81-8.28,12.41l-21.34-27.88c.8-.71,1.32-1.74,1.32-2.9,0-.19-.03-.37-.06-.55l42.2-9.24c-.2.4-.38.78-.58,1.19ZM651.99,287.19c-.17,5.38-1.05,10.77-2.65,16.04-1.73,5.92-4.72,12.58-8.64,20.59l-42.63,9.33c-.16-.55-.44-1.05-.81-1.46l53.78-54.74c.11.14.27.41.41.82.18.51.31,1.14.43,1.97l.03.22c.06.51.12,1,.12,1.48v.34c.02.89.04,2.74-.04,5.41Z"/>
      <g class="cls-1">
        <path class="cls-5" d="M480.4,169.5c12.96,8.2,16.83,25.36,8.63,38.32-8.2,12.97-25.35,16.83-38.32,8.64-12.97-8.2-16.83-25.35-8.64-38.32,8.2-12.97,25.36-16.83,38.32-8.64Z"/>
      </g>
      <g class="cls-17">
        <path class="cls-3" d="M443.23,70.51c12.96,8.2,16.83,25.36,8.63,38.32-8.19,12.97-25.35,16.83-38.32,8.64-12.97-8.2-16.83-25.35-8.63-38.32,8.19-12.97,25.35-16.83,38.32-8.64Z"/>
      </g>
      <g class="cls-19">
        <path class="cls-2" d="M278.6,100.43c12.96,8.2,16.82,25.36,8.63,38.32-8.19,12.97-25.35,16.83-38.32,8.64-12.97-8.2-16.83-25.35-8.63-38.32,8.19-12.97,25.35-16.83,38.32-8.64Z"/>
      </g>
      <g class="cls-22">
        <path class="cls-4" d="M90.27,183.63c12.96,8.2,16.82,25.36,8.63,38.32-8.19,12.97-25.35,16.83-38.32,8.64-12.97-8.2-16.83-25.35-8.63-38.32,8.19-12.97,25.35-16.83,38.32-8.64Z"/>
      </g>
      <g class="cls-25">
        <path class="cls-29" d="M218.02,177.27c12.96,8.2,16.82,25.36,8.63,38.32-8.19,12.97-25.35,16.83-38.31,8.64-12.97-8.2-16.83-25.35-8.64-38.32,8.19-12.97,25.35-16.83,38.32-8.64Z"/>
      </g>
      <g class="cls-34">
        <path class="cls-27" d="M368.06,293.58c12.96,8.2,16.82,25.36,8.63,38.32-8.2,12.97-25.35,16.83-38.32,8.64-12.97-8.2-16.83-25.35-8.64-38.32,8.19-12.97,25.35-16.83,38.32-8.64Z"/>
      </g>
      <g class="cls-41">
        <path class="cls-28" d="M609.1,310.74c12.96,8.2,16.83,25.35,8.63,38.32-8.19,12.97-25.35,16.83-38.32,8.64-12.97-8.2-16.83-25.35-8.63-38.32,8.2-12.97,25.36-16.83,38.32-8.64Z"/>
      </g>
      <g class="cls-35">
        <path class="cls-26" d="M490.3,440.2c12.96,8.2,16.83,25.36,8.63,38.32-8.19,12.97-25.35,16.84-38.32,8.64-12.97-8.2-16.83-25.35-8.63-38.32,8.19-12.97,25.35-16.83,38.32-8.64Z"/>
      </g>
      <g class="cls-38">
        <path class="cls-30" d="M350.27,570.33c12.96,8.2,16.83,25.36,8.63,38.32-8.19,12.97-25.35,16.83-38.32,8.64-12.97-8.2-16.83-25.35-8.63-38.32,8.19-12.97,25.35-16.83,38.32-8.64Z"/>
      </g>
      <g class="cls-36">
        <path class="cls-32" d="M409.73,704.64c12.96,8.2,16.83,25.36,8.63,38.32-8.19,12.97-25.35,16.83-38.32,8.64-12.97-8.2-16.83-25.35-8.63-38.32,8.19-12.97,25.35-16.83,38.32-8.64Z"/>
      </g>
      <g class="cls-45">
        <path class="cls-31" d="M623.73,589.83c12.96,8.2,16.82,25.36,8.63,38.32-8.2,12.97-25.35,16.83-38.32,8.64-12.97-8.2-16.83-25.35-8.63-38.32,8.19-12.97,25.35-16.83,38.32-8.64Z"/>
      </g>
    </g>
  </g>
</svg>