<?xml version="1.0" encoding="UTF-8"?>
<svg id="Calque_2" xmlns="http://www.w3.org/2000/svg" xmlns:xlink="http://www.w3.org/1999/xlink" version="1.1" viewBox="0 0 842 1564.3">
  <!-- Generator: Adobe Illustrator 29.7.1, SVG Export Plug-In . SVG Version: 2.1.1 Build 8)  -->
  <defs>
    <style>
      .st0 {
        fill: none;
      }

      .st1 {
        fill: url(#Dégradé_sans_nom_9);
      }

      .st2 {
        fill: url(#Dégradé_sans_nom_4);
      }

      .st3 {
        fill: url(#Dégradé_sans_nom_5);
      }

      .st4 {
        fill: url(#Dégradé_sans_nom_2);
      }

      .st5 {
        fill: url(#Dégradé_sans_nom_3);
      }

      .st6 {
        fill: #6634c6;
      }

      .st7 {
        fill: #707070;
      }

      .st8 {
        isolation: isolate;
      }

      .st9 {
        stroke: #565656;
        stroke-miterlimit: 10;
        stroke-width: 12px;
      }

      .st10 {
        clip-path: url(#clippath-1);
      }

      .st11 {
        fill: #fff;
      }

      .st12 {
        fill: url(#Dégradé_sans_nom);
      }

      .st13 {
        fill: #d8a5ff;
      }

      .st14 {
        fill: #333;
      }

      .st15 {
        clip-path: url(#clippath);
      }
    </style>
    <clipPath id="clippath">
      <rect class="st0" x="44.2" width="786.9" height="1581.5"/>
    </clipPath>
    <linearGradient id="Dégradé_sans_nom" data-name="Dégradé sans nom" x1="-1931" y1="-4472.9" x2="-1931" y2="-4285.3" gradientTransform="translate(2726.5 -3803.5) scale(1 -1)" gradientUnits="userSpaceOnUse">
      <stop offset="0" stop-color="#6d6e71"/>
      <stop offset="0" stop-color="#949597"/>
      <stop offset="0" stop-color="#b5b6b8"/>
      <stop offset="0" stop-color="#cfd0d1"/>
      <stop offset="0" stop-color="#e2e3e3"/>
      <stop offset=".1" stop-color="#edeeee"/>
      <stop offset=".1" stop-color="#f1f2f2"/>
      <stop offset=".2" stop-color="#e2e3e3"/>
      <stop offset=".2" stop-color="#cccdcf"/>
      <stop offset=".2" stop-color="#bbbdbf"/>
      <stop offset=".3" stop-color="#afb1b4"/>
      <stop offset=".3" stop-color="#a8aaad"/>
      <stop offset=".5" stop-color="#a7a9ac"/>
      <stop offset=".7" stop-color="#a8aaad"/>
      <stop offset=".8" stop-color="#afb1b4"/>
      <stop offset=".8" stop-color="#bbbdbf"/>
      <stop offset=".8" stop-color="#cccdcf"/>
      <stop offset=".9" stop-color="#e2e3e3"/>
      <stop offset=".9" stop-color="#f1f2f2"/>
      <stop offset=".9" stop-color="#e9eaea"/>
      <stop offset=".9" stop-color="#d4d5d5"/>
      <stop offset=".9" stop-color="#b2b3b3"/>
      <stop offset="1" stop-color="#838485"/>
      <stop offset="1" stop-color="#58595b"/>
    </linearGradient>
    <linearGradient id="Dégradé_sans_nom_2" data-name="Dégradé sans nom 2" x1="-2669.3" y1="-4361" x2="-2669.3" y2="-4244.4" gradientTransform="translate(2726.5 -3803.5) scale(1 -1)" gradientUnits="userSpaceOnUse">
      <stop offset="0" stop-color="#6d6e71"/>
      <stop offset="0" stop-color="#949597"/>
      <stop offset="0" stop-color="#b5b6b8"/>
      <stop offset="0" stop-color="#cfd0d1"/>
      <stop offset="0" stop-color="#e2e3e3"/>
      <stop offset=".1" stop-color="#edeeee"/>
      <stop offset=".1" stop-color="#f1f2f2"/>
      <stop offset=".2" stop-color="#e2e3e3"/>
      <stop offset=".2" stop-color="#cccdcf"/>
      <stop offset=".2" stop-color="#bbbdbf"/>
      <stop offset=".3" stop-color="#afb1b4"/>
      <stop offset=".3" stop-color="#a8aaad"/>
      <stop offset=".5" stop-color="#a7a9ac"/>
      <stop offset=".7" stop-color="#a8aaad"/>
      <stop offset=".8" stop-color="#afb1b4"/>
      <stop offset=".8" stop-color="#bbbdbf"/>
      <stop offset=".8" stop-color="#cccdcf"/>
      <stop offset=".9" stop-color="#e2e3e3"/>
      <stop offset=".9" stop-color="#f1f2f2"/>
      <stop offset=".9" stop-color="#e9eaea"/>
      <stop offset=".9" stop-color="#d4d5d5"/>
      <stop offset=".9" stop-color="#b2b3b3"/>
      <stop offset="1" stop-color="#838485"/>
      <stop offset="1" stop-color="#58595b"/>
    </linearGradient>
    <linearGradient id="Dégradé_sans_nom_3" data-name="Dégradé sans nom 3" x1="-2669.3" y1="-4193.3" x2="-2669.3" y2="-4120.4" gradientTransform="translate(2726.5 -3803.5) scale(1 -1)" gradientUnits="userSpaceOnUse">
      <stop offset="0" stop-color="#6d6e71"/>
      <stop offset="0" stop-color="#949597"/>
      <stop offset="0" stop-color="#b5b6b8"/>
      <stop offset="0" stop-color="#cfd0d1"/>
      <stop offset="0" stop-color="#e2e3e3"/>
      <stop offset=".1" stop-color="#edeeee"/>
      <stop offset=".1" stop-color="#f1f2f2"/>
      <stop offset=".2" stop-color="#e2e3e3"/>
      <stop offset=".2" stop-color="#cccdcf"/>
      <stop offset=".2" stop-color="#bbbdbf"/>
      <stop offset=".3" stop-color="#afb1b4"/>
      <stop offset=".3" stop-color="#a8aaad"/>
      <stop offset=".5" stop-color="#a7a9ac"/>
      <stop offset=".7" stop-color="#a8aaad"/>
      <stop offset=".8" stop-color="#afb1b4"/>
      <stop offset=".8" stop-color="#bbbdbf"/>
      <stop offset=".8" stop-color="#cccdcf"/>
      <stop offset=".9" stop-color="#e2e3e3"/>
      <stop offset=".9" stop-color="#f1f2f2"/>
      <stop offset=".9" stop-color="#e9eaea"/>
      <stop offset=".9" stop-color="#d4d5d5"/>
      <stop offset=".9" stop-color="#b2b3b3"/>
      <stop offset="1" stop-color="#838485"/>
      <stop offset="1" stop-color="#58595b"/>
    </linearGradient>
    <linearGradient id="Dégradé_sans_nom_4" data-name="Dégradé sans nom 4" x1="-2669.3" y1="-4507.5" x2="-2669.3" y2="-4390.9" gradientTransform="translate(2726.5 -3803.5) scale(1 -1)" gradientUnits="userSpaceOnUse">
      <stop offset="0" stop-color="#6d6e71"/>
      <stop offset="0" stop-color="#949597"/>
      <stop offset="0" stop-color="#b5b6b8"/>
      <stop offset="0" stop-color="#cfd0d1"/>
      <stop offset="0" stop-color="#e2e3e3"/>
      <stop offset=".1" stop-color="#edeeee"/>
      <stop offset=".1" stop-color="#f1f2f2"/>
      <stop offset=".2" stop-color="#e2e3e3"/>
      <stop offset=".2" stop-color="#cccdcf"/>
      <stop offset=".2" stop-color="#bbbdbf"/>
      <stop offset=".3" stop-color="#afb1b4"/>
      <stop offset=".3" stop-color="#a8aaad"/>
      <stop offset=".5" stop-color="#a7a9ac"/>
      <stop offset=".7" stop-color="#a8aaad"/>
      <stop offset=".8" stop-color="#afb1b4"/>
      <stop offset=".8" stop-color="#bbbdbf"/>
      <stop offset=".8" stop-color="#cccdcf"/>
      <stop offset=".9" stop-color="#e2e3e3"/>
      <stop offset=".9" stop-color="#f1f2f2"/>
      <stop offset=".9" stop-color="#e9eaea"/>
      <stop offset=".9" stop-color="#d4d5d5"/>
      <stop offset=".9" stop-color="#b2b3b3"/>
      <stop offset="1" stop-color="#838485"/>
      <stop offset="1" stop-color="#58595b"/>
    </linearGradient>
    <linearGradient id="Dégradé_sans_nom_5" data-name="Dégradé sans nom 5" x1="427.3" y1="-501.5" x2="427.3" y2="985.1" gradientTransform="translate(0 1027) scale(1 -1)" gradientUnits="userSpaceOnUse">
      <stop offset="0" stop-color="#fff"/>
      <stop offset="1" stop-color="#563491"/>
    </linearGradient>
    <clipPath id="clippath-1">
      <path class="st0" d="M69.6,451.9V168.5s-2.7-143.3,119-130.9c117,0,0,0,0,0h510s84.5,9.6,82.4,192.4,0,0,0,0v1190.2c0,74.2-59,111.4-133.2,111.4H212.5c-78.3,0-142.9-40.6-142.9-118.9V451.9Z"/>
    </clipPath>
    <linearGradient id="Dégradé_sans_nom_9" data-name="Dégradé sans nom 9" x1="140.3" y1="662.5" x2="706.6" y2="662.5" gradientUnits="userSpaceOnUse">
      <stop offset="0" stop-color="#000"/>
      <stop offset="0" stop-color="#010002"/>
      <stop offset=".5" stop-color="#2e1c4e"/>
      <stop offset=".8" stop-color="#4b2d7e"/>
      <stop offset="1" stop-color="#563491"/>
    </linearGradient>
  </defs>
  <g id="Layer_1">
    <g class="st15">
      <g>
        <g>
          <rect class="st12" x="788.9" y="481.8" width="13.2" height="187.6"/>
          <rect class="st4" x="53.9" y="440.9" width="6.6" height="116.6"/>
          <rect class="st5" x="53.9" y="316.9" width="6.6" height="72.9"/>
          <rect class="st2" x="53.9" y="587.4" width="6.6" height="116.6"/>
          <g>
            <rect class="st9" x="64.1" y="26.5" width="727.5" height="1515.5" rx="96.5" ry="96.5"/>
            <image class="st8" width="3359" height="6643" transform="translate(24.8 -13.1) scale(.2)" xlink:href="testhero-1.png"/>
          </g>
        </g>
        <path class="st3" d="M684.9,41.9H169.7c-51.1,0-92.6,40-92.6,89.2v1308.1c0,49.3,41.5,89.2,92.6,89.2h515.2c51.1,0,92.6-39.9,92.6-89.2V131.1c0-49.3-41.4-89.2-92.6-89.2h0ZM531.7,108.2c-5.6,5.4-13.4,8.8-22,8.8h-164.6c-17.2,0-31.2-13.4-31.2-30s3.5-15.8,9.1-21.2,13.4-8.8,22-8.8h164.6c17.2,0,31.2,13.5,31.2,30s-3.5,15.8-9.1,21.2Z"/>
        <g>
          <circle class="st14" cx="486.7" cy="93.6" r="13.5"/>
          <circle class="st7" cx="489.2" cy="89.2" r="5.4"/>
          <circle class="st6" cx="484.8" cy="99.9" r="4.4"/>
        </g>
      </g>
    </g>
  </g>
  <g class="st10">
    <image width="608" height="1312" transform="translate(76.9 37.4) scale(1.1)" xlink:href="../../../../Capture d’écran 2025-08-19 à 09.43.46.png"/>
  </g>
  <g>
    <rect class="st1" x="140.3" y="483.8" width="566.3" height="357.2" rx="34.4" ry="34.4"/>
    <g id="SVGRepo_iconCarrier">
      <path class="st11" d="M597.9,544l6.9-40.3h11l-6.9,40.3h-11ZM648.5,504.6c-2.2-.8-5.6-1.7-9.8-1.7-10.9,0-18.5,5.5-18.6,13.3,0,5.8,5.5,9,9.6,10.9,4.3,2,5.7,3.2,5.7,5,0,2.7-3.4,3.9-6.6,3.9s-6.7-.6-10.3-2.1l-1.4-.6-1.5,9c2.6,1.1,7.3,2.1,12.2,2.2,11.5,0,19-5.4,19.1-13.8,0-4.6-2.9-8.1-9.2-10.9-3.8-1.9-6.2-3.1-6.2-5,0-1.7,2-3.5,6.3-3.5,3.6,0,6.2.7,8.2,1.5l1,.5,1.5-8.7M676.8,503.7h-8.5c-2.6,0-4.6.7-5.8,3.3l-16.3,36.9h11.5s1.9-5,2.3-6.1c1.3,0,12.5,0,14.1,0,.3,1.4,1.3,6,1.3,6h10.2l-8.9-40.3h0ZM663.3,529.7c.9-2.3,4.4-11.3,4.4-11.3,0,.1.9-2.3,1.5-3.8l.7,3.5s2.1,9.6,2.5,11.6h-9.1s0,0,0,0ZM588.5,503.7l-10.8,27.5-1.1-5.6c-2-6.4-8.2-13.4-15.2-16.9l9.8,35.2h11.6s17.3-40.2,17.3-40.2h-11.6"/>
      <path class="st11" d="M567.7,503.7h-17.7v.8c13.6,3.3,22.8,11.4,26.5,21.1l-3.9-18.5c-.7-2.6-2.6-3.3-5-3.4"/>
    </g>
    <g>
      <g>
        <path class="st13" d="M251.6,529c-2.2,0-3.9-.5-5.1-1.6-1.2-1.1-1.8-2.4-1.8-4.2s.6-3.2,1.9-4.2c1.3-1,3.1-1.5,5.5-1.5h5.3v-.7c0-2-1.2-3-3.6-3s-3.3.7-3.7,2.1h-5.1c.4-2,1.4-3.6,2.9-4.6,1.5-1,3.5-1.6,6-1.6s4.8.6,6.3,1.8c1.4,1.2,2.2,3,2.2,5.4v6.5h2.4v5h-5.2v-3h-1.3c-.6,1.1-1.5,1.9-2.5,2.5-1.1.6-2.4.9-4,.9ZM252.3,525.1c1,0,1.8-.2,2.5-.5.7-.3,1.3-.8,1.7-1.4s.6-1.2.6-2v-.3h-5c-1.8,0-2.8.7-2.8,2.1s.3,1.2.8,1.6c.5.4,1.2.6,2.1.6Z"/>
        <path class="st13" d="M268.4,528.7v-13.4h-2.5v-5h5.2v3.6h1.3c.5-1.3,1.3-2.2,2.3-2.9,1.1-.6,2.3-1,3.6-1h1.6v4.4h-1.8c-1.6,0-2.8.5-3.5,1.3-.7.9-1.1,2.1-1.1,3.6v9.3h-5Z"/>
        <path class="st13" d="M289.5,528.7c-1.9,0-3.4-.4-4.7-1.2-1.3-.8-2.3-1.9-2.9-3.3s-1-3.1-1-4.9.3-3.5,1-5c.6-1.4,1.6-2.5,2.8-3.3,1.2-.8,2.7-1.2,4.5-1.2s2.5.2,3.4.7c1,.5,1.7,1.2,2.2,2.1h.1v-9.7h5v20.4h2.5v5h-5.1v-3h-1.3c-.6,1-1.5,1.9-2.6,2.4-1.1.6-2.4.9-3.9.9ZM290.4,524.3c1.3,0,2.4-.4,3.2-1.1s1.2-1.8,1.2-3.1v-1.6c0-1.3-.4-2.4-1.2-3.1-.8-.8-1.9-1.1-3.2-1.1s-2.7.5-3.4,1.4c-.8.9-1.1,2.1-1.1,3.7s.4,2.8,1.1,3.7c.8.9,1.9,1.4,3.4,1.4Z"/>
        <g>
          <g>
            <path d="M165.5,528.2l-3.8-3s0,0,0,0v-22.1c0-.1.1-.2.2-.1l22.3,17.2s.1,0,.2,0l22.3-17.2c0,0,.2,0,.2.1v4.7s0,0,0,.1l-22.5,17.1s-.1,0-.2,0l-18.2-13.9c0,0-.2,0-.2.1v16.9c0,.1-.1.2-.2,0Z"/>
            <path d="M206.7,513.2v12.5s0,0,0,.1l-4,3.1c0,0-.2,0-.2-.1v-12.6s0,0,0-.1l4-3.1c0,0,.2,0,.2.1Z"/>
          </g>
          <g>
            <path class="st13" d="M165.5,528.2l-3.8-3s0,0,0,0v-22.1c0-.1.1-.2.2-.1l22.3,17.2s.1,0,.2,0l22.3-17.2c0,0,.2,0,.2.1v4.7s0,0,0,.1l-22.5,17.1s-.1,0-.2,0l-18.2-13.9c0,0-.2,0-.2.1v16.9c0,.1-.1.2-.2,0Z"/>
            <path class="st13" d="M206.7,513.2v12.5s0,0,0,.1l-4,3.1c0,0-.2,0-.2-.1v-12.6s0,0,0-.1l4-3.1c0,0,.2,0,.2.1Z"/>
          </g>
        </g>
        <g>
          <path class="st13" d="M243.8,538.6c-.4,0-.7,0-.9-.2-.3-.1-.5-.3-.6-.6h-.3v.7h-.9v-.9h.4v-5.3h.8v2.5h0c.1-.3.3-.5.6-.6.3-.1.6-.2.9-.2s.8,0,1.1.3c.3.2.5.5.7.8.2.3.2.8.2,1.2s0,.9-.2,1.2c-.2.3-.4.6-.7.8-.3.2-.7.3-1.1.3ZM243.7,537.9c.4,0,.8-.1,1-.4.2-.3.4-.7.4-1.2s-.1-.9-.4-1.2c-.2-.3-.6-.4-1-.4s-.7.1-1,.3-.4.5-.4.9v.7c0,.4.1.7.4.9.2.2.6.3,1,.3Z"/>
          <path class="st13" d="M246.6,540.3v-.7h1.1l.5-1.1-2-4.4h.9l1.5,3.5h0l1.4-3.5h.8l-1.9,4.4-.4,1c0,.2-.2.4-.3.5,0,.1-.3.2-.5.2h-1.1Z"/>
        </g>
        <g>
          <g>
            <polygon class="st13" points="256.7 538.5 255.5 537.6 255.5 530.9 262.3 536.1 269 530.9 269 532.4 262.3 537.5 256.7 533.3 256.7 538.5"/>
            <polygon class="st13" points="269 533.9 269 537.7 267.7 538.7 267.7 534.9 269 533.9"/>
          </g>
          <path class="st13" d="M271.5,531.1h1.1v7.4h-1.1v-7.4Z"/>
          <path class="st13" d="M276.5,533.9v.4s.1-.2.1-.2l2.7-3h1.5l-2.9,3.2,3.1,4.1h-1.4l-2.4-3.4-.5.5v2.9h-1.2v-7.4h1.2v2.8Z"/>
          <path class="st13" d="M282.2,538.5l3.1-7.4h0l3.1,7.4h-1.3l-2.2-5.6.8-.5-2.5,6.1h-1.1ZM284.1,535.9h2.4l.4,1h-3.2l.3-1Z"/>
          <path class="st13" d="M289.5,531.1h4.8v1.1h-1.8v6.2h-1.1v-6.2h-1.8v-1.1Z"/>
          <path class="st13" d="M298.3,536.1l-2.6-5h1.4l2,4h-.3s2-4,2-4h1.4l-2.7,5v2.4h-1.1v-2.4Z"/>
        </g>
        <path class="st13" d="M231.5,529c-2.6,0-4.8-.5-6.7-1.6-1.9-1.1-3.4-2.6-4.4-4.5s-1.6-4.2-1.6-6.8.5-4.9,1.6-6.9c1.1-1.9,2.5-3.4,4.4-4.5,1.9-1.1,4.1-1.6,6.7-1.6s3.9.4,5.5,1.1c1.6.7,2.9,1.7,3.9,3,1,1.3,1.7,2.9,1.9,4.7h-5.4c-.2-1.3-.9-2.4-1.9-3.1-1.1-.7-2.4-1.1-4-1.1-2.3,0-4.1.7-5.5,2.2-1.3,1.5-2,3.5-2,6.1s.7,4.6,2,6.1c1.3,1.5,3.2,2.2,5.5,2.2s2.9-.4,4-1.1c1.1-.7,1.7-1.8,1.9-3.1h5.4c-.3,1.8-.9,3.4-1.9,4.7-1,1.3-2.3,2.3-3.9,3-1.6.7-3.4,1.1-5.5,1.1Z"/>
      </g>
      <rect class="st13" x="210.7" y="509.9" width="4.4" height="18.8"/>
      <circle class="st13" cx="212.9" cy="505.7" r="2.8"/>
    </g>
    <g>
      <path id="path1435" class="st11" d="M580.3,796.3l.4-2.5h-10.8c-1.1,0-2.2.9-2.4,2l-4.2,23.7h0c-.2,1.1.5,2.1,1.7,2.1h11.8l.4-2.5h-10.2l1.9-10.6h8.3l.4-2.5h-8.3l1.7-9.7h9.2Z"/>
      <path id="path1437" class="st11" d="M585.6,822c-4.8,0-7.5-4.3-6.3-11.3,1.3-7.2,5.5-11.3,10.4-11.3s4,.9,4.6,1.5l-1.2,2.1c-.6-.5-1.4-1.1-3.1-1.1-4,0-6.1,3.6-7,8.7-.9,5.2.3,8.8,3.8,8.8s2.6-.5,3.5-1.1l.5,2.2c-1,.8-2.7,1.5-5.2,1.5"/>
      <path id="path1439" class="st11" d="M604.2,801.7c-4.2,0-5.8,4.7-6.6,9.1-.8,4.4-.7,8.8,3.4,8.8s5.7-4.5,6.5-8.8c.8-4.4.8-9.1-3.3-9.1M600.6,822c-6,0-7.7-4.9-6.6-11.3,1.1-6.5,4.6-11.3,10.5-11.3s7.7,4.8,6.5,11.3c-1.1,6.4-4.6,11.3-10.5,11.3"/>
      <path id="path1441" class="st11" d="M644.2,809.3c-5.6.7-9.1,1.9-9.9,6.3-.6,3.2,1.2,4.5,4.4,4.5s2.8-.2,3.7-.7l1.8-10ZM638,822c-5.7,0-7.9-2.5-7.2-6.4,1-5.8,6.7-7.5,13.6-8.2l.2-1.3c.6-3.4-1.3-4.3-4.1-4.3s-4.2.8-5.5,1.4l-.5-2.1c1.4-.7,4-1.6,7-1.6s7.3,1.7,6.4,7.1l-2.5,14c-1.8.9-4.5,1.5-7.5,1.5"/>
      <path id="path1443" class="st11" d="M660.5,821.6l2.8-15.7c.4-2-.1-4.2-3.8-4.2s-3,.3-4.3.8l-3.4,19.1h-3.6l3.6-20.7c2.1-.9,4.8-1.5,8.2-1.5,6.1,0,7.3,3.4,6.7,6.5l-2.8,15.7h-3.6Z"/>
      <path id="path1447" class="st11" d="M626.7,810.5c-1,5.5-3.4,9.3-7.9,9.3s-2.2-.1-3-.5l2.9-16.7c1.1-.6,2.1-.8,3.7-.8,4.1,0,5.1,4,4.2,8.8M623.7,799.5c-2.1,0-3.4.4-4.6,1l1.9-10.6-3.9,2.3-5,28.3c1.1.9,3.3,1.5,6.2,1.5,6.5,0,10.7-4.7,12-11.7,1.2-6.6-1.5-10.8-6.6-10.8"/>
      <path id="path1449" class="st11" d="M685.8,799.8h-3.7l-9.6,10.1h0l2.4-13.8c2.4-13.7-12.3-16.5-27.7-14.2-10.5,1.6-19.7,5.8-19.7,5.8,0,0,12.1-4.2,22.7-4.8,13.4-.8,23.9,1.3,20.8,15.5l-4.1,23.3h3.5l2-11.3h0l6.4,11.3h4l-7.1-11.6,10.1-10.2Z"/>
    </g>
    <g>
      <path class="st11" d="M174.8,639.3v15.2s-1.8,0-1.8,0l-9-11.4v11.4s-2.2,0-2.2,0v-15.2s1.8,0,1.8,0l9,11.4v-11.4s2.2,0,2.2,0Z"/>
      <path class="st11" d="M177.9,648.8c0-3.4,2.5-5.9,6-5.9,3.4,0,5.9,2.4,5.9,5.9,0,3.4-2.5,5.9-5.9,5.9-3.4,0-6-2.5-5.9-5.9ZM187.7,648.8c0-2.5-1.6-4-3.8-4.1-2.2,0-3.9,1.6-3.9,4,0,2.5,1.7,4.1,3.9,4.1,2.2,0,3.8-1.6,3.8-4.1Z"/>
      <path class="st11" d="M211.7,647.9v6.6s-2.1,0-2.1,0v-6.4c0-2.3-1.1-3.4-2.9-3.4-2.1,0-3.4,1.3-3.4,3.8v5.9s-2.1,0-2.1,0v-6.4c0-2.3-1.1-3.4-2.9-3.4-2.1,0-3.4,1.3-3.4,3.8v5.9s-2.1,0-2.1,0v-11.5s2,0,2,0v1.7c.8-1.2,2.2-1.8,3.9-1.8,1.7,0,3.2.7,4,2.1.9-1.3,2.5-2.1,4.4-2.1,2.8,0,4.7,1.6,4.7,5Z"/>
      <path class="st11" d="M233.1,648.8c0,3.5-2.4,5.9-5.8,5.9-1.6,0-3-.6-4-1.9v6s-2.1,0-2.1,0v-15.7s2,0,2,0v1.8c.9-1.3,2.4-1.9,4.1-1.9,3.3,0,5.8,2.4,5.8,5.9ZM231,648.8c0-2.4-1.7-4-3.9-4.1-2.2,0-3.8,1.6-3.8,4,0,2.5,1.7,4.1,3.8,4.1,2.2,0,3.9-1.6,3.9-4.1Z"/>
      <path class="st11" d="M242.1,643v2c-.2,0-.3,0-.5,0-2.2,0-3.6,1.4-3.6,3.9v5.7s-2.1,0-2.1,0v-11.5s2,0,2,0v1.9c.7-1.3,2.2-2,4.2-2Z"/>
      <path class="st11" d="M254.9,649.6h-9.3c.3,2,1.9,3.4,4.1,3.4,1.3,0,2.5-.5,3.3-1.4l1.1,1.4c-1,1.2-2.6,1.9-4.5,1.9-3.7,0-6.1-2.5-6.1-5.9,0-3.4,2.4-5.9,5.7-5.9,3.3,0,5.6,2.4,5.6,5.9,0,.2,0,.4,0,.6ZM245.6,648.1h7.3c-.2-1.9-1.7-3.3-3.7-3.3-2,0-3.5,1.3-3.7,3.3ZM249.6,641.4h-1.9s2.9-2.8,2.9-2.8h2.6s-3.6,2.8-3.6,2.8Z"/>
      <path class="st11" d="M268.6,648v6.6s-2.1,0-2.1,0v-6.4c0-2.3-1.1-3.4-3.1-3.4-2.2,0-3.6,1.3-3.6,3.8v5.9s-2.1,0-2.1,0v-11.5s2,0,2,0v1.7c.8-1.2,2.3-1.8,4.1-1.8,2.8,0,4.7,1.6,4.7,5Z"/>
      <path class="st11" d="M271.5,648.9c0-3.4,2.5-5.9,6-5.9s5.9,2.4,5.9,5.9c0,3.4-2.5,5.9-5.9,5.9s-6-2.5-5.9-5.9ZM281.3,648.9c0-2.5-1.6-4-3.8-4.1-2.2,0-3.9,1.6-3.9,4,0,2.5,1.7,4.1,3.9,4.1,2.2,0,3.8-1.6,3.8-4.1Z"/>
      <path class="st11" d="M305.2,648.1v6.6s-2.1,0-2.1,0v-6.4c0-2.3-1.1-3.4-2.9-3.4-2.1,0-3.4,1.3-3.4,3.8v5.9s-2.1,0-2.1,0v-6.4c0-2.3-1.1-3.4-2.9-3.4-2.1,0-3.4,1.3-3.4,3.8v5.9s-2.1,0-2.1,0v-11.5s2,0,2,0v1.7c.8-1.2,2.2-1.8,3.9-1.8,1.7,0,3.2.7,4,2.1.9-1.3,2.5-2.1,4.4-2.1,2.8,0,4.7,1.6,4.7,5Z"/>
    </g>
    <g>
      <path class="st11" d="M175.4,701.5v15.6s-1.9,0-1.9,0l-9.4-11.7v11.7s-2.2,0-2.2,0v-15.6s1.9,0,1.9,0l9.4,11.7v-11.7s2.2,0,2.2,0Z"/>
      <path class="st11" d="M190.8,705.3v11.8s-2,0-2,0v-1.8c-.9,1.2-2.3,1.9-4,1.9-3.1,0-5.1-1.7-5.1-5.2v-6.8s2.2,0,2.2,0v6.6c0,2.3,1.1,3.5,3.2,3.5,2.2,0,3.7-1.4,3.7-3.9v-6.1s2.2,0,2.2,0Z"/>
      <path class="st11" d="M214.5,710.4v6.8s-2.2,0-2.2,0v-6.6c0-2.3-1.1-3.5-3-3.5-2.1,0-3.6,1.4-3.6,3.9v6.1s-2.2,0-2.2,0v-6.6c0-2.3-1.1-3.5-3-3.5-2.1,0-3.6,1.4-3.6,3.9v6.1s-2.2,0-2.2,0v-11.8s2.1,0,2.1,0v1.8c.8-1.2,2.3-1.9,4.1-1.9,1.8,0,3.3.7,4.1,2.2.9-1.3,2.5-2.2,4.6-2.2,2.9,0,4.8,1.7,4.8,5.1Z"/>
      <path class="st11" d="M229.2,712h-9.6c.3,2.1,1.9,3.5,4.3,3.5,1.4,0,2.5-.5,3.4-1.4l1.2,1.4c-1.1,1.2-2.7,1.9-4.7,1.9-3.8,0-6.4-2.5-6.4-6.1,0-3.5,2.5-6,5.9-6,3.4,0,5.8,2.5,5.8,6.1,0,.2,0,.4,0,.6ZM219.6,710.5h7.6c-.2-2-1.7-3.4-3.8-3.4-2.1,0-3.6,1.4-3.8,3.4ZM223.7,703.7h-2s3-2.9,3-2.9h2.7s-3.8,2.9-3.8,2.9Z"/>
      <path class="st11" d="M238.6,705.3v2.1c-.2,0-.3,0-.5,0-2.3,0-3.7,1.4-3.7,4v5.9s-2.2,0-2.2,0v-11.8s2.1,0,2.1,0v2c.8-1.4,2.2-2.1,4.3-2.1Z"/>
      <path class="st11" d="M240,711.3c0-3.5,2.6-6,6.2-6,3.6,0,6.1,2.5,6.1,6,0,3.5-2.6,6.1-6.2,6-3.6,0-6.2-2.5-6.2-6.1ZM250.2,711.3c0-2.5-1.7-4.2-4-4.2s-4,1.6-4,4.1c0,2.5,1.7,4.2,4,4.2s4-1.6,4-4.2Z"/>
      <path class="st11" d="M272.5,700.7v16.6s-2.1,0-2.1,0v-1.9c-1,1.3-2.5,2-4.2,2-3.5,0-6-2.4-6-6.1,0-3.6,2.5-6,6-6,1.7,0,3.1.6,4.1,1.9v-6.5s2.2,0,2.2,0ZM270.3,711.4c0-2.5-1.7-4.2-4-4.2-2.3,0-4,1.6-4,4.1,0,2.5,1.7,4.2,4,4.2,2.3,0,4-1.6,4-4.2Z"/>
      <path class="st11" d="M287.2,712.1h-9.6c.3,2.1,1.9,3.5,4.3,3.5,1.4,0,2.5-.5,3.4-1.4l1.2,1.4c-1.1,1.2-2.7,1.9-4.7,1.9-3.8,0-6.4-2.5-6.4-6.1,0-3.5,2.5-6,5.9-6,3.4,0,5.8,2.5,5.8,6.1,0,.2,0,.4,0,.6ZM277.6,710.5h7.6c-.2-2-1.7-3.4-3.8-3.4-2.1,0-3.6,1.4-3.8,3.4Z"/>
      <path class="st11" d="M295.1,711.4c0-3.5,2.6-6,6.3-6,2.1,0,3.9.9,4.8,2.5l-1.6,1c-.8-1.2-1.9-1.7-3.2-1.7-2.3,0-4.1,1.6-4.1,4.1,0,2.6,1.7,4.2,4.1,4.2,1.3,0,2.5-.5,3.2-1.7l1.6,1c-.9,1.7-2.7,2.5-4.8,2.5-3.6,0-6.3-2.5-6.2-6.1Z"/>
      <path class="st11" d="M318.3,710.2v7.1s-2,0-2,0v-1.6c-.7,1.1-2,1.7-3.9,1.7-2.7,0-4.4-1.4-4.4-3.5,0-1.9,1.2-3.5,4.8-3.5h3.4s0-.4,0-.4c0-1.8-1-2.9-3.2-2.9-1.4,0-2.8.5-3.8,1.3l-.9-1.6c1.2-1,3-1.5,4.9-1.5,3.2,0,5.1,1.6,5.1,4.8ZM316.2,713.7v-1.7s-3.3,0-3.3,0c-2.1,0-2.7.8-2.7,1.8,0,1.2,1,1.9,2.6,1.9,1.6,0,2.9-.7,3.4-2.1Z"/>
      <path class="st11" d="M328.7,705.4v2.1c-.2,0-.3,0-.5,0-2.3,0-3.7,1.4-3.7,4v5.9s-2.2,0-2.2,0v-11.8s2.1,0,2.1,0v2c.8-1.4,2.2-2.1,4.3-2.1Z"/>
      <path class="st11" d="M338.5,716.7c-.6.6-1.6.8-2.6.8-2.4,0-3.8-1.3-3.7-3.7v-6.5s-2,0-2,0v-1.8s2,0,2,0v-2.6s2.1,0,2.1,0v2.6s3.4,0,3.4,0v1.8s-3.4,0-3.4,0v6.4c0,1.3.7,2,1.8,2,.6,0,1.2-.2,1.7-.6l.7,1.5Z"/>
      <path class="st11" d="M351.3,712.2h-9.6c.3,2.1,1.9,3.5,4.3,3.5,1.4,0,2.5-.5,3.4-1.4l1.2,1.4c-1.1,1.2-2.7,1.9-4.7,1.9-3.8,0-6.4-2.5-6.4-6.1,0-3.5,2.5-6,5.9-6,3.4,0,5.8,2.5,5.8,6.1,0,.2,0,.4,0,.6ZM341.7,710.6h7.6c-.2-2-1.7-3.4-3.8-3.4-2.1,0-3.6,1.4-3.8,3.4Z"/>
    </g>
    <g>
      <path class="st11" d="M162.6,784.6h4.2c3.2,0,5.3,2,5.3,5s-2.2,4.9-5.3,4.9h-4.2s0-9.9,0-9.9ZM166.7,793.3c2.4,0,4-1.5,4-3.7,0-2.2-1.6-3.7-4-3.7h-2.7s0,7.4,0,7.4h2.7Z"/>
      <path class="st11" d="M180,790v4.5s-1.3,0-1.3,0v-1c-.5.7-1.3,1.1-2.5,1.1-1.7,0-2.8-.9-2.8-2.2,0-1.2.8-2.2,3-2.2h2.1s0-.3,0-.3c0-1.1-.7-1.8-2-1.8-.9,0-1.8.3-2.4.8l-.6-1c.8-.6,1.9-1,3.1-1,2,0,3.2,1,3.2,3ZM178.7,792.3v-1s-2.1,0-2.1,0c-1.3,0-1.7.5-1.7,1.2,0,.7.6,1.2,1.7,1.2,1,0,1.8-.5,2.2-1.3Z"/>
      <path class="st11" d="M186.7,794.1c-.4.4-1,.5-1.6.5-1.5,0-2.4-.8-2.4-2.3v-4.1s-1.3,0-1.3,0v-1.1s1.3,0,1.3,0v-1.6s1.4,0,1.4,0v1.6s2.1,0,2.1,0v1.1s-2.1,0-2.1,0v4.1c0,.8.4,1.3,1.2,1.3.4,0,.8-.1,1.1-.4l.4,1Z"/>
      <path class="st11" d="M194.9,791.3h-6.1c.2,1.3,1.2,2.2,2.7,2.2.9,0,1.6-.3,2.2-.9l.7.9c-.7.8-1.7,1.2-3,1.2-2.4,0-4-1.6-4-3.8,0-2.2,1.6-3.8,3.8-3.8,2.2,0,3.7,1.6,3.7,3.9,0,.1,0,.3,0,.4ZM188.8,790.3h4.8c-.1-1.3-1.1-2.1-2.4-2.1-1.3,0-2.3.9-2.4,2.1Z"/>
      <path class="st11" d="M207.6,784.1v10.5s-1.3,0-1.3,0v-1.2c-.6.8-1.6,1.3-2.7,1.3-2.2,0-3.8-1.5-3.8-3.8s1.6-3.8,3.8-3.8c1.1,0,2,.4,2.6,1.2v-4.1s1.4,0,1.4,0ZM206.3,790.8c0-1.6-1.1-2.6-2.5-2.6-1.4,0-2.5,1-2.5,2.6,0,1.6,1.1,2.6,2.5,2.6,1.4,0,2.5-1,2.5-2.6Z"/>
      <path class="st11" d="M211.5,785c0,.3,0,.5-.2,1l-.7,2h-.9s.5-2.1.5-2.1c-.4-.1-.6-.5-.6-.9,0-.6.4-1,.9-1,.5,0,.9.4.9,1Z"/>
      <path class="st11" d="M219.8,791.3h-6.1c.2,1.3,1.2,2.2,2.7,2.2.9,0,1.6-.3,2.2-.9l.7.9c-.7.8-1.7,1.2-3,1.2-2.4,0-4-1.6-4-3.8,0-2.2,1.6-3.8,3.8-3.8,2.2,0,3.7,1.6,3.7,3.9,0,.1,0,.3,0,.4ZM213.7,790.3h4.8c-.1-1.3-1.1-2.1-2.4-2.1-1.3,0-2.3.9-2.4,2.1Z"/>
      <path class="st11" d="M226.2,794.6l-2.2-2.9-2.2,2.9h-1.5s3-3.8,3-3.8l-2.8-3.7h1.5s2.1,2.7,2.1,2.7l2.1-2.7h1.5s-2.8,3.7-2.8,3.7l3,3.8h-1.5Z"/>
      <path class="st11" d="M237,790.9c0,2.3-1.6,3.8-3.8,3.8-1.1,0-2-.4-2.6-1.2v3.9s-1.4,0-1.4,0v-10.2s1.3,0,1.3,0v1.2c.6-.8,1.6-1.3,2.7-1.3,2.2,0,3.8,1.5,3.8,3.8ZM235.6,790.9c0-1.6-1.1-2.6-2.5-2.6-1.4,0-2.5,1-2.5,2.6,0,1.6,1.1,2.6,2.5,2.6,1.4,0,2.5-1,2.5-2.6Z"/>
      <path class="st11" d="M238.7,784.8c0-.5.4-.9.9-.9.5,0,.9.4.9.9,0,.5-.4.9-.9.9-.5,0-.9-.4-.9-.9ZM238.9,787.1h1.4s0,7.5,0,7.5h-1.4s0-7.5,0-7.5Z"/>
      <path class="st11" d="M246.9,787.1v1.3c-.1,0-.2,0-.3,0-1.5,0-2.4.9-2.4,2.5v3.7s-1.4,0-1.4,0v-7.5s1.3,0,1.3,0v1.3c.5-.9,1.4-1.3,2.7-1.3Z"/>
      <path class="st11" d="M254.4,790.1v4.5s-1.3,0-1.3,0v-1c-.5.7-1.3,1.1-2.5,1.1-1.7,0-2.8-.9-2.8-2.2,0-1.2.8-2.2,3-2.2h2.1s0-.3,0-.3c0-1.1-.7-1.8-2-1.8-.9,0-1.8.3-2.4.8l-.6-1c.8-.6,1.9-1,3.1-1,2,0,3.2,1,3.2,3ZM253.1,792.3v-1s-2.1,0-2.1,0c-1.3,0-1.7.5-1.7,1.2,0,.7.6,1.2,1.7,1.2,1,0,1.8-.5,2.2-1.3Z"/>
      <path class="st11" d="M261.2,794.2c-.4.4-1,.5-1.6.5-1.5,0-2.4-.8-2.4-2.3v-4.1s-1.3,0-1.3,0v-1.1s1.3,0,1.3,0v-1.6s1.4,0,1.4,0v1.6s2.1,0,2.1,0v1.1s-2.1,0-2.1,0v4.1c0,.8.4,1.3,1.2,1.3.4,0,.8-.1,1.1-.4l.4,1Z"/>
      <path class="st11" d="M262.6,784.8c0-.5.4-.9.9-.9.5,0,.9.4.9.9,0,.5-.4.9-.9.9-.5,0-.9-.4-.9-.9ZM262.8,787.2h1.4s0,7.5,0,7.5h-1.4s0-7.5,0-7.5Z"/>
      <path class="st11" d="M266.1,790.9c0-2.2,1.7-3.8,3.9-3.8,2.2,0,3.9,1.6,3.9,3.8s-1.6,3.8-3.9,3.8c-2.2,0-3.9-1.6-3.9-3.8ZM272.5,790.9c0-1.6-1.1-2.6-2.5-2.6-1.4,0-2.5,1-2.5,2.6,0,1.6,1.1,2.6,2.5,2.6,1.4,0,2.5-1,2.5-2.6Z"/>
      <path class="st11" d="M282.8,790.4v4.3s-1.4,0-1.4,0v-4.2c0-1.5-.7-2.2-2-2.2-1.4,0-2.4.9-2.4,2.5v3.9s-1.4,0-1.4,0v-7.5s1.3,0,1.3,0v1.1c.6-.8,1.5-1.2,2.7-1.2,1.8,0,3.1,1,3.1,3.3Z"/>
    </g>
    <g>
      <path class="st11" d="M367.6,789.6c0-2.9,2.2-5.1,5.2-5.1,1.5,0,2.9.5,3.8,1.5l-.9.9c-.8-.8-1.7-1.2-2.8-1.2-2.2,0-3.9,1.6-3.9,3.8s1.6,3.8,3.9,3.8c1.1,0,2-.4,2.8-1.2l.9.9c-.9,1-2.2,1.6-3.8,1.5-3,0-5.2-2.1-5.2-5.1Z"/>
      <path class="st11" d="M387.1,784.7l-4.3,9.9h-1.4s-4.3-9.9-4.3-9.9h1.5s3.5,8.1,3.5,8.1l3.6-8.1h1.4Z"/>
      <path class="st11" d="M397.2,784.7l-4.3,9.9h-1.4s-4.3-9.9-4.3-9.9h1.5s3.5,8.1,3.5,8.1l3.6-8.1h1.4Z"/>
    </g>
    <g>
      <g>
        <path class="st11" d="M642.4,662.9c.3.4.5.8.7,1.3.2.5.2.9.2,1.5s0,1-.2,1.5c-.2.5-.4.9-.7,1.3-.4.5-.3,1.3.2,1.6.5.4,1.3.3,1.6-.2.4-.6.8-1.2,1-1.9.2-.7.4-1.4.4-2.2s-.1-1.5-.4-2.2c-.2-.7-.6-1.3-1-1.9-.4-.5-1.1-.6-1.6-.2-.5.4-.6,1.1-.2,1.6"/>
        <path class="st11" d="M646.4,660.7c.9,1.4,1.4,3.1,1.4,4.9s-.5,3.5-1.4,4.9c-.3.6-.2,1.3.4,1.6.6.3,1.3.2,1.6-.4,1.1-1.8,1.7-3.9,1.7-6.1,0-2.3-.6-4.4-1.7-6.1-.3-.6-1.1-.7-1.6-.4-.5.3-.7,1.1-.4,1.6"/>
        <path class="st11" d="M650.7,658.5c1.2,2.1,1.9,4.5,1.9,7.1,0,2.6-.7,5-1.9,7.1-.3.6-.1,1.3.4,1.6.6.3,1.3.1,1.6-.4,1.4-2.4,2.2-5.3,2.2-8.3s-.8-5.9-2.2-8.3c-.3-.6-1-.7-1.6-.4-.6.3-.7,1-.4,1.6"/>
        <path class="st11" d="M654.9,656.3c1.6,2.8,2.5,6,2.5,9.4s-.9,6.6-2.5,9.4c-.3.6-.1,1.3.4,1.6.6.3,1.3.1,1.6-.4,1.8-3.1,2.8-6.7,2.8-10.5s-1-7.4-2.8-10.5c-.3-.6-1-.8-1.6-.4-.6.3-.8,1-.4,1.6"/>
      </g>
      <path class="st11" d="M685.5,674.2l-6.6-11.3c0-.1-1.4-1.9-3-2,0,0-.3,0-.7,0,0,0,.2,0,.3,0-2.7-7.5-12-13-22.9-13s-23.7,7.9-23.7,17.6,10.6,17.6,23.7,17.6,16-3.3,20.2-8.3h0s0,0,0,0c0,0,1.1-.1,1.7-.2.5,1,1.8,2.8,4.4,3.2.2,0,.5-.1.5-.4,0,0,0,0,0,0,0-.2-.2-.4-.4-.4-3.1-.4-3.9-3.1-4-3.2-.7-2.4-2-3.6-2-3.6l-3.2-3.1-.7-.7-2.6-2.4c-.3-.3-.4-.6-.5-.9,0,0,0,0,0-.1,0-.7.5-1.2,1.2-1.3.3,0,.6,0,.9.3l3.5,2.3c2.1,1.3,4.2,2.8,4.2,2.8.2.1.5,0,.6-.1.1-.2,0-.5-.1-.6l-7.7-5.1c-.4-.3-1-.5-1.5-.4-1.2.1-2.1,1.2-2,2.4,0,.5.3,1,.8,1.5l1.8,1.7-.6-.5-3.4-.8c-.4-.1-.6-.3-.5-.8l1.3-5.3c.1-.6.2-.6.8-.5l5.8,1.4c.6.2.7.2.5.8,0,0-.3,1.1-.6,2.2l.8.5.4-1.4c1.9,0,3.6.1,3.6.1,1.2,0,2.3,1.6,2.3,1.6,0,0,6.5,11.2,6.5,11.2.1.2.4.3.6.2.2-.1.3-.4.2-.6ZM674.2,673.6h-1.4c-.6.2-1.1,0-1.1,0,0,0-2.5-1.2-2.9-1.4-.1-.2-.2-.3-.2-.5s0-.4.2-.5c.1-.2.3-.2.5-.3.2,0,.4,0,.6.2,0,0,1,.8,1,.8,0,0,0,0,0,0,.1,0,.8.4,1.3.3h1.3c0-.2,0-.2,0-.2.3.5.5,1.1.7,1.8,0,0,0-.1,0-.2ZM672.4,674.6s0,0,0,0c0,0,0,0,0,0ZM673.5,672c-.1,0-.2-.2-.2-.3,0,0,0,0,0,0,0,.1.1.2.2.4ZM673.3,671.6c0-.1-.2-.2-.2-.3,0,.1.1.2.2.3ZM672.5,670.6s.2.2.5.6h-.9c-.2.1-.6,0-.8-.1,0,0-3.3-2.7-3.3-2.7-.2-.1-.2-.3-.2-.5s0-.4.2-.5c.3-.4.7-.3.9,0l3.6,3.4ZM671.4,658.6s-5.8-1.4-5.8-1.4c-1-.2-1.6.1-1.9,1.1,0,0-1.3,5.3-1.3,5.3-.2,1,.1,1.7,1.1,1.9,0,0,3.9,1,4.9,1.2l.4.4-.4-.4c-.2,0-.6-.1-1-.2,0,0,0,0-.1.1-.3.3-.4.7-.4,1.1s.2.9.5,1.2c0,0,.6.4,1.2,1-.2,0-.4.2-.6.4-.3.3-.4.7-.4,1.1s.2.9.5,1.2c0,0,0,0,.1,0l2.9,1.4s.3.2.8.3c-4.1,4.7-11.3,7.7-19.4,7.7-12.7,0-23.1-7.6-23.1-16.9s10.4-16.9,23.1-16.9,19.5,5.2,22.2,12.3c.1,0,.2,0,.4,0-.6,0-1.6,0-2.7,0v-.2c.4-1.3-.3-1.7-1.1-1.9Z"/>
    </g>
  </g>
</svg>