<?xml version="1.0" encoding="UTF-8"?>
<svg id="Calque_2" data-name="Calque 2" xmlns="http://www.w3.org/2000/svg" viewBox="0 0 1239.22 1239.19">
  <defs>
    <style>
      .cls-1 {
        fill: #24356b;
      }

      .cls-2 {
        fill: #f6f6f6;
      }

      .cls-3 {
        fill: #e52a18;
      }
    </style>
  </defs>
  <g id="Capa_1" data-name="Capa 1">
    <g>
      <path class="cls-2" d="M18.31,470.77C100.48,138.59,436.35-63.9,768.44,18.3c332.17,82.16,534.67,417.98,452.5,750.11-82.2,332.12-418.01,534.7-750.16,452.49C138.68,1138.74-63.94,802.89,18.31,470.77"/>
      <path class="cls-3" d="M1192.57,384.01h-479.9v94.85h510.37c-7.61-32.51-17.85-64.21-30.47-94.85M1070.07,194.23h-357.41v94.94h430.94c-21.35-33.86-45.95-65.68-73.53-94.94M172.2,1048.1h894.9c27.71-28.87,52.75-60.59,74.63-94.84H97.7c21.65,33.87,46.59,65.66,74.5,94.84M768.45,18.27c-18.6-4.61-37.21-8.27-55.79-11.12v92.23h243.58c-56.17-36.34-119.21-64.15-187.79-81.11M1237.52,573.7h-524.86v94.94h524.52c2.58-31.93,2.64-63.65.34-94.94M48.01,858.41h1143.27c11.98-28.78,21.93-58.82,29.64-90.02.41-1.64.77-3.27,1.15-4.91H16.99c7.8,32.54,18.19,64.28,31.02,94.93M470.79,1220.87c36.66,9.07,73.36,14.67,109.76,17.01h78.84c104.84-6.71,204.95-40.08,291.6-94.93H287.96c54.91,34.78,116.26,61.46,182.83,77.92"/>
      <path class="cls-1" d="M665.7,633.86l-13.38-9.76-13.42,9.76,5.11-15.72-13.37-9.75h16.53l5.15-15.72,5.06,15.72h16.57l-13.37,9.75,5.11,15.72ZM599.89,134.61l5.1,15.81-13.37-9.75-13.4,9.75,5.14-15.81-13.41-9.67h16.52l5.15-15.81,5.11,15.81h16.57l-13.41,9.67ZM599.89,277.24l5.1,15.72-13.37-9.76-13.4,9.76,5.14-15.72-13.41-9.75h16.52l5.15-15.72,5.11,15.72h16.57l-13.41,9.75ZM598.67,416.97l5.11,15.72-13.4-9.76-13.38,9.76,5.11-15.72-13.42-9.75h16.58l5.11-15.71,5.1,15.71h16.57l-13.37,9.75ZM602.55,570.81l-13.41-9.76-13.37,9.76,5.09-15.72-13.4-9.76h16.57l5.11-15.72,5.1,15.72h16.58l-13.41,9.76,5.15,15.72ZM536.69,203.71l5.16,15.72-13.37-9.66-13.46,9.66,5.15-15.72-13.38-9.75h16.53l5.15-15.71,5.06,15.71h16.53l-13.38,9.75ZM536.69,341.91l5.16,15.72-13.37-9.75-13.46,9.75,5.15-15.72-13.38-9.75h16.53l5.15-15.72,5.06,15.72h16.53l-13.38,9.75ZM536.69,483.19l5.16,15.81-13.37-9.75-13.46,9.75,5.15-15.81-13.38-9.67h16.53l5.15-15.81,5.06,15.81h16.53l-13.38,9.67ZM541.85,633.86l-13.37-9.76-13.46,9.76,5.15-15.72-13.38-9.75h16.53l5.15-15.72,5.06,15.72h16.53l-13.38,9.75,5.16,15.72ZM476,134.61l5.15,15.81-13.41-9.75-13.42,9.75,5.14-15.81-13.36-9.67h16.53l5.1-15.81,5.11,15.81h16.57l-13.41,9.67ZM476,277.24l5.15,15.72-13.41-9.76-13.42,9.76,5.14-15.72-13.36-9.75h16.53l5.1-15.72,5.11,15.72h16.57l-13.41,9.75ZM474.82,416.97l5.1,15.72-13.42-9.76-13.36,9.76,5.11-15.72-13.41-9.75h16.52l5.14-15.71,5.11,15.71h16.58l-13.38,9.75ZM478.67,570.81l-13.37-9.76-13.41,9.76,5.1-15.72-13.38-9.76h16.54l5.15-15.72,5.11,15.72h16.52l-13.37,9.76,5.1,15.72ZM412.87,65.6l5.1,15.71-13.37-9.75-13.42,9.75,5.11-15.71-13.36-9.76h16.56l5.11-15.72,5.1,15.72h16.58l-13.41,9.76ZM412.87,203.71l5.1,15.72-13.37-9.66-13.42,9.66,5.11-15.72-13.36-9.75h16.56l5.11-15.71,5.1,15.71h16.58l-13.41,9.75ZM412.87,341.91l5.1,15.72-13.37-9.75-13.42,9.75,5.11-15.72-13.36-9.75h16.56l5.11-15.72,5.1,15.72h16.58l-13.41,9.75ZM412.87,483.19l5.1,15.81-13.37-9.75-13.42,9.75,5.11-15.81-13.36-9.67h16.56l5.11-15.81,5.1,15.81h16.58l-13.41,9.67ZM417.97,633.86l-13.37-9.76-13.42,9.76,5.11-15.72-13.36-9.75h16.56l5.11-15.72,5.1,15.72h16.58l-13.41,9.75,5.1,15.72ZM352.16,129.64l5.15,15.81-13.46-9.76-13.37,9.76,5.15-15.81-13.41-9.67h16.53l5.1-15.72,5.15,15.72h16.53l-13.37,9.67ZM352.16,272.27l5.15,15.72-13.46-9.67-13.37,9.67,5.15-15.72-13.41-9.75h16.53l5.1-15.71,5.15,15.71h16.53l-13.37,9.75ZM350.89,412.01l5.15,15.72-13.37-9.76-13.46,9.76,5.15-15.72-13.37-9.75h16.54l5.15-15.72,5.06,15.72h16.57l-13.41,9.75ZM354.82,565.93l-13.41-9.76-13.37,9.76,5.11-15.81-13.42-9.67h16.53l5.15-15.72,5.11,15.72h16.58l-13.38,9.67,5.1,15.81ZM289.02,203.71l5.15,15.72-13.37-9.66-13.46,9.66,5.15-15.72-13.36-9.75h16.49l5.18-15.71,5.06,15.71h16.53l-13.37,9.75ZM289.02,341.91l5.15,15.72-13.37-9.75-13.46,9.75,5.15-15.72-13.36-9.75h16.49l5.18-15.72,5.06,15.72h16.53l-13.37,9.75ZM289.02,483.19l5.15,15.81-13.37-9.75-13.46,9.75,5.15-15.81-13.36-9.67h16.49l5.18-15.81,5.06,15.81h16.53l-13.37,9.67ZM294.17,633.86l-13.37-9.76-13.46,9.76,5.15-15.72-13.36-9.75h16.49l5.18-15.72,5.06,15.72h16.53l-13.37,9.75,5.15,15.72ZM228.32,270.91l5.1,15.72-13.37-9.76-13.42,9.76,5.15-15.72-13.41-9.75h16.57l5.11-15.71,5.09,15.71h16.59l-13.41,9.75ZM227.1,410.65l5.1,15.72-13.36-9.75-13.42,9.75,5.1-15.72-13.37-9.75h16.52l5.16-15.72,5.05,15.72h16.58l-13.37,9.75ZM230.94,564.48l-13.37-9.75-13.37,9.75,5.1-15.72-13.42-9.76h16.58l5.11-15.72,5.14,15.72h16.53l-13.42,9.76,5.11,15.72ZM523.33,55.84l5.15-15.72,5.06,15.72h16.53l-13.38,9.76,5.16,15.71-13.37-9.75-13.46,9.75,5.15-15.71-13.38-9.76h16.53ZM647.17,473.52l5.15-15.81,5.06,15.81h16.56l-13.36,9.67,5.11,15.81-13.38-9.75-13.42,9.75,5.11-15.81-13.37-9.67h16.53ZM647.17,332.16l5.15-15.72,5.06,15.72h16.56l-13.36,9.75,5.11,15.72-13.38-9.75-13.42,9.75,5.11-15.72-13.37-9.75h16.53ZM647.17,193.95l5.15-15.71,5.06,15.71h16.56l-13.36,9.75,5.11,15.72-13.38-9.66-13.42,9.66,5.11-15.72-13.37-9.75h16.53ZM647.17,55.84l5.15-15.72,5.06,15.72h16.56l-13.36,9.76,5.11,15.71-13.38-9.75-13.42,9.75,5.11-15.71-13.37-9.76h16.53ZM165.17,341.91l5.11,15.72-13.4-9.75-13.37,9.75,5.1-15.72-13.41-9.75h16.52l5.15-15.72,5.1,15.72h16.58l-13.38,9.75ZM165.17,483.19l5.11,15.81-13.4-9.75-13.37,9.75,5.1-15.81-13.41-9.67h16.52l5.15-15.81,5.1,15.81h16.58l-13.38,9.67ZM170.28,633.86l-13.41-9.76-13.36,9.76,5.1-15.72-13.42-9.75h16.53l5.15-15.72,5.1,15.72h16.59l-13.38,9.75,5.11,15.72ZM103.18,408.21l5.14,15.72-13.41-9.75-13.38,9.75,5.11-15.72-13.41-9.75h16.58l5.1-15.72,5.15,15.72h16.53l-13.4,9.75ZM107.09,562.04l-13.36-9.76-13.46,9.76,5.15-15.72-13.38-9.75h16.53l5.15-15.72,5.05,15.72h16.59l-13.42,9.75,5.15,15.72ZM46.4,633.86l-13.38-9.76-13.41,9.76,5.1-15.72-13.37-9.75h16.58l5.1-15.72,5.15,15.72h16.48l-13.36,9.75,5.1,15.72ZM712.66,7.16c-6.09-.93-51.25-5.89-57.32-6.63l-111.35,4.1c-115.42,14.22-223.69,60.77-312.84,132.44l2.29,7.03-5.8-4.23c-20.5,16.72-39.94,34.79-58.21,54.09h9.14l-13.38,9.75,5.11,15.72-13.4-9.66-5.34,3.86c-12.5,14.39-24.35,29.4-35.53,45.01h1.85l-3.89,2.82c-2.71,3.83-5.39,7.69-8.01,11.59l3.59,11.07-7.37-5.32c-37.68,57.22-66.48,121.69-83.88,191.98-.23.92-.43,1.84-.65,2.76h10.28l5.1-15.81,5.15,15.81h16.48l-13.36,9.67,5.1,15.81-13.38-9.75-13.41,9.75,5.1-15.81-7.98-5.77C1.5,541.98-3.04,606.62,2.02,669.45h710.64V7.16Z"/>
    </g>
  </g>
</svg>